{"glyphs":{"0":{"ha":560,"x_min":75,"x_max":483,"o":"m 278 -17 q 177 9 224 -17 q 103 90 131 35 q 75 226 75 144 l 75 593 q 135 774 75 715 q 281 832 196 832 q 424 773 365 832 q 483 593 483 714 l 483 228 q 456 88 483 143 q 383 8 429 33 q 278 -17 336 -17 m 279 18 q 390 70 346 18 q 433 215 433 122 l 433 597 q 388 745 433 693 q 279 797 343 797 q 170 745 214 797 q 126 597 126 693 l 126 215 q 170 70 126 122 q 279 18 214 18 z "},"1":{"ha":313,"x_min":32,"x_max":211,"o":"m 161 0 l 161 735 l 32 735 l 32 764 l 118 765 q 156 776 146 765 q 171 821 165 788 l 211 821 l 211 0 l 161 0 z "},"2":{"ha":514,"x_min":65,"x_max":468,"o":"m 69 0 q 69 75 69 38 q 69 153 69 113 q 91 258 69 219 q 151 323 113 297 q 243 375 189 349 q 327 431 292 399 q 384 509 363 463 q 406 619 406 556 q 372 743 407 700 q 261 786 338 786 q 154 747 193 786 q 115 629 115 708 l 115 556 l 65 556 l 65 632 q 117 778 65 731 q 261 826 169 826 q 376 802 333 826 q 439 731 419 778 q 458 615 458 685 q 417 459 458 525 q 300 351 376 393 q 216 308 256 332 q 151 251 176 285 q 125 160 126 217 q 122 103 122 132 q 121 46 121 75 l 468 46 l 468 0 l 69 0 z "},"3":{"ha":540,"x_min":61,"x_max":471,"o":"m 267 -11 q 146 16 190 -11 q 81 90 101 43 q 61 194 61 138 l 61 271 l 114 271 l 114 190 q 153 73 114 115 q 267 29 193 31 q 376 71 335 29 q 418 186 418 113 l 418 260 q 374 369 418 331 q 257 410 331 407 l 169 410 l 169 450 l 257 450 q 324 464 292 450 q 378 504 356 478 q 402 551 394 526 q 410 603 410 575 l 410 646 q 376 745 410 704 q 267 786 342 786 q 156 744 190 786 q 122 642 122 703 l 122 585 l 68 585 l 68 638 q 115 776 68 726 q 267 826 163 826 q 418 777 371 826 q 465 639 465 728 l 465 608 q 428 490 465 535 q 338 428 392 446 q 438 365 406 414 q 471 246 471 317 l 471 194 q 452 90 471 138 q 389 16 433 43 q 267 -11 344 -11 z "},"4":{"ha":483,"x_min":25,"x_max":454,"o":"m 325 0 l 325 168 l 25 168 l 25 207 l 336 821 l 375 821 l 375 206 l 454 206 l 454 168 l 375 168 l 375 0 l 325 0 m 74 206 l 325 206 l 325 700 l 74 206 z "},"5":{"ha":546,"x_min":68,"x_max":476,"o":"m 276 -11 q 163 8 208 -11 q 92 74 117 26 q 68 211 68 122 l 68 246 l 121 246 l 121 217 q 156 73 121 117 q 278 29 192 29 q 393 80 360 29 q 426 225 426 131 l 426 335 q 413 424 426 383 q 367 490 400 465 q 274 514 335 514 q 176 483 217 514 q 121 403 135 453 l 74 403 l 74 821 l 450 821 l 450 778 l 125 778 l 125 474 q 189 531 149 513 q 283 550 229 550 q 426 506 375 550 q 476 342 476 461 l 476 225 q 449 76 476 126 q 376 7 422 25 q 276 -11 329 -11 z "},"6":{"ha":554,"x_min":75,"x_max":483,"o":"m 278 -11 q 158 16 203 -11 q 94 91 114 43 q 75 196 75 139 l 75 624 q 132 771 75 718 q 282 824 189 824 q 424 776 374 824 q 475 631 475 729 l 475 579 l 425 579 l 425 638 q 388 751 425 715 q 282 786 350 786 q 169 742 210 786 q 128 632 128 697 l 128 419 q 196 481 153 458 q 293 504 239 504 q 428 453 374 504 q 483 315 483 401 l 483 194 q 463 90 483 138 q 399 16 443 43 q 278 -11 354 -11 m 279 24 q 390 65 347 24 q 433 189 433 107 l 433 310 q 390 424 433 386 q 278 465 346 463 q 171 427 214 465 q 128 322 128 389 l 128 189 q 167 68 128 110 q 279 24 207 26 z "},"7":{"ha":396,"x_min":19,"x_max":357,"o":"m 79 0 l 308 781 l 21 781 l 19 821 l 357 821 l 357 778 l 131 0 l 79 0 z "},"8":{"ha":546,"x_min":68,"x_max":478,"o":"m 274 -11 q 153 16 197 -11 q 88 90 108 43 q 68 194 68 138 l 68 244 q 79 323 68 286 q 117 385 90 360 q 155 413 132 401 q 207 431 178 425 q 158 451 179 438 q 121 483 138 465 q 87 540 99 507 q 75 614 75 572 l 75 640 q 96 740 75 699 q 160 804 117 782 q 274 826 204 826 q 387 804 343 826 q 451 740 431 782 q 471 640 471 699 l 471 614 q 454 528 471 565 q 409 468 438 492 q 343 431 381 444 q 405 406 379 422 q 447 365 431 389 q 470 310 463 340 q 478 244 478 279 l 478 194 q 459 92 478 139 q 395 17 440 46 q 274 -11 350 -11 m 272 24 q 383 65 342 24 q 425 176 425 106 l 425 258 q 383 366 425 328 q 272 407 342 404 q 164 367 207 407 q 121 258 121 326 l 121 176 q 160 67 121 108 q 272 24 200 26 m 272 451 q 375 496 333 451 q 417 606 417 540 l 417 651 q 382 751 417 710 q 272 792 347 792 q 163 751 197 792 q 129 651 129 710 l 129 607 q 149 526 129 561 q 201 472 168 492 q 272 451 235 451 z "},"9":{"ha":551,"x_min":68,"x_max":476,"o":"m 269 -11 q 127 36 178 -11 q 76 182 76 83 l 76 239 l 128 239 l 128 175 q 165 63 128 99 q 269 26 203 26 q 383 71 342 26 q 425 181 425 115 l 425 396 q 356 333 399 356 q 260 311 314 311 q 163 335 206 311 q 94 402 119 358 q 68 506 68 446 l 68 618 q 88 723 68 676 q 153 797 108 769 q 274 824 199 824 q 394 797 350 824 q 457 722 438 769 q 476 617 476 675 l 476 189 q 419 42 476 94 q 269 -11 363 -11 m 274 349 q 381 388 338 349 q 425 493 425 426 l 425 624 q 385 745 425 704 q 274 789 344 786 q 163 747 207 789 q 119 624 119 706 l 119 504 q 163 390 119 429 q 274 349 207 351 z "},"\r":{"ha":833,"x_min":0,"x_max":0,"o":""}," ":{"ha":271,"x_min":0,"x_max":0,"o":""}," ":{"ha":271,"x_min":0,"x_max":0,"o":""},"A":{"ha":501,"x_min":25,"x_max":475,"o":"m 25 0 l 225 821 l 278 821 l 475 0 l 422 0 l 369 210 l 126 210 l 75 0 l 25 0 m 131 242 l 367 242 l 250 733 l 131 242 z "},"А":{"ha":501,"x_min":25,"x_max":475,"o":"m 25 0 l 225 821 l 278 821 l 475 0 l 422 0 l 369 210 l 126 210 l 75 0 l 25 0 m 131 242 l 367 242 l 250 733 l 131 242 z "},"Æ":{"ha":719,"x_min":18,"x_max":683,"o":"m 18 0 l 315 821 l 669 821 l 669 783 l 375 783 l 379 451 l 635 451 l 635 411 l 379 411 l 383 38 l 683 38 l 683 0 l 332 0 l 328 210 l 144 210 l 68 0 l 18 0 m 153 242 l 331 242 l 332 717 l 332 733 l 329 719 l 153 242 z "},"Á":{"ha":501,"x_min":25,"x_max":475,"o":"m 25 0 l 225 821 l 278 821 l 475 0 l 422 0 l 369 210 l 126 210 l 75 0 l 25 0 m 131 242 l 367 242 l 250 733 l 131 242 m 193 879 l 306 988 l 365 988 l 232 879 l 193 879 z "},"Ă":{"ha":501,"x_min":25,"x_max":475,"o":"m 25 0 l 225 821 l 278 821 l 475 0 l 422 0 l 369 210 l 126 210 l 75 0 l 25 0 m 131 242 l 367 242 l 250 733 l 131 242 m 249 875 q 174 894 201 875 q 135 942 147 914 q 122 992 124 969 l 156 992 q 188 927 163 949 q 249 906 213 906 q 313 926 288 906 q 343 992 338 947 l 376 992 q 362 941 375 968 q 322 894 349 914 q 249 875 294 875 z "},"Ắ":{"ha":501,"x_min":25,"x_max":475,"o":"m 25 0 l 225 821 l 278 821 l 475 0 l 422 0 l 369 210 l 126 210 l 75 0 l 25 0 m 131 242 l 367 242 l 250 733 l 131 242 m 250 868 q 195 882 215 868 q 167 917 175 896 q 157 954 158 938 l 190 954 q 210 913 194 926 q 250 899 225 899 q 291 912 275 899 q 310 954 307 925 l 343 954 q 322 897 342 925 q 250 868 301 868 m 215 968 l 269 1057 l 325 1057 l 247 968 l 215 968 z "},"Ặ":{"ha":501,"x_min":25,"x_max":475,"o":"m 25 0 l 225 821 l 278 821 l 475 0 l 422 0 l 369 210 l 126 210 l 75 0 l 25 0 m 131 242 l 367 242 l 250 733 l 131 242 m 250 -135 q 224 -124 235 -135 q 214 -100 214 -114 q 224 -75 214 -85 q 250 -65 235 -65 q 276 -75 265 -65 q 288 -100 288 -85 q 276 -124 288 -114 q 250 -135 265 -135 m 249 875 q 174 894 201 875 q 135 942 147 914 q 122 992 124 969 l 156 992 q 188 927 163 949 q 249 906 213 906 q 313 926 288 906 q 343 992 338 947 l 376 992 q 362 941 375 968 q 322 894 349 914 q 249 875 294 875 z "},"Ằ":{"ha":501,"x_min":25,"x_max":475,"o":"m 25 0 l 225 821 l 278 821 l 475 0 l 422 0 l 369 210 l 126 210 l 75 0 l 25 0 m 131 242 l 367 242 l 250 733 l 131 242 m 250 868 q 195 882 215 868 q 167 917 175 896 q 157 954 158 938 l 190 954 q 210 913 194 926 q 250 899 225 899 q 291 912 275 899 q 310 954 307 925 l 343 954 q 322 897 342 925 q 250 868 301 868 m 253 968 l 175 1057 l 231 1057 l 285 968 l 253 968 z "},"Ẳ":{"ha":501,"x_min":25,"x_max":475,"o":"m 25 0 l 225 821 l 278 821 l 475 0 l 422 0 l 369 210 l 126 210 l 75 0 l 25 0 m 131 242 l 367 242 l 250 733 l 131 242 m 250 868 q 195 882 215 868 q 167 917 175 896 q 157 954 158 938 l 190 954 q 210 913 194 926 q 250 899 225 899 q 291 912 275 899 q 310 954 307 925 l 343 954 q 322 897 342 925 q 250 868 301 868 m 235 969 l 235 986 q 247 1007 235 1000 q 269 1020 258 1014 q 281 1040 281 1026 l 281 1043 q 274 1063 281 1054 q 250 1071 267 1071 q 231 1065 239 1071 q 219 1047 222 1060 l 193 1053 q 211 1085 197 1074 q 250 1096 225 1096 q 297 1082 283 1096 q 311 1044 311 1068 l 311 1042 q 300 1011 311 1019 q 276 998 289 1003 q 264 982 264 993 l 264 969 l 235 969 z "},"Ẵ":{"ha":501,"x_min":25,"x_max":475,"o":"m 25 0 l 225 821 l 278 821 l 475 0 l 422 0 l 369 210 l 126 210 l 75 0 l 25 0 m 131 242 l 367 242 l 250 733 l 131 242 m 249 868 q 194 882 214 868 q 165 917 174 896 q 156 954 157 938 l 189 954 q 210 912 194 925 q 249 899 225 899 q 290 912 275 899 q 310 954 306 925 l 342 954 q 320 897 342 925 q 249 868 299 868 m 290 976 q 268 981 278 976 q 244 994 258 985 q 229 1006 239 999 q 206 1013 219 1013 q 187 1004 194 1013 q 178 978 179 996 l 154 978 q 169 1022 156 1004 q 207 1040 183 1040 q 231 1035 221 1040 q 251 1022 242 1029 q 272 1010 263 1015 q 290 1006 281 1006 q 309 1013 301 1006 q 319 1039 317 1019 l 343 1039 q 335 1008 343 1022 q 317 985 328 993 q 290 976 306 976 z "},"Ǎ":{"ha":501,"x_min":25,"x_max":475,"o":"m 25 0 l 225 821 l 278 821 l 475 0 l 422 0 l 369 210 l 126 210 l 75 0 l 25 0 m 131 242 l 367 242 l 250 733 l 131 242 m 228 872 l 115 978 l 154 978 l 249 903 l 344 979 l 385 979 l 271 872 l 228 872 z "},"Â":{"ha":501,"x_min":25,"x_max":475,"o":"m 25 0 l 225 821 l 278 821 l 475 0 l 422 0 l 369 210 l 126 210 l 75 0 l 25 0 m 131 242 l 367 242 l 250 733 l 131 242 m 110 872 l 229 990 l 272 990 l 392 872 l 353 872 l 250 960 l 150 872 l 110 872 z "},"Ấ":{"ha":501,"x_min":25,"x_max":475,"o":"m 25 0 l 225 821 l 278 821 l 475 0 l 422 0 l 369 210 l 126 210 l 75 0 l 25 0 m 131 242 l 367 242 l 250 733 l 131 242 m 147 871 l 232 957 l 269 957 l 354 871 l 318 871 l 250 929 l 185 871 l 147 871 m 353 924 l 407 1011 l 461 1011 l 383 924 l 353 924 z "},"Ậ":{"ha":501,"x_min":25,"x_max":475,"o":"m 25 0 l 225 821 l 278 821 l 475 0 l 422 0 l 369 210 l 126 210 l 75 0 l 25 0 m 131 242 l 367 242 l 250 733 l 131 242 m 250 -135 q 224 -124 235 -135 q 214 -100 214 -114 q 224 -75 214 -85 q 250 -65 235 -65 q 276 -75 265 -65 q 288 -100 288 -85 q 276 -124 288 -114 q 250 -135 265 -135 m 110 872 l 229 990 l 272 990 l 392 872 l 353 872 l 250 960 l 150 872 l 110 872 z "},"Ầ":{"ha":501,"x_min":25,"x_max":475,"o":"m 25 0 l 225 821 l 278 821 l 475 0 l 422 0 l 369 210 l 126 210 l 75 0 l 25 0 m 131 242 l 367 242 l 250 733 l 131 242 m 147 871 l 232 957 l 269 957 l 354 871 l 318 871 l 250 929 l 185 871 l 147 871 m 392 922 l 314 1011 l 368 1011 l 422 922 l 392 922 z "},"Ẩ":{"ha":501,"x_min":25,"x_max":475,"o":"m 25 0 l 225 821 l 278 821 l 475 0 l 422 0 l 369 210 l 126 210 l 75 0 l 25 0 m 131 242 l 367 242 l 250 733 l 131 242 m 147 871 l 232 957 l 269 957 l 354 871 l 318 871 l 250 929 l 185 871 l 147 871 m 371 924 l 371 940 q 382 960 371 954 q 405 974 393 967 q 417 994 417 981 l 417 997 q 409 1017 417 1008 q 386 1025 401 1025 q 358 1001 365 1025 l 333 1007 q 350 1036 336 1025 q 389 1047 364 1047 q 434 1035 421 1047 q 447 997 447 1022 l 447 994 q 435 965 447 974 q 411 951 424 957 q 399 935 399 946 l 399 924 l 371 924 z "},"Ẫ":{"ha":501,"x_min":25,"x_max":475,"o":"m 25 0 l 225 821 l 278 821 l 475 0 l 422 0 l 369 210 l 126 210 l 75 0 l 25 0 m 131 242 l 367 242 l 250 733 l 131 242 m 147 871 l 232 957 l 269 957 l 354 871 l 318 871 l 250 929 l 185 871 l 147 871 m 290 978 q 269 982 278 978 q 247 996 260 986 q 228 1007 239 1001 q 207 1013 218 1013 q 187 1005 196 1013 q 175 979 178 997 l 156 979 q 172 1024 157 1008 q 208 1039 186 1039 q 229 1035 219 1039 q 253 1021 239 1032 q 273 1010 263 1014 q 290 1006 283 1006 q 312 1014 303 1006 q 324 1039 321 1022 l 346 1039 q 337 1007 344 1021 q 317 985 329 993 q 290 978 304 978 z "},"Ä":{"ha":501,"x_min":25,"x_max":475,"o":"m 25 0 l 225 821 l 278 821 l 475 0 l 422 0 l 369 210 l 126 210 l 75 0 l 25 0 m 131 242 l 367 242 l 250 733 l 131 242 m 190 890 q 166 901 176 890 q 156 926 156 911 q 166 950 156 940 q 190 960 176 960 q 216 950 206 960 q 226 926 226 940 q 216 901 226 911 q 190 890 206 890 m 310 890 q 284 901 294 890 q 274 926 274 911 q 284 950 274 940 q 310 960 294 960 q 334 950 324 960 q 344 926 344 940 q 334 901 344 911 q 310 890 324 890 z "},"Ạ":{"ha":501,"x_min":25,"x_max":475,"o":"m 25 0 l 225 821 l 278 821 l 475 0 l 422 0 l 369 210 l 126 210 l 75 0 l 25 0 m 131 242 l 367 242 l 250 733 l 131 242 m 250 -135 q 224 -124 235 -135 q 214 -100 214 -114 q 224 -75 214 -85 q 250 -65 235 -65 q 276 -75 265 -65 q 288 -100 288 -85 q 276 -124 288 -114 q 250 -135 265 -135 z "},"À":{"ha":501,"x_min":25,"x_max":475,"o":"m 25 0 l 225 821 l 278 821 l 475 0 l 422 0 l 369 210 l 126 210 l 75 0 l 25 0 m 131 242 l 367 242 l 250 733 l 131 242 m 268 879 l 136 986 l 197 986 l 308 879 l 268 879 z "},"Ả":{"ha":501,"x_min":25,"x_max":475,"o":"m 25 0 l 225 821 l 278 821 l 475 0 l 422 0 l 369 210 l 126 210 l 75 0 l 25 0 m 131 242 l 367 242 l 250 733 l 131 242 m 235 869 l 235 894 q 251 925 235 915 q 283 944 267 935 q 300 972 300 954 l 300 978 q 289 1006 300 993 q 253 1018 278 1018 q 213 983 219 1018 l 182 990 q 206 1029 188 1015 q 257 1043 224 1043 q 314 1027 294 1043 q 333 976 333 1011 l 333 974 q 316 932 333 944 q 282 912 299 919 q 265 888 265 904 l 265 869 l 235 869 z "},"Ā":{"ha":501,"x_min":25,"x_max":475,"o":"m 25 0 l 225 821 l 278 821 l 475 0 l 422 0 l 369 210 l 126 210 l 75 0 l 25 0 m 131 242 l 367 242 l 250 733 l 131 242 m 128 908 l 128 939 l 372 939 l 372 908 l 128 908 z "},"Ą":{"ha":501,"x_min":25,"x_max":501,"o":"m 25 0 l 225 821 l 278 821 l 475 0 l 422 0 l 369 210 l 126 210 l 75 0 l 25 0 m 131 242 l 367 242 l 250 733 l 131 242 m 446 -182 q 385 -161 411 -182 q 360 -106 360 -140 q 386 -38 360 -65 q 440 0 413 -11 l 475 0 q 419 -44 439 -18 q 399 -99 399 -71 q 417 -140 399 -126 q 453 -154 435 -154 q 476 -151 467 -154 q 492 -144 486 -147 l 501 -167 q 479 -177 493 -172 q 446 -182 465 -182 z "},"Å":{"ha":501,"x_min":25,"x_max":475,"o":"m 25 0 l 225 821 l 278 821 l 475 0 l 422 0 l 369 210 l 126 210 l 75 0 l 25 0 m 131 242 l 367 242 l 250 733 l 131 242 m 254 800 q 179 829 208 800 q 150 899 150 858 q 179 969 150 940 q 254 999 208 999 q 331 969 303 999 q 360 899 360 940 q 328 829 360 858 q 254 800 297 800 m 254 831 q 307 850 288 831 q 326 899 326 869 q 307 949 326 931 q 254 968 288 968 q 202 949 221 968 q 183 899 183 931 q 202 850 183 869 q 254 831 221 831 z "},"Ã":{"ha":501,"x_min":25,"x_max":475,"o":"m 25 0 l 225 821 l 278 821 l 475 0 l 422 0 l 369 210 l 126 210 l 75 0 l 25 0 m 131 242 l 367 242 l 250 733 l 131 242 m 307 889 q 278 894 290 889 q 247 914 267 900 q 224 930 238 921 q 193 939 210 939 q 165 928 176 939 q 149 890 153 917 l 121 890 q 142 947 124 925 q 193 969 161 969 q 225 962 210 969 q 256 943 240 954 q 282 927 271 933 q 307 921 293 921 q 336 932 325 921 q 351 968 347 943 l 381 968 q 369 926 379 944 q 344 899 360 908 q 307 889 328 889 z "},"B":{"ha":576,"x_min":101,"x_max":496,"o":"m 101 0 l 101 821 l 336 821 q 444 790 400 821 q 488 686 488 760 l 488 583 q 476 513 488 543 q 446 465 465 483 q 397 439 425 444 q 351 433 368 433 l 351 436 q 410 430 382 436 q 454 406 438 424 q 485 357 474 386 q 496 289 496 328 l 496 167 q 474 60 496 96 q 414 13 453 25 q 324 0 375 0 l 101 0 m 153 33 l 318 33 q 385 43 357 33 q 429 83 414 53 q 444 172 444 113 l 444 292 q 403 388 444 364 q 303 411 363 411 l 153 411 l 153 33 m 153 449 l 300 449 q 403 483 368 449 q 439 576 439 517 l 439 676 q 406 760 439 733 q 329 788 374 788 l 153 788 l 153 449 z "},"Б":{"ha":532,"x_min":101,"x_max":467,"o":"m 101 0 l 101 821 l 453 821 l 453 782 l 151 782 l 151 604 l 299 604 q 399 584 363 604 q 451 524 436 564 q 467 425 467 485 l 467 199 q 458 110 467 147 q 431 48 450 72 q 378 12 411 24 q 297 0 346 0 l 101 0 m 290 33 q 372 54 346 33 q 408 111 399 75 q 417 192 417 147 l 417 414 q 409 490 417 454 q 374 547 401 525 q 288 569 346 569 l 151 569 l 151 33 l 290 33 z "},"C":{"ha":556,"x_min":88,"x_max":479,"o":"m 282 -17 q 183 -3 226 -17 q 113 50 139 10 q 88 174 88 90 l 88 651 q 113 769 88 731 q 183 819 139 807 q 285 832 228 832 q 385 819 342 832 q 454 767 429 806 q 479 651 479 729 l 479 519 l 429 519 l 429 650 q 410 747 429 715 q 358 789 392 779 q 283 799 325 799 q 207 789 240 799 q 156 747 174 779 q 138 650 138 715 l 138 167 q 156 69 138 101 q 207 28 174 38 q 283 18 240 18 q 359 28 326 18 q 410 69 392 38 q 429 167 429 101 l 429 272 l 479 272 l 479 174 q 454 49 479 89 q 385 -4 429 8 q 282 -17 340 -17 z "},"Ć":{"ha":556,"x_min":88,"x_max":479,"o":"m 282 -17 q 183 -3 226 -17 q 113 50 139 10 q 88 174 88 90 l 88 651 q 113 769 88 731 q 183 819 139 807 q 285 832 228 832 q 385 819 342 832 q 454 767 429 806 q 479 651 479 729 l 479 519 l 429 519 l 429 650 q 410 747 429 715 q 358 789 392 779 q 283 799 325 799 q 207 789 240 799 q 156 747 174 779 q 138 650 138 715 l 138 167 q 156 69 138 101 q 207 28 174 38 q 283 18 240 18 q 359 28 326 18 q 410 69 392 38 q 429 167 429 101 l 429 272 l 479 272 l 479 174 q 454 49 479 89 q 385 -4 429 8 q 282 -17 340 -17 m 221 879 l 333 988 l 393 988 l 260 879 l 221 879 z "},"Č":{"ha":556,"x_min":88,"x_max":479,"o":"m 282 -17 q 183 -3 226 -17 q 113 50 139 10 q 88 174 88 90 l 88 651 q 113 769 88 731 q 183 819 139 807 q 285 832 228 832 q 385 819 342 832 q 454 767 429 806 q 479 651 479 729 l 479 519 l 429 519 l 429 650 q 410 747 429 715 q 358 789 392 779 q 283 799 325 799 q 207 789 240 799 q 156 747 174 779 q 138 650 138 715 l 138 167 q 156 69 138 101 q 207 28 174 38 q 283 18 240 18 q 359 28 326 18 q 410 69 392 38 q 429 167 429 101 l 429 272 l 479 272 l 479 174 q 454 49 479 89 q 385 -4 429 8 q 282 -17 340 -17 m 257 872 l 144 978 l 183 978 l 278 903 l 374 979 l 414 979 l 300 872 l 257 872 z "},"Ç":{"ha":556,"x_min":88,"x_max":479,"o":"m 282 -17 q 183 -3 226 -17 q 113 50 139 10 q 88 174 88 90 l 88 651 q 113 769 88 731 q 183 819 139 807 q 285 832 228 832 q 385 819 342 832 q 454 767 429 806 q 479 651 479 729 l 479 519 l 429 519 l 429 650 q 410 747 429 715 q 358 789 392 779 q 283 799 325 799 q 207 789 240 799 q 156 747 174 779 q 138 650 138 715 l 138 167 q 156 69 138 101 q 207 28 174 38 q 283 18 240 18 q 359 28 326 18 q 410 69 392 38 q 429 167 429 101 l 429 272 l 479 272 l 479 174 q 454 49 479 89 q 385 -4 429 8 q 282 -17 340 -17 m 271 -192 q 238 -185 253 -192 q 211 -174 222 -179 l 221 -150 q 244 -160 228 -156 q 269 -165 260 -165 q 314 -152 300 -165 q 328 -121 328 -139 q 315 -90 328 -101 q 281 -78 301 -78 q 260 -82 271 -78 q 240 -93 250 -86 l 221 -82 l 265 0 l 293 0 l 254 -69 l 247 -68 q 269 -59 257 -61 q 292 -57 281 -57 q 343 -76 325 -57 q 361 -117 361 -96 q 338 -171 361 -150 q 271 -192 314 -192 z "},"Ċ":{"ha":556,"x_min":88,"x_max":479,"o":"m 282 -17 q 183 -3 226 -17 q 113 50 139 10 q 88 174 88 90 l 88 651 q 113 769 88 731 q 183 819 139 807 q 285 832 228 832 q 385 819 342 832 q 454 767 429 806 q 479 651 479 729 l 479 519 l 429 519 l 429 650 q 410 747 429 715 q 358 789 392 779 q 283 799 325 799 q 207 789 240 799 q 156 747 174 779 q 138 650 138 715 l 138 167 q 156 69 138 101 q 207 28 174 38 q 283 18 240 18 q 359 28 326 18 q 410 69 392 38 q 429 167 429 101 l 429 272 l 479 272 l 479 174 q 454 49 479 89 q 385 -4 429 8 q 282 -17 340 -17 m 281 892 q 254 903 265 892 q 243 929 243 914 q 254 955 243 944 q 281 965 265 965 q 307 955 296 965 q 318 929 318 944 q 307 903 318 914 q 281 892 296 892 z "},"Ч":{"ha":494,"x_min":64,"x_max":429,"o":"m 379 0 l 379 235 q 320 203 360 218 q 233 188 281 188 q 122 212 158 188 q 75 279 86 236 q 64 375 64 322 l 64 821 l 114 821 l 114 372 q 140 264 114 301 q 244 226 167 226 q 338 246 308 226 q 379 274 368 265 l 379 821 l 429 821 l 429 0 l 379 0 z "},"D":{"ha":582,"x_min":101,"x_max":496,"o":"m 101 0 l 101 821 l 326 821 q 415 806 378 821 q 474 753 453 792 q 496 646 496 715 l 496 181 q 474 69 496 108 q 413 15 451 29 q 322 0 374 0 l 101 0 m 153 33 l 318 33 q 410 64 375 33 q 444 181 444 94 l 444 638 q 410 756 444 725 q 318 788 375 788 l 153 788 l 153 33 z "},"Ď":{"ha":582,"x_min":101,"x_max":496,"o":"m 101 0 l 101 821 l 326 821 q 415 806 378 821 q 474 753 453 792 q 496 646 496 715 l 496 181 q 474 69 496 108 q 413 15 451 29 q 322 0 374 0 l 101 0 m 153 33 l 318 33 q 410 64 375 33 q 444 181 444 94 l 444 638 q 410 756 444 725 q 318 788 375 788 l 153 788 l 153 33 m 269 872 l 157 978 l 196 978 l 290 903 l 386 979 l 426 979 l 313 872 l 269 872 z "},"Đ":{"ha":599,"x_min":31,"x_max":513,"o":"m 115 0 l 115 821 l 343 821 q 432 806 394 821 q 491 753 469 792 q 513 646 513 715 l 513 181 q 490 69 513 108 q 429 15 468 29 q 339 0 390 0 l 115 0 m 31 382 l 31 419 l 264 419 l 264 382 l 31 382 m 165 33 l 333 33 q 426 64 392 33 q 461 181 461 94 l 461 638 q 426 756 461 725 q 333 788 392 788 l 165 788 l 165 33 z "},"Д":{"ha":742,"x_min":51,"x_max":688,"o":"m 51 -144 l 51 35 l 117 35 q 169 65 150 38 q 194 161 189 92 q 203 286 199 221 q 213 418 208 351 q 222 553 218 485 q 231 689 226 621 q 242 821 236 757 l 574 821 l 574 35 l 688 35 l 688 -144 l 642 -144 l 642 -6 l 99 -6 l 99 -144 l 51 -144 m 210 35 l 522 35 l 522 782 l 290 782 q 269 476 279 628 q 249 171 258 324 q 239 99 244 139 q 210 35 233 58 z "},"Δ":{"ha":713,"x_min":64,"x_max":647,"o":"m 64 0 l 331 813 l 388 813 l 647 0 l 64 0 m 133 46 l 574 46 l 358 742 l 133 46 z "},"Ђ":{"ha":603,"x_min":17,"x_max":538,"o":"m 169 0 l 169 782 l 17 782 l 17 821 l 376 821 l 376 782 l 221 782 l 221 522 q 272 573 235 549 q 369 597 308 597 q 478 574 443 597 q 526 509 514 550 q 538 414 538 468 l 538 246 q 524 117 538 167 q 487 42 511 68 q 428 8 463 17 q 353 0 394 0 q 339 1 346 0 q 326 1 332 1 l 326 33 q 338 33 332 33 q 350 33 343 33 q 456 85 425 33 q 486 238 486 136 l 486 411 q 462 523 486 485 q 357 561 438 561 q 261 531 293 561 q 221 469 229 500 l 221 0 l 169 0 z "},"Ѕ":{"ha":507,"x_min":61,"x_max":446,"o":"m 247 -8 q 149 14 190 -8 q 84 88 107 36 q 61 231 61 140 l 61 276 q 85 276 72 276 q 110 276 99 276 l 110 229 q 127 108 110 151 q 176 46 144 64 q 247 28 208 28 q 353 67 311 28 q 396 207 396 107 q 376 307 396 272 q 318 362 357 342 q 225 404 279 382 q 147 444 183 421 q 88 507 110 467 q 65 613 65 547 q 84 727 65 681 q 144 797 103 774 q 253 821 186 821 q 389 774 340 821 q 438 644 438 728 l 438 557 q 415 557 426 557 q 389 557 403 557 l 389 635 q 353 742 389 704 q 253 781 318 781 q 147 740 181 781 q 114 614 114 699 q 136 523 114 557 q 194 469 158 489 q 268 435 229 450 q 371 385 332 410 q 428 320 410 360 q 446 211 446 281 q 420 81 446 129 q 350 13 394 33 q 247 -8 306 -8 z "},"Џ":{"ha":490,"x_min":65,"x_max":425,"o":"m 224 -137 l 224 0 l 65 0 l 65 821 l 118 821 l 118 38 l 374 38 l 374 821 l 425 821 l 425 0 l 264 0 l 264 -137 l 224 -137 z "},"E":{"ha":481,"x_min":101,"x_max":444,"o":"m 101 0 l 101 821 l 444 821 l 444 783 l 154 783 l 154 451 l 381 451 l 381 411 l 154 411 l 154 38 l 444 38 l 444 0 l 101 0 z "},"É":{"ha":481,"x_min":101,"x_max":444,"o":"m 101 0 l 101 821 l 444 821 l 444 783 l 154 783 l 154 451 l 381 451 l 381 411 l 154 411 l 154 38 l 444 38 l 444 0 l 101 0 m 215 879 l 328 988 l 388 988 l 254 879 l 215 879 z "},"Ě":{"ha":481,"x_min":101,"x_max":444,"o":"m 101 0 l 101 821 l 444 821 l 444 783 l 154 783 l 154 451 l 381 451 l 381 411 l 154 411 l 154 38 l 444 38 l 444 0 l 101 0 m 251 872 l 139 978 l 178 978 l 272 903 l 368 979 l 408 979 l 294 872 l 251 872 z "},"Ê":{"ha":481,"x_min":101,"x_max":444,"o":"m 101 0 l 101 821 l 444 821 l 444 783 l 154 783 l 154 451 l 381 451 l 381 411 l 154 411 l 154 38 l 444 38 l 444 0 l 101 0 m 132 872 l 251 990 l 294 990 l 414 872 l 375 872 l 272 960 l 172 872 l 132 872 z "},"Ế":{"ha":481,"x_min":101,"x_max":485,"o":"m 101 0 l 101 821 l 444 821 l 444 783 l 154 783 l 154 451 l 381 451 l 381 411 l 154 411 l 154 38 l 444 38 l 444 0 l 101 0 m 169 871 l 254 957 l 292 957 l 376 871 l 340 871 l 272 929 l 207 871 l 169 871 m 375 924 l 429 1011 l 483 1011 l 406 924 l 375 924 z "},"Ệ":{"ha":481,"x_min":101,"x_max":444,"o":"m 101 0 l 101 821 l 444 821 l 444 783 l 154 783 l 154 451 l 381 451 l 381 411 l 154 411 l 154 38 l 444 38 l 444 0 l 101 0 m 278 -135 q 252 -124 263 -135 q 242 -100 242 -114 q 252 -75 242 -85 q 278 -65 263 -65 q 304 -75 293 -65 q 315 -100 315 -85 q 304 -124 315 -114 q 278 -135 293 -135 m 132 872 l 251 990 l 294 990 l 414 872 l 375 872 l 272 960 l 172 872 l 132 872 z "},"Ề":{"ha":481,"x_min":101,"x_max":444,"o":"m 101 0 l 101 821 l 444 821 l 444 783 l 154 783 l 154 451 l 381 451 l 381 411 l 154 411 l 154 38 l 444 38 l 444 0 l 101 0 m 169 871 l 254 957 l 292 957 l 376 871 l 340 871 l 272 929 l 207 871 l 169 871 m 414 922 l 336 1011 l 390 1011 l 444 922 l 414 922 z "},"Ể":{"ha":481,"x_min":101,"x_max":469,"o":"m 101 0 l 101 821 l 444 821 l 444 783 l 154 783 l 154 451 l 381 451 l 381 411 l 154 411 l 154 38 l 444 38 l 444 0 l 101 0 m 169 871 l 254 957 l 292 957 l 376 871 l 340 871 l 272 929 l 207 871 l 169 871 m 393 924 l 393 940 q 404 960 393 954 q 427 974 415 967 q 439 994 439 981 l 439 997 q 431 1017 439 1008 q 408 1025 424 1025 q 381 1001 388 1025 l 356 1007 q 372 1036 358 1025 q 411 1047 386 1047 q 456 1035 443 1047 q 469 997 469 1022 l 469 994 q 458 965 469 974 q 433 951 446 957 q 421 935 421 946 l 421 924 l 393 924 z "},"Ễ":{"ha":481,"x_min":101,"x_max":444,"o":"m 101 0 l 101 821 l 444 821 l 444 783 l 154 783 l 154 451 l 381 451 l 381 411 l 154 411 l 154 38 l 444 38 l 444 0 l 101 0 m 169 871 l 254 957 l 292 957 l 376 871 l 340 871 l 272 929 l 207 871 l 169 871 m 313 978 q 291 982 300 978 q 269 996 282 986 q 251 1007 261 1001 q 229 1013 240 1013 q 209 1005 218 1013 q 197 979 200 997 l 178 979 q 194 1024 179 1008 q 231 1039 208 1039 q 251 1035 242 1039 q 275 1021 261 1032 q 295 1010 285 1014 q 313 1006 306 1006 q 334 1014 325 1006 q 346 1039 343 1022 l 368 1039 q 359 1007 367 1021 q 339 985 351 993 q 313 978 326 978 z "},"Ë":{"ha":481,"x_min":101,"x_max":444,"o":"m 101 0 l 101 821 l 444 821 l 444 783 l 154 783 l 154 451 l 381 451 l 381 411 l 154 411 l 154 38 l 444 38 l 444 0 l 101 0 m 214 890 q 190 901 200 890 q 179 926 179 911 q 190 950 179 940 q 214 960 200 960 q 240 950 229 960 q 250 926 250 940 q 240 901 250 911 q 214 890 229 890 m 333 890 q 308 901 318 890 q 297 926 297 911 q 308 950 297 940 q 333 960 318 960 q 358 950 347 960 q 368 926 368 940 q 358 901 368 911 q 333 890 347 890 z "},"Ė":{"ha":481,"x_min":101,"x_max":444,"o":"m 101 0 l 101 821 l 444 821 l 444 783 l 154 783 l 154 451 l 381 451 l 381 411 l 154 411 l 154 38 l 444 38 l 444 0 l 101 0 m 276 892 q 250 903 261 892 q 239 929 239 914 q 250 955 239 944 q 276 965 261 965 q 303 955 292 965 q 314 929 314 944 q 303 903 314 914 q 276 892 292 892 z "},"Ẹ":{"ha":481,"x_min":101,"x_max":444,"o":"m 101 0 l 101 821 l 444 821 l 444 783 l 154 783 l 154 451 l 381 451 l 381 411 l 154 411 l 154 38 l 444 38 l 444 0 l 101 0 m 278 -135 q 252 -124 263 -135 q 242 -100 242 -114 q 252 -75 242 -85 q 278 -65 263 -65 q 304 -75 293 -65 q 315 -100 315 -85 q 304 -124 315 -114 q 278 -135 293 -135 z "},"Ф":{"ha":625,"x_min":64,"x_max":561,"o":"m 288 -6 l 288 85 l 261 85 q 112 130 160 85 q 64 276 64 175 l 64 547 q 111 689 64 643 q 257 735 158 735 l 288 735 l 288 821 l 339 821 l 339 735 l 364 735 q 512 692 463 735 q 561 543 561 650 l 561 281 q 511 126 561 168 q 360 85 461 85 l 339 85 l 339 -6 l 288 -6 m 264 118 l 288 118 q 288 410 288 265 q 288 701 288 556 l 265 701 q 153 663 192 701 q 115 542 115 625 l 115 279 q 153 156 115 194 q 264 118 190 118 m 339 118 l 354 118 q 471 152 431 118 q 511 279 511 186 l 511 539 q 471 666 511 631 q 354 701 431 701 l 339 701 q 339 410 339 556 q 339 118 339 265 z "},"È":{"ha":481,"x_min":101,"x_max":444,"o":"m 101 0 l 101 821 l 444 821 l 444 783 l 154 783 l 154 451 l 381 451 l 381 411 l 154 411 l 154 38 l 444 38 l 444 0 l 101 0 m 290 879 l 158 986 l 219 986 l 331 879 l 290 879 z "},"Ẻ":{"ha":481,"x_min":101,"x_max":444,"o":"m 101 0 l 101 821 l 444 821 l 444 783 l 154 783 l 154 451 l 381 451 l 381 411 l 154 411 l 154 38 l 444 38 l 444 0 l 101 0 m 257 869 l 257 894 q 273 925 257 915 q 306 944 289 935 q 322 972 322 954 l 322 978 q 311 1006 322 993 q 275 1018 300 1018 q 235 983 242 1018 l 204 990 q 228 1029 210 1015 q 279 1043 246 1043 q 336 1027 317 1043 q 356 976 356 1011 l 356 974 q 338 932 356 944 q 304 912 321 919 q 288 888 288 904 l 288 869 l 257 869 z "},"Л":{"ha":571,"x_min":26,"x_max":506,"o":"m 26 0 l 26 33 q 71 57 53 33 q 92 136 89 81 l 138 821 l 506 821 l 506 0 l 454 0 l 454 782 l 188 782 l 142 119 q 137 85 140 104 q 124 47 133 65 q 97 16 114 29 q 51 0 79 3 l 26 0 z "},"М":{"ha":732,"x_min":101,"x_max":631,"o":"m 101 0 l 101 821 l 156 821 l 367 85 l 581 821 l 631 821 l 631 0 l 585 0 l 585 690 l 386 0 l 347 0 l 150 690 l 150 0 l 101 0 z "},"Ē":{"ha":481,"x_min":101,"x_max":444,"o":"m 101 0 l 101 821 l 444 821 l 444 783 l 154 783 l 154 451 l 381 451 l 381 411 l 154 411 l 154 38 l 444 38 l 444 0 l 101 0 m 151 908 l 151 939 l 396 939 l 396 908 l 151 908 z "},"Н":{"ha":596,"x_min":101,"x_max":494,"o":"m 101 0 l 101 821 l 151 821 l 151 451 l 446 451 l 446 821 l 494 821 l 494 0 l 446 0 l 446 411 l 151 411 l 151 0 l 101 0 z "},"Ŋ":{"ha":597,"x_min":101,"x_max":496,"o":"m 365 -232 q 341 -232 353 -232 q 315 -231 329 -232 l 315 -192 l 363 -193 q 426 -176 407 -194 q 446 -107 446 -158 l 446 1 l 151 694 l 150 0 l 101 0 l 103 821 l 149 821 l 447 108 l 449 821 l 496 821 l 494 -61 q 487 -162 496 -125 q 450 -216 478 -200 q 365 -232 422 -232 z "},"Ę":{"ha":481,"x_min":101,"x_max":444,"o":"m 101 0 l 101 821 l 444 821 l 444 783 l 154 783 l 154 451 l 381 451 l 381 411 l 154 411 l 154 38 l 444 38 l 444 0 l 101 0 m 340 -182 q 280 -161 306 -182 q 254 -106 254 -140 q 281 -38 254 -65 q 335 0 307 -11 l 369 0 q 313 -44 333 -18 q 293 -99 293 -71 q 311 -140 293 -126 q 347 -154 329 -154 q 371 -151 361 -154 q 386 -144 381 -147 l 396 -167 q 374 -177 388 -172 q 340 -182 360 -182 z "},"Р":{"ha":529,"x_min":101,"x_max":489,"o":"m 101 0 l 101 821 l 338 821 q 445 790 401 821 q 489 686 489 760 l 489 531 q 476 449 489 488 q 424 388 463 411 q 313 365 386 365 l 154 365 l 154 0 l 101 0 m 154 399 l 303 399 q 405 434 371 399 q 439 539 439 469 l 439 671 q 406 759 439 731 q 331 788 374 788 l 154 788 l 154 399 z "},"Э":{"ha":526,"x_min":64,"x_max":461,"o":"m 264 -17 q 160 -4 206 -17 q 90 49 115 8 q 64 175 64 89 l 64 268 l 117 268 l 117 163 q 135 67 117 99 q 188 26 154 36 q 264 17 221 17 q 339 26 306 17 q 391 67 372 36 q 410 163 410 99 l 410 394 l 181 394 l 181 432 l 410 432 l 410 649 q 391 744 410 713 q 340 785 372 775 q 264 796 307 796 q 186 786 219 796 q 135 747 153 776 q 117 654 117 717 l 117 522 l 64 522 l 64 649 q 90 766 64 726 q 160 819 115 806 q 263 832 204 832 q 365 819 319 832 q 435 767 410 806 q 461 649 461 728 l 461 175 q 436 51 461 92 q 366 -3 411 10 q 264 -17 321 -17 z "},"С":{"ha":556,"x_min":88,"x_max":479,"o":"m 282 -17 q 183 -3 226 -17 q 113 50 139 10 q 88 174 88 90 l 88 651 q 113 769 88 731 q 183 819 139 807 q 285 832 228 832 q 385 819 342 832 q 454 767 429 806 q 479 651 479 729 l 479 519 l 429 519 l 429 650 q 410 747 429 715 q 358 789 392 779 q 283 799 325 799 q 207 789 240 799 q 156 747 174 779 q 138 650 138 715 l 138 167 q 156 69 138 101 q 207 28 174 38 q 283 18 240 18 q 359 28 326 18 q 410 69 392 38 q 429 167 429 101 l 429 272 l 479 272 l 479 174 q 454 49 479 89 q 385 -4 429 8 q 282 -17 340 -17 z "},"Ð":{"ha":599,"x_min":31,"x_max":513,"o":"m 115 0 l 115 821 l 343 821 q 432 806 394 821 q 491 753 469 792 q 513 646 513 715 l 513 181 q 490 69 513 108 q 429 15 468 29 q 339 0 390 0 l 115 0 m 31 382 l 31 419 l 264 419 l 264 382 l 31 382 m 165 33 l 333 33 q 426 64 392 33 q 461 181 461 94 l 461 638 q 426 756 461 725 q 333 788 392 788 l 165 788 l 165 33 z "},"Ẽ":{"ha":481,"x_min":101,"x_max":444,"o":"m 101 0 l 101 821 l 444 821 l 444 783 l 154 783 l 154 451 l 381 451 l 381 411 l 154 411 l 154 38 l 444 38 l 444 0 l 101 0 m 329 889 q 301 894 313 889 q 269 914 289 900 q 246 930 260 921 q 215 939 232 939 q 187 928 199 939 q 171 890 175 917 l 143 890 q 165 947 146 925 q 215 969 183 969 q 247 962 232 969 q 278 943 263 954 q 304 927 293 933 q 329 921 315 921 q 358 932 347 921 q 374 968 369 943 l 403 968 q 392 926 401 944 q 366 899 382 908 q 329 889 350 889 z "},"F":{"ha":467,"x_min":101,"x_max":444,"o":"m 101 0 l 101 821 l 444 821 l 444 783 l 154 783 l 154 451 l 381 451 l 381 411 l 154 411 l 154 0 l 101 0 z "},"G":{"ha":561,"x_min":88,"x_max":479,"o":"m 272 -17 q 178 -3 221 -17 q 112 49 136 10 q 88 169 88 89 l 88 650 q 113 769 88 731 q 183 819 138 807 q 285 832 228 832 q 385 819 342 832 q 454 767 429 806 q 479 650 479 729 l 479 553 l 429 553 l 429 649 q 410 746 429 714 q 359 788 392 778 q 283 797 326 797 q 207 788 240 797 q 155 746 174 778 q 136 649 136 714 l 136 167 q 155 69 136 101 q 207 28 174 38 q 283 18 240 18 q 388 56 347 18 q 429 167 429 94 l 429 343 l 304 343 l 304 376 l 479 376 l 479 0 l 443 0 l 440 86 q 427 62 435 74 q 413 42 419 50 q 356 -2 390 13 q 272 -17 322 -17 z "},"Ğ":{"ha":561,"x_min":88,"x_max":479,"o":"m 272 -17 q 178 -3 221 -17 q 112 49 136 10 q 88 169 88 89 l 88 650 q 113 769 88 731 q 183 819 138 807 q 285 832 228 832 q 385 819 342 832 q 454 767 429 806 q 479 650 479 729 l 479 553 l 429 553 l 429 649 q 410 746 429 714 q 359 788 392 778 q 283 797 326 797 q 207 788 240 797 q 155 746 174 778 q 136 649 136 714 l 136 167 q 155 69 136 101 q 207 28 174 38 q 283 18 240 18 q 388 56 347 18 q 429 167 429 94 l 429 343 l 304 343 l 304 376 l 479 376 l 479 0 l 443 0 l 440 86 q 427 62 435 74 q 413 42 419 50 q 356 -2 390 13 q 272 -17 322 -17 m 281 875 q 206 894 233 875 q 167 942 179 914 q 154 992 156 969 l 188 992 q 219 927 194 949 q 281 906 244 906 q 344 926 319 906 q 375 992 369 947 l 408 992 q 394 941 407 968 q 353 894 381 914 q 281 875 326 875 z "},"Ģ":{"ha":561,"x_min":88,"x_max":479,"o":"m 272 -17 q 178 -3 221 -17 q 112 49 136 10 q 88 169 88 89 l 88 650 q 113 769 88 731 q 183 819 138 807 q 285 832 228 832 q 385 819 342 832 q 454 767 429 806 q 479 650 479 729 l 479 553 l 429 553 l 429 649 q 410 746 429 714 q 359 788 392 778 q 283 797 326 797 q 207 788 240 797 q 155 746 174 778 q 136 649 136 714 l 136 167 q 155 69 136 101 q 207 28 174 38 q 283 18 240 18 q 388 56 347 18 q 429 167 429 94 l 429 343 l 304 343 l 304 376 l 479 376 l 479 0 l 443 0 l 440 86 q 427 62 435 74 q 413 42 419 50 q 356 -2 390 13 q 272 -17 322 -17 m 238 -207 q 262 -162 251 -183 q 272 -125 272 -140 q 267 -111 272 -117 q 255 -99 261 -106 q 249 -82 249 -93 q 258 -62 249 -71 q 279 -54 268 -54 q 304 -65 294 -54 q 314 -89 314 -75 q 306 -124 314 -103 q 287 -167 299 -146 q 261 -207 275 -189 l 238 -207 z "},"Ġ":{"ha":561,"x_min":88,"x_max":479,"o":"m 272 -17 q 178 -3 221 -17 q 112 49 136 10 q 88 169 88 89 l 88 650 q 113 769 88 731 q 183 819 138 807 q 285 832 228 832 q 385 819 342 832 q 454 767 429 806 q 479 650 479 729 l 479 553 l 429 553 l 429 649 q 410 746 429 714 q 359 788 392 778 q 283 797 326 797 q 207 788 240 797 q 155 746 174 778 q 136 649 136 714 l 136 167 q 155 69 136 101 q 207 28 174 38 q 283 18 240 18 q 388 56 347 18 q 429 167 429 94 l 429 343 l 304 343 l 304 376 l 479 376 l 479 0 l 443 0 l 440 86 q 427 62 435 74 q 413 42 419 50 q 356 -2 390 13 q 272 -17 322 -17 m 283 892 q 257 903 268 892 q 246 929 246 914 q 257 955 246 944 q 283 965 268 965 q 310 955 299 965 q 321 929 321 944 q 310 903 321 914 q 283 892 299 892 z "},"Г":{"ha":438,"x_min":65,"x_max":411,"o":"m 65 0 l 65 821 l 411 821 l 411 782 l 118 782 l 118 0 l 65 0 z "},"ẞ":{"ha":1061,"x_min":94,"x_max":965,"o":"m 767 -8 q 667 14 708 -8 q 603 88 626 36 q 581 231 581 140 l 581 276 q 605 276 592 276 q 629 276 618 276 l 629 229 q 647 108 629 151 q 695 46 664 64 q 767 28 726 28 q 873 67 831 28 q 915 207 915 107 q 895 307 915 272 q 837 362 875 342 q 744 404 799 382 q 665 444 701 421 q 607 507 629 467 q 585 613 585 547 q 603 727 585 681 q 664 797 622 774 q 772 821 706 821 q 908 774 860 821 q 957 644 957 728 l 957 557 q 933 557 946 557 q 908 557 921 557 l 908 635 q 873 742 908 704 q 772 781 838 781 q 666 740 699 781 q 633 614 633 699 q 656 523 633 557 q 713 469 678 489 q 788 435 749 450 q 890 385 851 410 q 947 320 929 360 q 965 211 965 281 q 940 81 965 129 q 869 13 914 33 q 767 -8 825 -8 m 281 -8 q 182 14 224 -8 q 117 88 140 36 q 94 231 94 140 l 94 276 q 119 276 107 276 q 144 276 132 276 l 144 229 q 162 108 144 151 q 210 46 179 64 q 282 28 242 28 q 388 67 346 28 q 429 207 429 107 q 410 307 429 272 q 352 362 390 342 q 260 404 314 382 q 180 444 217 421 q 121 507 143 467 q 99 613 99 547 q 118 727 99 681 q 178 797 138 774 q 286 821 219 821 q 423 774 374 821 q 472 644 472 728 l 472 557 q 448 557 460 557 q 425 557 436 557 l 425 635 q 389 742 425 704 q 286 781 353 781 q 181 740 214 781 q 149 614 149 699 q 170 523 149 557 q 228 469 192 489 q 303 435 264 450 q 406 385 367 410 q 463 320 444 360 q 481 211 481 281 q 454 81 481 129 q 383 13 428 33 q 281 -8 339 -8 z "},"Ѓ":{"ha":438,"x_min":65,"x_max":411,"o":"m 65 0 l 65 821 l 411 821 l 411 782 l 118 782 l 118 0 l 65 0 m 161 879 l 274 988 l 333 988 l 200 879 l 161 879 z "},"H":{"ha":596,"x_min":101,"x_max":494,"o":"m 101 0 l 101 821 l 151 821 l 151 451 l 446 451 l 446 821 l 494 821 l 494 0 l 446 0 l 446 411 l 151 411 l 151 0 l 101 0 z "},"Х":{"ha":413,"x_min":28,"x_max":383,"o":"m 28 0 l 165 415 l 42 821 l 90 821 l 206 439 l 335 821 l 383 821 l 247 414 l 381 0 l 331 0 l 206 383 l 81 0 l 28 0 z "},"Ъ":{"ha":539,"x_min":14,"x_max":474,"o":"m 108 0 l 108 782 l 14 782 l 14 821 l 160 821 l 160 604 l 304 604 q 406 584 369 604 q 458 524 443 564 q 474 425 474 485 l 474 199 q 465 110 474 147 q 436 48 456 72 q 384 12 417 24 q 304 0 351 0 l 108 0 m 160 33 l 296 33 q 378 55 351 33 q 415 115 406 76 q 424 201 424 153 l 424 411 q 417 488 424 453 q 383 547 410 524 q 294 569 356 569 l 160 569 l 160 33 z "},"Ħ":{"ha":596,"x_min":47,"x_max":581,"o":"m 47 660 l 47 688 l 581 688 l 581 660 l 47 660 m 101 0 l 101 821 l 151 821 l 151 451 l 446 451 l 446 821 l 494 821 l 494 0 l 446 0 l 446 411 l 151 411 l 151 0 l 101 0 z "},"I":{"ha":254,"x_min":101,"x_max":151,"o":"m 101 0 l 101 821 l 151 821 l 151 0 l 101 0 z "},"І":{"ha":254,"x_min":101,"x_max":151,"o":"m 101 0 l 101 821 l 151 821 l 151 0 l 101 0 z "},"Я":{"ha":571,"x_min":50,"x_max":469,"o":"m 469 0 l 418 0 l 418 392 l 290 392 q 239 375 258 392 q 207 333 219 358 q 185 278 194 307 l 103 0 l 50 0 l 138 282 q 178 375 156 344 q 246 406 201 406 l 246 403 q 128 440 174 404 q 82 550 82 475 l 82 686 q 126 790 82 760 q 232 821 169 821 l 469 821 l 469 0 m 418 428 l 418 788 l 240 788 q 165 761 197 788 q 132 676 132 735 l 132 560 q 166 458 132 488 q 267 428 200 428 l 418 428 z "},"Í":{"ha":254,"x_min":69,"x_max":242,"o":"m 101 0 l 101 821 l 151 821 l 151 0 l 101 0 m 69 879 l 182 988 l 242 988 l 108 879 l 69 879 z "},"Ǐ":{"ha":254,"x_min":-8,"x_max":261,"o":"m 101 0 l 101 821 l 151 821 l 151 0 l 101 0 m 104 872 l -8 978 l 31 978 l 125 903 l 221 979 l 261 979 l 147 872 l 104 872 z "},"Î":{"ha":254,"x_min":-15,"x_max":268,"o":"m 101 0 l 101 821 l 151 821 l 151 0 l 101 0 m -15 872 l 104 990 l 147 990 l 267 872 l 228 872 l 125 960 l 25 872 l -15 872 z "},"Ï":{"ha":254,"x_min":32,"x_max":221,"o":"m 101 0 l 101 821 l 151 821 l 151 0 l 101 0 m 67 890 q 42 901 53 890 q 32 926 32 911 q 42 950 32 940 q 67 960 53 960 q 92 950 82 960 q 103 926 103 940 q 92 901 103 911 q 67 890 82 890 m 186 890 q 160 901 171 890 q 150 926 150 911 q 160 950 150 940 q 186 960 171 960 q 210 950 200 960 q 221 926 221 940 q 210 901 221 911 q 186 890 200 890 z "},"İ":{"ha":254,"x_min":92,"x_max":167,"o":"m 101 0 l 101 821 l 151 821 l 151 0 l 101 0 m 129 892 q 103 903 114 892 q 92 929 92 914 q 103 955 92 944 q 129 965 114 965 q 156 955 144 965 q 167 929 167 944 q 156 903 167 914 q 129 892 144 892 z "},"Ị":{"ha":254,"x_min":90,"x_max":164,"o":"m 101 0 l 101 821 l 151 821 l 151 0 l 101 0 m 126 -135 q 101 -124 111 -135 q 90 -100 90 -114 q 101 -75 90 -85 q 126 -65 111 -65 q 153 -75 142 -65 q 164 -100 164 -85 q 153 -124 164 -114 q 126 -135 142 -135 z "},"Е":{"ha":481,"x_min":101,"x_max":444,"o":"m 101 0 l 101 821 l 444 821 l 444 783 l 154 783 l 154 451 l 381 451 l 381 411 l 154 411 l 154 38 l 444 38 l 444 0 l 101 0 z "},"Ѐ":{"ha":481,"x_min":101,"x_max":444,"o":"m 101 0 l 101 821 l 444 821 l 444 783 l 154 783 l 154 451 l 381 451 l 381 411 l 154 411 l 154 38 l 444 38 l 444 0 l 101 0 m 296 879 l 164 986 l 225 986 l 336 879 l 296 879 z "},"Ì":{"ha":254,"x_min":13,"x_max":185,"o":"m 101 0 l 101 821 l 151 821 l 151 0 l 101 0 m 144 879 l 13 986 l 74 986 l 185 879 l 144 879 z "},"Ỉ":{"ha":254,"x_min":58,"x_max":210,"o":"m 101 0 l 101 821 l 151 821 l 151 0 l 101 0 m 111 869 l 111 894 q 127 925 111 915 q 160 944 143 935 q 176 972 176 954 l 176 978 q 165 1006 176 993 q 129 1018 154 1018 q 89 983 96 1018 l 58 990 q 82 1029 64 1015 q 133 1043 100 1043 q 190 1027 171 1043 q 210 976 210 1011 l 210 974 q 192 932 210 944 q 158 912 175 919 q 142 888 142 904 l 142 869 l 111 869 z "},"И":{"ha":528,"x_min":65,"x_max":461,"o":"m 65 0 l 65 821 l 113 821 l 113 107 l 414 821 l 461 821 l 461 0 l 414 0 l 414 696 l 117 0 l 65 0 z "},"Ѝ":{"ha":528,"x_min":65,"x_max":461,"o":"m 65 0 l 65 821 l 113 821 l 113 107 l 414 821 l 461 821 l 461 0 l 414 0 l 414 696 l 117 0 l 65 0 m 281 879 l 149 986 l 210 986 l 321 879 l 281 879 z "},"Й":{"ha":528,"x_min":65,"x_max":461,"o":"m 65 0 l 65 821 l 113 821 l 113 107 l 414 821 l 461 821 l 461 0 l 414 0 l 414 696 l 117 0 l 65 0 m 263 875 q 188 894 215 875 q 149 942 161 914 q 136 992 138 969 l 169 992 q 201 927 176 949 q 263 906 226 906 q 326 926 301 906 q 357 992 351 947 l 390 992 q 376 941 389 968 q 335 894 363 914 q 263 875 308 875 z "},"Ī":{"ha":254,"x_min":4,"x_max":249,"o":"m 101 0 l 101 821 l 151 821 l 151 0 l 101 0 m 4 908 l 4 939 l 249 939 l 249 908 l 4 908 z "},"Ё":{"ha":481,"x_min":101,"x_max":444,"o":"m 101 0 l 101 821 l 444 821 l 444 783 l 154 783 l 154 451 l 381 451 l 381 411 l 154 411 l 154 38 l 444 38 l 444 0 l 101 0 m 219 890 q 195 901 206 890 q 185 926 185 911 q 195 950 185 940 q 219 960 206 960 q 245 950 235 960 q 256 926 256 940 q 245 901 256 911 q 219 890 235 890 m 339 890 q 313 901 324 890 q 303 926 303 911 q 313 950 303 940 q 339 960 324 960 q 363 950 353 960 q 374 926 374 940 q 363 901 374 911 q 339 890 353 890 z "},"Į":{"ha":254,"x_min":36,"x_max":178,"o":"m 101 0 l 101 821 l 151 821 l 151 0 l 101 0 m 122 -182 q 62 -161 88 -182 q 36 -106 36 -140 q 63 -38 36 -65 q 117 0 89 -11 l 151 0 q 95 -44 115 -18 q 75 -99 75 -71 q 93 -140 75 -126 q 129 -154 111 -154 q 153 -151 143 -154 q 168 -144 163 -147 l 178 -167 q 156 -177 169 -172 q 122 -182 142 -182 z "},"Ĩ":{"ha":254,"x_min":-4,"x_max":256,"o":"m 101 0 l 101 821 l 151 821 l 151 0 l 101 0 m 182 889 q 153 894 165 889 q 122 914 142 900 q 99 930 113 921 q 68 939 85 939 q 40 928 51 939 q 24 890 28 917 l -4 890 q 17 947 -1 925 q 68 969 36 969 q 100 962 85 969 q 131 943 115 954 q 157 927 146 933 q 182 921 168 921 q 211 932 200 921 q 226 968 222 943 l 256 968 q 244 926 254 944 q 219 899 235 908 q 182 889 203 889 z "},"Ю":{"ha":813,"x_min":65,"x_max":746,"o":"m 546 -17 q 446 -3 490 -17 q 375 51 401 10 q 349 176 349 92 l 349 411 l 117 411 l 117 0 l 65 0 l 65 821 l 117 821 l 117 451 l 349 451 l 349 649 q 375 768 349 729 q 446 819 401 807 q 549 832 490 832 q 650 819 606 832 q 720 767 694 806 q 746 649 746 728 l 746 176 q 720 49 746 90 q 649 -4 694 8 q 546 -17 604 -17 m 547 18 q 622 28 589 18 q 675 68 656 38 q 694 161 694 99 l 694 653 q 675 747 694 717 q 622 788 656 778 q 547 797 589 797 q 472 788 506 797 q 420 747 439 778 q 401 653 401 717 l 401 161 q 420 68 401 99 q 472 28 439 38 q 547 18 506 18 z "},"J":{"ha":286,"x_min":11,"x_max":192,"o":"m 61 -1 q 38 -1 50 -1 q 11 0 25 -1 l 11 39 l 58 38 q 122 54 103 36 q 142 124 142 72 l 142 821 l 192 821 l 192 169 q 183 67 192 106 q 147 14 175 29 q 61 -1 119 -1 z "},"Ј":{"ha":286,"x_min":11,"x_max":192,"o":"m 61 -1 q 38 -1 50 -1 q 11 0 25 -1 l 11 39 l 58 38 q 122 54 103 36 q 142 124 142 72 l 142 821 l 192 821 l 192 169 q 183 67 192 106 q 147 14 175 29 q 61 -1 119 -1 z "},"K":{"ha":496,"x_min":101,"x_max":475,"o":"m 417 0 l 176 428 l 410 821 l 467 821 l 231 425 l 475 0 l 417 0 m 101 0 l 101 821 l 151 821 l 151 0 l 101 0 z "},"К":{"ha":490,"x_min":65,"x_max":453,"o":"m 65 0 l 65 821 l 115 821 l 115 440 l 167 440 l 386 821 l 444 821 l 217 425 l 453 0 l 392 0 l 171 401 l 115 401 l 115 0 l 65 0 z "},"Ķ":{"ha":496,"x_min":101,"x_max":475,"o":"m 417 0 l 176 428 l 410 821 l 467 821 l 231 425 l 475 0 l 417 0 m 101 0 l 101 821 l 151 821 l 151 0 l 101 0 m 232 -207 q 256 -162 246 -183 q 267 -125 267 -140 q 261 -111 267 -117 q 249 -99 256 -106 q 243 -82 243 -93 q 253 -62 243 -71 q 274 -54 263 -54 q 299 -65 289 -54 q 308 -89 308 -75 q 301 -124 308 -103 q 281 -167 293 -146 q 256 -207 269 -189 l 232 -207 z "},"Ќ":{"ha":490,"x_min":65,"x_max":453,"o":"m 65 0 l 65 821 l 115 821 l 115 440 l 167 440 l 386 821 l 444 821 l 217 425 l 453 0 l 392 0 l 171 401 l 115 401 l 115 0 l 65 0 m 188 879 l 300 988 l 360 988 l 226 879 l 188 879 z "},"L":{"ha":411,"x_min":101,"x_max":403,"o":"m 101 0 l 101 821 l 151 821 l 151 38 l 403 38 l 403 0 l 101 0 z "},"Ĺ":{"ha":411,"x_min":75,"x_max":403,"o":"m 101 0 l 101 821 l 151 821 l 151 38 l 403 38 l 403 0 l 101 0 m 75 879 l 188 988 l 247 988 l 114 879 l 75 879 z "},"Ľ":{"ha":414,"x_min":101,"x_max":403,"o":"m 101 0 l 101 821 l 151 821 l 151 38 l 403 38 l 403 0 l 101 0 m 308 679 l 331 846 l 369 846 l 333 679 l 308 679 z "},"Ļ":{"ha":411,"x_min":101,"x_max":403,"o":"m 101 0 l 101 821 l 151 821 l 151 38 l 403 38 l 403 0 l 101 0 m 208 -207 q 233 -162 222 -183 q 243 -125 243 -140 q 238 -111 243 -117 q 226 -99 232 -106 q 219 -82 219 -93 q 229 -62 219 -71 q 250 -54 239 -54 q 275 -65 265 -54 q 285 -89 285 -75 q 277 -124 285 -103 q 258 -167 269 -146 q 232 -207 246 -189 l 208 -207 z "},"Љ":{"ha":885,"x_min":26,"x_max":818,"o":"m 26 0 l 26 33 q 71 57 53 33 q 92 136 89 81 l 138 821 l 506 821 l 506 0 l 454 0 l 454 782 l 188 782 l 142 119 q 137 85 140 104 q 124 47 133 65 q 97 16 114 29 q 51 0 79 3 l 26 0 m 504 33 l 642 33 q 724 55 697 33 q 759 115 750 76 q 768 201 768 153 l 768 411 q 760 488 768 453 q 726 547 753 524 q 639 569 699 569 l 504 569 l 504 33 m 454 0 l 454 818 l 504 818 l 504 604 l 649 604 q 751 584 714 604 q 803 524 788 564 q 818 425 818 485 l 818 199 q 809 110 818 147 q 781 48 800 72 q 728 12 761 24 q 649 0 696 0 l 454 0 z "},"Ł":{"ha":515,"x_min":64,"x_max":451,"o":"m 151 0 l 151 244 l 64 204 l 64 242 l 151 282 l 151 819 l 201 819 l 201 303 l 347 371 l 347 335 l 201 267 l 201 38 l 451 38 l 451 0 l 151 0 z "},"M":{"ha":732,"x_min":101,"x_max":631,"o":"m 101 0 l 101 821 l 156 821 l 367 85 l 581 821 l 631 821 l 631 0 l 585 0 l 585 690 l 386 0 l 347 0 l 150 690 l 150 0 l 101 0 z "},"N":{"ha":596,"x_min":101,"x_max":494,"o":"m 101 0 l 101 821 l 147 821 l 447 108 l 447 821 l 494 821 l 494 0 l 447 0 l 150 694 l 150 0 l 101 0 z "},"Ń":{"ha":596,"x_min":101,"x_max":494,"o":"m 101 0 l 101 821 l 147 821 l 447 108 l 447 821 l 494 821 l 494 0 l 447 0 l 150 694 l 150 0 l 101 0 m 246 879 l 358 988 l 418 988 l 285 879 l 246 879 z "},"Ň":{"ha":596,"x_min":101,"x_max":494,"o":"m 101 0 l 101 821 l 147 821 l 447 108 l 447 821 l 494 821 l 494 0 l 447 0 l 150 694 l 150 0 l 101 0 m 281 872 l 168 978 l 207 978 l 301 903 l 397 979 l 438 979 l 324 872 l 281 872 z "},"Ņ":{"ha":596,"x_min":101,"x_max":494,"o":"m 101 0 l 101 821 l 147 821 l 447 108 l 447 821 l 494 821 l 494 0 l 447 0 l 150 694 l 150 0 l 101 0 m 254 -207 q 278 -162 268 -183 q 289 -125 289 -140 q 283 -111 289 -117 q 272 -99 278 -106 q 265 -82 265 -93 q 275 -62 265 -71 q 296 -54 285 -54 q 321 -65 311 -54 q 331 -89 331 -75 q 323 -124 331 -103 q 303 -167 315 -146 q 278 -207 292 -189 l 254 -207 z "},"Њ":{"ha":842,"x_min":65,"x_max":775,"o":"m 65 0 l 65 821 l 115 821 l 115 450 l 410 450 l 410 821 l 463 821 l 463 604 l 606 604 q 708 584 671 604 q 760 524 744 564 q 775 425 775 485 l 775 199 q 766 110 775 147 q 738 48 757 72 q 685 12 718 24 q 606 0 653 0 l 410 0 l 410 410 l 115 410 l 115 0 l 65 0 m 463 33 l 599 33 q 680 55 653 33 q 716 115 707 76 q 725 201 725 153 l 725 406 q 717 487 725 450 q 683 547 710 524 q 596 569 656 569 l 463 569 l 463 33 z "},"Ñ":{"ha":596,"x_min":101,"x_max":494,"o":"m 101 0 l 101 821 l 147 821 l 447 108 l 447 821 l 494 821 l 494 0 l 447 0 l 150 694 l 150 0 l 101 0 m 360 889 q 331 894 343 889 q 300 914 319 900 q 276 930 290 921 q 246 939 263 939 q 217 928 229 939 q 201 890 206 917 l 174 890 q 195 947 176 925 q 246 969 214 969 q 278 962 263 969 q 308 943 293 954 q 335 927 324 933 q 360 921 346 921 q 389 932 378 921 q 404 968 400 943 l 433 968 q 422 926 432 944 q 397 899 413 908 q 360 889 381 889 z "},"O":{"ha":567,"x_min":88,"x_max":479,"o":"m 281 -17 q 181 -3 225 -17 q 113 50 138 10 q 88 174 88 90 l 88 651 q 113 769 88 731 q 183 819 138 807 q 283 832 228 832 q 384 819 340 832 q 453 767 428 806 q 479 651 479 729 l 479 174 q 453 49 479 89 q 384 -4 428 8 q 281 -17 340 -17 m 282 18 q 359 28 326 18 q 410 69 392 38 q 429 167 429 101 l 429 649 q 410 746 429 714 q 358 788 392 778 q 282 797 325 797 q 206 788 239 797 q 155 746 174 778 q 136 649 136 714 l 136 167 q 155 69 136 101 q 206 28 174 38 q 282 18 239 18 z "},"О":{"ha":567,"x_min":88,"x_max":479,"o":"m 281 -17 q 181 -3 225 -17 q 113 50 138 10 q 88 174 88 90 l 88 651 q 113 769 88 731 q 183 819 138 807 q 283 832 228 832 q 384 819 340 832 q 453 767 428 806 q 479 651 479 729 l 479 174 q 453 49 479 89 q 384 -4 428 8 q 281 -17 340 -17 m 282 18 q 359 28 326 18 q 410 69 392 38 q 429 167 429 101 l 429 649 q 410 746 429 714 q 358 788 392 778 q 282 797 325 797 q 206 788 239 797 q 155 746 174 778 q 136 649 136 714 l 136 167 q 155 69 136 101 q 206 28 174 38 q 282 18 239 18 z "},"Œ":{"ha":813,"x_min":88,"x_max":776,"o":"m 282 -17 q 182 -3 226 -17 q 113 50 138 10 q 88 174 88 90 l 88 651 q 113 769 88 731 q 184 819 139 807 q 285 832 229 832 q 385 819 342 832 q 453 767 428 806 q 478 651 478 729 l 478 174 q 453 49 478 89 q 384 -4 428 8 q 282 -17 340 -17 m 283 18 q 360 28 328 18 q 412 69 393 38 q 431 167 431 101 l 431 649 q 412 746 431 714 q 360 788 393 778 q 283 797 326 797 q 208 788 242 797 q 156 746 175 778 q 138 649 138 714 l 138 167 q 156 69 138 101 q 208 28 175 38 q 283 18 242 18 m 431 0 l 431 821 l 776 821 l 776 783 l 481 783 l 481 451 l 711 451 l 711 411 l 481 411 l 481 38 l 776 38 l 776 0 l 431 0 z "},"Ó":{"ha":567,"x_min":88,"x_max":479,"o":"m 281 -17 q 181 -3 225 -17 q 113 50 138 10 q 88 174 88 90 l 88 651 q 113 769 88 731 q 183 819 138 807 q 283 832 228 832 q 384 819 340 832 q 453 767 428 806 q 479 651 479 729 l 479 174 q 453 49 479 89 q 384 -4 428 8 q 281 -17 340 -17 m 282 18 q 359 28 326 18 q 410 69 392 38 q 429 167 429 101 l 429 649 q 410 746 429 714 q 358 788 392 778 q 282 797 325 797 q 206 788 239 797 q 155 746 174 778 q 136 649 136 714 l 136 167 q 155 69 136 101 q 206 28 174 38 q 282 18 239 18 m 226 879 l 339 988 l 399 988 l 265 879 l 226 879 z "},"Ǒ":{"ha":567,"x_min":88,"x_max":479,"o":"m 281 -17 q 181 -3 225 -17 q 113 50 138 10 q 88 174 88 90 l 88 651 q 113 769 88 731 q 183 819 138 807 q 283 832 228 832 q 384 819 340 832 q 453 767 428 806 q 479 651 479 729 l 479 174 q 453 49 479 89 q 384 -4 428 8 q 281 -17 340 -17 m 282 18 q 359 28 326 18 q 410 69 392 38 q 429 167 429 101 l 429 649 q 410 746 429 714 q 358 788 392 778 q 282 797 325 797 q 206 788 239 797 q 155 746 174 778 q 136 649 136 714 l 136 167 q 155 69 136 101 q 206 28 174 38 q 282 18 239 18 m 261 872 l 149 978 l 188 978 l 282 903 l 378 979 l 418 979 l 304 872 l 261 872 z "},"Ô":{"ha":567,"x_min":88,"x_max":479,"o":"m 281 -17 q 181 -3 225 -17 q 113 50 138 10 q 88 174 88 90 l 88 651 q 113 769 88 731 q 183 819 138 807 q 283 832 228 832 q 384 819 340 832 q 453 767 428 806 q 479 651 479 729 l 479 174 q 453 49 479 89 q 384 -4 428 8 q 281 -17 340 -17 m 282 18 q 359 28 326 18 q 410 69 392 38 q 429 167 429 101 l 429 649 q 410 746 429 714 q 358 788 392 778 q 282 797 325 797 q 206 788 239 797 q 155 746 174 778 q 136 649 136 714 l 136 167 q 155 69 136 101 q 206 28 174 38 q 282 18 239 18 m 143 872 l 263 990 l 306 990 l 425 872 l 386 872 l 283 960 l 183 872 l 143 872 z "},"Ố":{"ha":567,"x_min":88,"x_max":494,"o":"m 281 -17 q 181 -3 225 -17 q 113 50 138 10 q 88 174 88 90 l 88 651 q 113 769 88 731 q 183 819 138 807 q 283 832 228 832 q 384 819 340 832 q 453 767 428 806 q 479 651 479 729 l 479 174 q 453 49 479 89 q 384 -4 428 8 q 281 -17 340 -17 m 282 18 q 359 28 326 18 q 410 69 392 38 q 429 167 429 101 l 429 649 q 410 746 429 714 q 358 788 392 778 q 282 797 325 797 q 206 788 239 797 q 155 746 174 778 q 136 649 136 714 l 136 167 q 155 69 136 101 q 206 28 174 38 q 282 18 239 18 m 181 871 l 265 957 l 303 957 l 388 871 l 351 871 l 283 929 l 218 871 l 181 871 m 386 924 l 440 1011 l 494 1011 l 417 924 l 386 924 z "},"Ộ":{"ha":567,"x_min":88,"x_max":479,"o":"m 281 -17 q 181 -3 225 -17 q 113 50 138 10 q 88 174 88 90 l 88 651 q 113 769 88 731 q 183 819 138 807 q 283 832 228 832 q 384 819 340 832 q 453 767 428 806 q 479 651 479 729 l 479 174 q 453 49 479 89 q 384 -4 428 8 q 281 -17 340 -17 m 282 18 q 359 28 326 18 q 410 69 392 38 q 429 167 429 101 l 429 649 q 410 746 429 714 q 358 788 392 778 q 282 797 325 797 q 206 788 239 797 q 155 746 174 778 q 136 649 136 714 l 136 167 q 155 69 136 101 q 206 28 174 38 q 282 18 239 18 m 283 -135 q 258 -124 268 -135 q 247 -100 247 -114 q 258 -75 247 -85 q 283 -65 268 -65 q 310 -75 299 -65 q 321 -100 321 -85 q 310 -124 321 -114 q 283 -135 299 -135 m 143 872 l 263 990 l 306 990 l 425 872 l 386 872 l 283 960 l 183 872 l 143 872 z "},"Ồ":{"ha":567,"x_min":88,"x_max":479,"o":"m 281 -17 q 181 -3 225 -17 q 113 50 138 10 q 88 174 88 90 l 88 651 q 113 769 88 731 q 183 819 138 807 q 283 832 228 832 q 384 819 340 832 q 453 767 428 806 q 479 651 479 729 l 479 174 q 453 49 479 89 q 384 -4 428 8 q 281 -17 340 -17 m 282 18 q 359 28 326 18 q 410 69 392 38 q 429 167 429 101 l 429 649 q 410 746 429 714 q 358 788 392 778 q 282 797 325 797 q 206 788 239 797 q 155 746 174 778 q 136 649 136 714 l 136 167 q 155 69 136 101 q 206 28 174 38 q 282 18 239 18 m 181 871 l 265 957 l 303 957 l 388 871 l 351 871 l 283 929 l 218 871 l 181 871 m 425 922 l 347 1011 l 401 1011 l 456 922 l 425 922 z "},"Ổ":{"ha":567,"x_min":88,"x_max":481,"o":"m 281 -17 q 181 -3 225 -17 q 113 50 138 10 q 88 174 88 90 l 88 651 q 113 769 88 731 q 183 819 138 807 q 283 832 228 832 q 384 819 340 832 q 453 767 428 806 q 479 651 479 729 l 479 174 q 453 49 479 89 q 384 -4 428 8 q 281 -17 340 -17 m 282 18 q 359 28 326 18 q 410 69 392 38 q 429 167 429 101 l 429 649 q 410 746 429 714 q 358 788 392 778 q 282 797 325 797 q 206 788 239 797 q 155 746 174 778 q 136 649 136 714 l 136 167 q 155 69 136 101 q 206 28 174 38 q 282 18 239 18 m 181 871 l 265 957 l 303 957 l 388 871 l 351 871 l 283 929 l 218 871 l 181 871 m 404 924 l 404 940 q 415 960 404 954 q 438 974 426 967 q 450 994 450 981 l 450 997 q 442 1017 450 1008 q 419 1025 435 1025 q 392 1001 399 1025 l 367 1007 q 383 1036 369 1025 q 422 1047 397 1047 q 467 1035 454 1047 q 481 997 481 1022 l 481 994 q 469 965 481 974 q 444 951 457 957 q 432 935 432 946 l 432 924 l 404 924 z "},"Ỗ":{"ha":567,"x_min":88,"x_max":479,"o":"m 281 -17 q 181 -3 225 -17 q 113 50 138 10 q 88 174 88 90 l 88 651 q 113 769 88 731 q 183 819 138 807 q 283 832 228 832 q 384 819 340 832 q 453 767 428 806 q 479 651 479 729 l 479 174 q 453 49 479 89 q 384 -4 428 8 q 281 -17 340 -17 m 282 18 q 359 28 326 18 q 410 69 392 38 q 429 167 429 101 l 429 649 q 410 746 429 714 q 358 788 392 778 q 282 797 325 797 q 206 788 239 797 q 155 746 174 778 q 136 649 136 714 l 136 167 q 155 69 136 101 q 206 28 174 38 q 282 18 239 18 m 181 871 l 265 957 l 303 957 l 388 871 l 351 871 l 283 929 l 218 871 l 181 871 m 324 978 q 302 982 311 978 q 281 996 293 986 q 262 1007 272 1001 q 240 1013 251 1013 q 220 1005 229 1013 q 208 979 211 997 l 189 979 q 205 1024 190 1008 q 242 1039 219 1039 q 263 1035 253 1039 q 286 1021 272 1032 q 306 1010 296 1014 q 324 1006 317 1006 q 345 1014 336 1006 q 357 1039 354 1022 l 379 1039 q 370 1007 378 1021 q 350 985 363 993 q 324 978 338 978 z "},"Ö":{"ha":567,"x_min":88,"x_max":479,"o":"m 281 -17 q 181 -3 225 -17 q 113 50 138 10 q 88 174 88 90 l 88 651 q 113 769 88 731 q 183 819 138 807 q 283 832 228 832 q 384 819 340 832 q 453 767 428 806 q 479 651 479 729 l 479 174 q 453 49 479 89 q 384 -4 428 8 q 281 -17 340 -17 m 282 18 q 359 28 326 18 q 410 69 392 38 q 429 167 429 101 l 429 649 q 410 746 429 714 q 358 788 392 778 q 282 797 325 797 q 206 788 239 797 q 155 746 174 778 q 136 649 136 714 l 136 167 q 155 69 136 101 q 206 28 174 38 q 282 18 239 18 m 224 890 q 199 901 210 890 q 189 926 189 911 q 199 950 189 940 q 224 960 210 960 q 249 950 239 960 q 260 926 260 940 q 249 901 260 911 q 224 890 239 890 m 343 890 q 317 901 328 890 q 307 926 307 911 q 317 950 307 940 q 343 960 328 960 q 367 950 357 960 q 378 926 378 940 q 367 901 378 911 q 343 890 357 890 z "},"Ọ":{"ha":567,"x_min":88,"x_max":479,"o":"m 281 -17 q 181 -3 225 -17 q 113 50 138 10 q 88 174 88 90 l 88 651 q 113 769 88 731 q 183 819 138 807 q 283 832 228 832 q 384 819 340 832 q 453 767 428 806 q 479 651 479 729 l 479 174 q 453 49 479 89 q 384 -4 428 8 q 281 -17 340 -17 m 282 18 q 359 28 326 18 q 410 69 392 38 q 429 167 429 101 l 429 649 q 410 746 429 714 q 358 788 392 778 q 282 797 325 797 q 206 788 239 797 q 155 746 174 778 q 136 649 136 714 l 136 167 q 155 69 136 101 q 206 28 174 38 q 282 18 239 18 m 283 -135 q 258 -124 268 -135 q 247 -100 247 -114 q 258 -75 247 -85 q 283 -65 268 -65 q 310 -75 299 -65 q 321 -100 321 -85 q 310 -124 321 -114 q 283 -135 299 -135 z "},"Ò":{"ha":567,"x_min":88,"x_max":479,"o":"m 281 -17 q 181 -3 225 -17 q 113 50 138 10 q 88 174 88 90 l 88 651 q 113 769 88 731 q 183 819 138 807 q 283 832 228 832 q 384 819 340 832 q 453 767 428 806 q 479 651 479 729 l 479 174 q 453 49 479 89 q 384 -4 428 8 q 281 -17 340 -17 m 282 18 q 359 28 326 18 q 410 69 392 38 q 429 167 429 101 l 429 649 q 410 746 429 714 q 358 788 392 778 q 282 797 325 797 q 206 788 239 797 q 155 746 174 778 q 136 649 136 714 l 136 167 q 155 69 136 101 q 206 28 174 38 q 282 18 239 18 m 301 879 l 169 986 l 231 986 l 342 879 l 301 879 z "},"Ỏ":{"ha":567,"x_min":88,"x_max":479,"o":"m 281 -17 q 181 -3 225 -17 q 113 50 138 10 q 88 174 88 90 l 88 651 q 113 769 88 731 q 183 819 138 807 q 283 832 228 832 q 384 819 340 832 q 453 767 428 806 q 479 651 479 729 l 479 174 q 453 49 479 89 q 384 -4 428 8 q 281 -17 340 -17 m 282 18 q 359 28 326 18 q 410 69 392 38 q 429 167 429 101 l 429 649 q 410 746 429 714 q 358 788 392 778 q 282 797 325 797 q 206 788 239 797 q 155 746 174 778 q 136 649 136 714 l 136 167 q 155 69 136 101 q 206 28 174 38 q 282 18 239 18 m 268 869 l 268 894 q 284 925 268 915 q 317 944 300 935 q 333 972 333 954 l 333 978 q 322 1006 333 993 q 286 1018 311 1018 q 246 983 253 1018 l 215 990 q 239 1029 221 1015 q 290 1043 257 1043 q 347 1027 328 1043 q 367 976 367 1011 l 367 974 q 349 932 367 944 q 315 912 332 919 q 299 888 299 904 l 299 869 l 268 869 z "},"Ơ":{"ha":567,"x_min":88,"x_max":481,"o":"m 281 -17 q 181 -3 225 -17 q 113 50 138 10 q 88 174 88 90 l 88 651 q 113 769 88 731 q 183 819 138 807 q 283 832 228 832 q 384 819 340 832 q 453 767 428 806 q 479 651 479 729 l 479 174 q 453 49 479 89 q 384 -4 428 8 q 281 -17 340 -17 m 282 18 q 359 28 326 18 q 410 69 392 38 q 429 167 429 101 l 429 649 q 410 746 429 714 q 358 788 392 778 q 282 797 325 797 q 206 788 239 797 q 155 746 174 778 q 136 649 136 714 l 136 167 q 155 69 136 101 q 206 28 174 38 q 282 18 239 18 m 363 790 l 357 821 l 371 821 q 440 882 440 821 l 440 903 l 479 903 l 479 889 q 449 815 479 842 q 363 790 418 789 z "},"Ớ":{"ha":567,"x_min":88,"x_max":481,"o":"m 281 -17 q 181 -3 225 -17 q 113 50 138 10 q 88 174 88 90 l 88 651 q 113 769 88 731 q 183 819 138 807 q 283 832 228 832 q 384 819 340 832 q 453 767 428 806 q 479 651 479 729 l 479 174 q 453 49 479 89 q 384 -4 428 8 q 281 -17 340 -17 m 282 18 q 359 28 326 18 q 410 69 392 38 q 429 167 429 101 l 429 649 q 410 746 429 714 q 358 788 392 778 q 282 797 325 797 q 206 788 239 797 q 155 746 174 778 q 136 649 136 714 l 136 167 q 155 69 136 101 q 206 28 174 38 q 282 18 239 18 m 363 790 l 357 821 l 371 821 q 440 882 440 821 l 440 903 l 479 903 l 479 889 q 449 815 479 842 q 363 790 418 789 m 226 879 l 339 988 l 399 988 l 265 879 l 226 879 z "},"Ợ":{"ha":567,"x_min":88,"x_max":481,"o":"m 281 -17 q 181 -3 225 -17 q 113 50 138 10 q 88 174 88 90 l 88 651 q 113 769 88 731 q 183 819 138 807 q 283 832 228 832 q 384 819 340 832 q 453 767 428 806 q 479 651 479 729 l 479 174 q 453 49 479 89 q 384 -4 428 8 q 281 -17 340 -17 m 282 18 q 359 28 326 18 q 410 69 392 38 q 429 167 429 101 l 429 649 q 410 746 429 714 q 358 788 392 778 q 282 797 325 797 q 206 788 239 797 q 155 746 174 778 q 136 649 136 714 l 136 167 q 155 69 136 101 q 206 28 174 38 q 282 18 239 18 m 363 790 l 357 821 l 371 821 q 440 882 440 821 l 440 903 l 479 903 l 479 889 q 449 815 479 842 q 363 790 418 789 m 283 -135 q 258 -124 268 -135 q 247 -100 247 -114 q 258 -75 247 -85 q 283 -65 268 -65 q 310 -75 299 -65 q 321 -100 321 -85 q 310 -124 321 -114 q 283 -135 299 -135 z "},"Ờ":{"ha":567,"x_min":88,"x_max":481,"o":"m 281 -17 q 181 -3 225 -17 q 113 50 138 10 q 88 174 88 90 l 88 651 q 113 769 88 731 q 183 819 138 807 q 283 832 228 832 q 384 819 340 832 q 453 767 428 806 q 479 651 479 729 l 479 174 q 453 49 479 89 q 384 -4 428 8 q 281 -17 340 -17 m 282 18 q 359 28 326 18 q 410 69 392 38 q 429 167 429 101 l 429 649 q 410 746 429 714 q 358 788 392 778 q 282 797 325 797 q 206 788 239 797 q 155 746 174 778 q 136 649 136 714 l 136 167 q 155 69 136 101 q 206 28 174 38 q 282 18 239 18 m 363 790 l 357 821 l 371 821 q 440 882 440 821 l 440 903 l 479 903 l 479 889 q 449 815 479 842 q 363 790 418 789 m 301 879 l 169 986 l 231 986 l 342 879 l 301 879 z "},"Ở":{"ha":567,"x_min":88,"x_max":481,"o":"m 281 -17 q 181 -3 225 -17 q 113 50 138 10 q 88 174 88 90 l 88 651 q 113 769 88 731 q 183 819 138 807 q 283 832 228 832 q 384 819 340 832 q 453 767 428 806 q 479 651 479 729 l 479 174 q 453 49 479 89 q 384 -4 428 8 q 281 -17 340 -17 m 282 18 q 359 28 326 18 q 410 69 392 38 q 429 167 429 101 l 429 649 q 410 746 429 714 q 358 788 392 778 q 282 797 325 797 q 206 788 239 797 q 155 746 174 778 q 136 649 136 714 l 136 167 q 155 69 136 101 q 206 28 174 38 q 282 18 239 18 m 363 790 l 357 821 l 371 821 q 440 882 440 821 l 440 903 l 479 903 l 479 889 q 449 815 479 842 q 363 790 418 789 m 268 869 l 268 894 q 284 925 268 915 q 317 944 300 935 q 333 972 333 954 l 333 978 q 322 1006 333 993 q 286 1018 311 1018 q 246 983 253 1018 l 215 990 q 239 1029 221 1015 q 290 1043 257 1043 q 347 1027 328 1043 q 367 976 367 1011 l 367 974 q 349 932 367 944 q 315 912 332 919 q 299 888 299 904 l 299 869 l 268 869 z "},"Ỡ":{"ha":567,"x_min":88,"x_max":481,"o":"m 281 -17 q 181 -3 225 -17 q 113 50 138 10 q 88 174 88 90 l 88 651 q 113 769 88 731 q 183 819 138 807 q 283 832 228 832 q 384 819 340 832 q 453 767 428 806 q 479 651 479 729 l 479 174 q 453 49 479 89 q 384 -4 428 8 q 281 -17 340 -17 m 282 18 q 359 28 326 18 q 410 69 392 38 q 429 167 429 101 l 429 649 q 410 746 429 714 q 358 788 392 778 q 282 797 325 797 q 206 788 239 797 q 155 746 174 778 q 136 649 136 714 l 136 167 q 155 69 136 101 q 206 28 174 38 q 282 18 239 18 m 363 790 l 357 821 l 371 821 q 440 882 440 821 l 440 903 l 479 903 l 479 889 q 449 815 479 842 q 363 790 418 789 m 340 889 q 312 894 324 889 q 281 914 300 900 q 257 930 271 921 q 226 939 243 939 q 198 928 210 939 q 182 890 186 917 l 154 890 q 176 947 157 925 q 226 969 194 969 q 258 962 243 969 q 289 943 274 954 q 315 927 304 933 q 340 921 326 921 q 369 932 358 921 q 385 968 381 943 l 414 968 q 403 926 413 944 q 377 899 393 908 q 340 889 361 889 z "},"Ő":{"ha":567,"x_min":88,"x_max":479,"o":"m 281 -17 q 181 -3 225 -17 q 113 50 138 10 q 88 174 88 90 l 88 651 q 113 769 88 731 q 183 819 138 807 q 283 832 228 832 q 384 819 340 832 q 453 767 428 806 q 479 651 479 729 l 479 174 q 453 49 479 89 q 384 -4 428 8 q 281 -17 340 -17 m 282 18 q 359 28 326 18 q 410 69 392 38 q 429 167 429 101 l 429 649 q 410 746 429 714 q 358 788 392 778 q 282 797 325 797 q 206 788 239 797 q 155 746 174 778 q 136 649 136 714 l 136 167 q 155 69 136 101 q 206 28 174 38 q 282 18 239 18 m 219 874 l 265 996 l 318 996 l 246 874 l 219 874 m 301 874 l 351 996 l 403 996 l 329 874 l 301 874 z "},"Ō":{"ha":567,"x_min":88,"x_max":479,"o":"m 281 -17 q 181 -3 225 -17 q 113 50 138 10 q 88 174 88 90 l 88 651 q 113 769 88 731 q 183 819 138 807 q 283 832 228 832 q 384 819 340 832 q 453 767 428 806 q 479 651 479 729 l 479 174 q 453 49 479 89 q 384 -4 428 8 q 281 -17 340 -17 m 282 18 q 359 28 326 18 q 410 69 392 38 q 429 167 429 101 l 429 649 q 410 746 429 714 q 358 788 392 778 q 282 797 325 797 q 206 788 239 797 q 155 746 174 778 q 136 649 136 714 l 136 167 q 155 69 136 101 q 206 28 174 38 q 282 18 239 18 m 161 908 l 161 939 l 406 939 l 406 908 l 161 908 z "},"Ω":{"ha":833,"x_min":68,"x_max":772,"o":"m 68 0 l 68 44 l 301 39 l 293 44 q 167 183 210 111 q 110 318 125 254 q 96 424 96 382 q 117 574 96 507 q 181 687 139 640 q 283 758 222 733 q 421 783 344 783 q 558 758 499 783 q 660 687 618 733 q 723 575 701 640 q 744 428 744 510 q 729 320 744 383 q 672 185 714 257 q 546 44 629 114 l 538 39 l 772 44 l 772 0 l 469 0 l 469 29 q 584 135 540 81 q 651 244 628 190 q 681 344 674 297 q 689 428 689 392 q 657 597 689 524 q 565 710 625 669 q 421 750 506 750 q 275 709 336 750 q 181 592 214 668 q 149 411 149 517 q 157 338 149 382 q 189 240 165 293 q 256 133 213 188 q 368 29 299 79 l 368 0 l 68 0 z "},"Ø":{"ha":592,"x_min":51,"x_max":513,"o":"m 51 -19 l 474 821 l 513 821 l 90 -19 l 51 -19 m 294 -17 q 193 -3 238 -17 q 123 50 149 10 q 97 174 97 90 l 97 651 q 124 769 97 731 q 195 819 150 807 q 296 832 240 832 q 397 819 354 832 q 466 767 440 806 q 492 651 492 729 l 492 174 q 466 49 492 89 q 397 -4 440 8 q 294 -17 353 -17 m 294 18 q 372 28 339 18 q 423 69 404 38 q 442 167 442 101 l 442 649 q 423 746 442 714 q 371 788 404 778 q 294 797 338 797 q 219 788 253 797 q 167 746 186 778 q 149 649 149 714 l 149 167 q 167 69 149 101 q 219 28 186 38 q 294 18 253 18 z "},"Õ":{"ha":567,"x_min":88,"x_max":479,"o":"m 281 -17 q 181 -3 225 -17 q 113 50 138 10 q 88 174 88 90 l 88 651 q 113 769 88 731 q 183 819 138 807 q 283 832 228 832 q 384 819 340 832 q 453 767 428 806 q 479 651 479 729 l 479 174 q 453 49 479 89 q 384 -4 428 8 q 281 -17 340 -17 m 282 18 q 359 28 326 18 q 410 69 392 38 q 429 167 429 101 l 429 649 q 410 746 429 714 q 358 788 392 778 q 282 797 325 797 q 206 788 239 797 q 155 746 174 778 q 136 649 136 714 l 136 167 q 155 69 136 101 q 206 28 174 38 q 282 18 239 18 m 340 889 q 312 894 324 889 q 281 914 300 900 q 257 930 271 921 q 226 939 243 939 q 198 928 210 939 q 182 890 186 917 l 154 890 q 176 947 157 925 q 226 969 194 969 q 258 962 243 969 q 289 943 274 954 q 315 927 304 933 q 340 921 326 921 q 369 932 358 921 q 385 968 381 943 l 414 968 q 403 926 413 944 q 377 899 393 908 q 340 889 361 889 z "},"P":{"ha":529,"x_min":101,"x_max":489,"o":"m 101 0 l 101 821 l 338 821 q 445 790 401 821 q 489 686 489 760 l 489 531 q 476 449 489 488 q 424 388 463 411 q 313 365 386 365 l 154 365 l 154 0 l 101 0 m 154 399 l 303 399 q 405 434 371 399 q 439 539 439 469 l 439 671 q 406 759 439 731 q 331 788 374 788 l 154 788 l 154 399 z "},"П":{"ha":503,"x_min":65,"x_max":438,"o":"m 65 0 l 65 821 l 438 821 l 438 0 l 385 0 l 385 782 l 119 782 l 119 0 l 65 0 z "},"Q":{"ha":568,"x_min":88,"x_max":481,"o":"m 428 -158 l 344 -12 q 315 -15 329 -14 q 282 -17 300 -17 q 182 -3 225 -17 q 113 50 139 10 q 88 174 88 90 l 88 651 q 113 769 88 731 q 184 819 139 807 q 285 832 229 832 q 386 819 343 832 q 455 767 429 806 q 481 651 481 729 l 481 174 q 457 52 481 92 q 389 -1 433 13 l 469 -133 l 428 -158 m 283 18 q 360 28 328 18 q 412 69 393 38 q 431 167 431 101 l 431 649 q 412 746 431 714 q 360 788 393 778 q 283 797 326 797 q 208 788 242 797 q 156 746 175 778 q 138 649 138 714 l 138 167 q 156 69 138 101 q 208 28 175 38 q 283 18 242 18 z "},"R":{"ha":571,"x_min":101,"x_max":521,"o":"m 101 0 l 101 821 l 339 821 q 447 790 403 821 q 490 686 490 760 l 490 550 q 444 440 490 475 q 325 403 397 404 l 325 406 q 392 375 369 406 q 433 282 415 344 l 521 0 l 468 0 l 386 278 q 365 333 378 307 q 333 375 353 358 q 281 392 313 392 l 153 392 l 153 0 l 101 0 m 153 428 l 304 428 q 406 458 371 428 q 440 560 440 488 l 440 676 q 407 761 440 735 q 331 788 374 788 l 153 788 l 153 428 z "},"Ŕ":{"ha":571,"x_min":101,"x_max":521,"o":"m 101 0 l 101 821 l 339 821 q 447 790 403 821 q 490 686 490 760 l 490 550 q 444 440 490 475 q 325 403 397 404 l 325 406 q 392 375 369 406 q 433 282 415 344 l 521 0 l 468 0 l 386 278 q 365 333 378 307 q 333 375 353 358 q 281 392 313 392 l 153 392 l 153 0 l 101 0 m 153 428 l 304 428 q 406 458 371 428 q 440 560 440 488 l 440 676 q 407 761 440 735 q 331 788 374 788 l 153 788 l 153 428 m 228 879 l 340 988 l 400 988 l 267 879 l 228 879 z "},"Ř":{"ha":571,"x_min":101,"x_max":521,"o":"m 101 0 l 101 821 l 339 821 q 447 790 403 821 q 490 686 490 760 l 490 550 q 444 440 490 475 q 325 403 397 404 l 325 406 q 392 375 369 406 q 433 282 415 344 l 521 0 l 468 0 l 386 278 q 365 333 378 307 q 333 375 353 358 q 281 392 313 392 l 153 392 l 153 0 l 101 0 m 153 428 l 304 428 q 406 458 371 428 q 440 560 440 488 l 440 676 q 407 761 440 735 q 331 788 374 788 l 153 788 l 153 428 m 264 872 l 151 978 l 190 978 l 285 903 l 381 979 l 421 979 l 307 872 l 264 872 z "},"Ŗ":{"ha":571,"x_min":101,"x_max":521,"o":"m 101 0 l 101 821 l 339 821 q 447 790 403 821 q 490 686 490 760 l 490 550 q 444 440 490 475 q 325 403 397 404 l 325 406 q 392 375 369 406 q 433 282 415 344 l 521 0 l 468 0 l 386 278 q 365 333 378 307 q 333 375 353 358 q 281 392 313 392 l 153 392 l 153 0 l 101 0 m 153 428 l 304 428 q 406 458 371 428 q 440 560 440 488 l 440 676 q 407 761 440 735 q 331 788 374 788 l 153 788 l 153 428 m 258 -207 q 283 -162 272 -183 q 293 -125 293 -140 q 288 -111 293 -117 q 276 -99 282 -106 q 269 -82 269 -93 q 279 -62 269 -71 q 300 -54 289 -54 q 325 -65 315 -54 q 335 -89 335 -75 q 327 -124 335 -103 q 308 -167 319 -146 q 282 -207 296 -189 l 258 -207 z "},"S":{"ha":507,"x_min":61,"x_max":446,"o":"m 247 -8 q 149 14 190 -8 q 84 88 107 36 q 61 231 61 140 l 61 276 q 85 276 72 276 q 110 276 99 276 l 110 229 q 127 108 110 151 q 176 46 144 64 q 247 28 208 28 q 353 67 311 28 q 396 207 396 107 q 376 307 396 272 q 318 362 357 342 q 225 404 279 382 q 147 444 183 421 q 88 507 110 467 q 65 613 65 547 q 84 727 65 681 q 144 797 103 774 q 253 821 186 821 q 389 774 340 821 q 438 644 438 728 l 438 557 q 415 557 426 557 q 389 557 403 557 l 389 635 q 353 742 389 704 q 253 781 318 781 q 147 740 181 781 q 114 614 114 699 q 136 523 114 557 q 194 469 158 489 q 268 435 229 450 q 371 385 332 410 q 428 320 410 360 q 446 211 446 281 q 420 81 446 129 q 350 13 394 33 q 247 -8 306 -8 z "},"Ś":{"ha":507,"x_min":61,"x_max":446,"o":"m 247 -8 q 149 14 190 -8 q 84 88 107 36 q 61 231 61 140 l 61 276 q 85 276 72 276 q 110 276 99 276 l 110 229 q 127 108 110 151 q 176 46 144 64 q 247 28 208 28 q 353 67 311 28 q 396 207 396 107 q 376 307 396 272 q 318 362 357 342 q 225 404 279 382 q 147 444 183 421 q 88 507 110 467 q 65 613 65 547 q 84 727 65 681 q 144 797 103 774 q 253 821 186 821 q 389 774 340 821 q 438 644 438 728 l 438 557 q 415 557 426 557 q 389 557 403 557 l 389 635 q 353 742 389 704 q 253 781 318 781 q 147 740 181 781 q 114 614 114 699 q 136 523 114 557 q 194 469 158 489 q 268 435 229 450 q 371 385 332 410 q 428 320 410 360 q 446 211 446 281 q 420 81 446 129 q 350 13 394 33 q 247 -8 306 -8 m 196 879 l 308 988 l 368 988 l 235 879 l 196 879 z "},"Š":{"ha":507,"x_min":61,"x_max":446,"o":"m 247 -8 q 149 14 190 -8 q 84 88 107 36 q 61 231 61 140 l 61 276 q 85 276 72 276 q 110 276 99 276 l 110 229 q 127 108 110 151 q 176 46 144 64 q 247 28 208 28 q 353 67 311 28 q 396 207 396 107 q 376 307 396 272 q 318 362 357 342 q 225 404 279 382 q 147 444 183 421 q 88 507 110 467 q 65 613 65 547 q 84 727 65 681 q 144 797 103 774 q 253 821 186 821 q 389 774 340 821 q 438 644 438 728 l 438 557 q 415 557 426 557 q 389 557 403 557 l 389 635 q 353 742 389 704 q 253 781 318 781 q 147 740 181 781 q 114 614 114 699 q 136 523 114 557 q 194 469 158 489 q 268 435 229 450 q 371 385 332 410 q 428 320 410 360 q 446 211 446 281 q 420 81 446 129 q 350 13 394 33 q 247 -8 306 -8 m 232 872 l 119 978 l 158 978 l 253 903 l 349 979 l 389 979 l 275 872 l 232 872 z "},"Ş":{"ha":507,"x_min":61,"x_max":446,"o":"m 247 -8 q 149 14 190 -8 q 84 88 107 36 q 61 231 61 140 l 61 276 q 85 276 72 276 q 110 276 99 276 l 110 229 q 127 108 110 151 q 176 46 144 64 q 247 28 208 28 q 353 67 311 28 q 396 207 396 107 q 376 307 396 272 q 318 362 357 342 q 225 404 279 382 q 147 444 183 421 q 88 507 110 467 q 65 613 65 547 q 84 727 65 681 q 144 797 103 774 q 253 821 186 821 q 389 774 340 821 q 438 644 438 728 l 438 557 q 415 557 426 557 q 389 557 403 557 l 389 635 q 353 742 389 704 q 253 781 318 781 q 147 740 181 781 q 114 614 114 699 q 136 523 114 557 q 194 469 158 489 q 268 435 229 450 q 371 385 332 410 q 428 320 410 360 q 446 211 446 281 q 420 81 446 129 q 350 13 394 33 q 247 -8 306 -8 m 247 -192 q 214 -185 229 -192 q 188 -174 199 -179 l 197 -150 q 220 -160 204 -156 q 246 -165 236 -165 q 290 -152 276 -165 q 304 -121 304 -139 q 291 -90 304 -101 q 257 -78 278 -78 q 237 -82 247 -78 q 217 -93 226 -86 l 197 -82 l 242 0 l 269 0 l 231 -69 l 224 -68 q 245 -59 233 -61 q 268 -57 257 -57 q 319 -76 301 -57 q 338 -117 338 -96 q 314 -171 338 -150 q 247 -192 290 -192 z "},"Ș":{"ha":507,"x_min":61,"x_max":446,"o":"m 247 -8 q 149 14 190 -8 q 84 88 107 36 q 61 231 61 140 l 61 276 q 85 276 72 276 q 110 276 99 276 l 110 229 q 127 108 110 151 q 176 46 144 64 q 247 28 208 28 q 353 67 311 28 q 396 207 396 107 q 376 307 396 272 q 318 362 357 342 q 225 404 279 382 q 147 444 183 421 q 88 507 110 467 q 65 613 65 547 q 84 727 65 681 q 144 797 103 774 q 253 821 186 821 q 389 774 340 821 q 438 644 438 728 l 438 557 q 415 557 426 557 q 389 557 403 557 l 389 635 q 353 742 389 704 q 253 781 318 781 q 147 740 181 781 q 114 614 114 699 q 136 523 114 557 q 194 469 158 489 q 268 435 229 450 q 371 385 332 410 q 428 320 410 360 q 446 211 446 281 q 420 81 446 129 q 350 13 394 33 q 247 -8 306 -8 m 210 -207 q 234 -162 224 -183 q 244 -125 244 -140 q 239 -111 244 -117 q 227 -99 233 -106 q 221 -82 221 -93 q 231 -62 221 -71 q 251 -54 240 -54 q 276 -65 267 -54 q 286 -89 286 -75 q 278 -124 286 -103 q 259 -167 271 -146 q 233 -207 247 -189 l 210 -207 z "},"Ш":{"ha":815,"x_min":65,"x_max":750,"o":"m 65 0 l 65 821 l 118 821 l 118 38 l 382 38 l 382 821 l 433 821 l 433 38 l 697 38 l 697 821 l 750 821 l 750 0 l 65 0 z "},"Щ":{"ha":836,"x_min":65,"x_max":778,"o":"m 732 -107 l 732 0 l 65 0 l 65 821 l 118 821 l 118 38 l 382 38 l 382 821 l 433 821 l 433 38 l 697 38 l 697 821 l 750 821 l 750 32 l 778 32 l 778 -107 l 732 -107 z "},"Ь":{"ha":496,"x_min":65,"x_max":431,"o":"m 65 0 l 65 818 l 115 818 l 115 604 l 260 604 q 363 584 326 604 q 415 524 400 564 q 431 425 431 485 l 431 199 q 422 110 431 147 q 393 48 413 72 q 341 12 374 24 q 261 0 308 0 l 65 0 m 115 33 l 254 33 q 335 55 308 33 q 372 115 363 76 q 381 201 381 153 l 381 411 q 373 488 381 453 q 338 547 365 524 q 251 569 310 569 l 115 569 l 115 33 z "},"T":{"ha":374,"x_min":17,"x_max":357,"o":"m 160 0 l 160 783 l 17 783 l 17 821 l 357 821 l 357 783 l 210 783 l 210 0 l 160 0 z "},"Ŧ":{"ha":404,"x_min":17,"x_max":357,"o":"m 86 586 l 86 622 l 311 622 l 311 586 l 86 586 m 160 0 l 160 783 l 17 783 l 17 821 l 357 821 l 357 783 l 210 783 l 210 0 l 160 0 z "},"Ť":{"ha":374,"x_min":17,"x_max":357,"o":"m 160 0 l 160 783 l 17 783 l 17 821 l 357 821 l 357 783 l 210 783 l 210 0 l 160 0 m 165 872 l 53 978 l 92 978 l 186 903 l 282 979 l 322 979 l 208 872 l 165 872 z "},"Ţ":{"ha":374,"x_min":17,"x_max":357,"o":"m 160 0 l 160 783 l 17 783 l 17 821 l 357 821 l 357 783 l 210 783 l 210 0 l 160 0 m 179 -192 q 146 -185 161 -192 q 119 -174 131 -179 l 129 -150 q 152 -160 136 -156 q 178 -165 168 -165 q 222 -152 208 -165 q 236 -121 236 -139 q 223 -90 236 -101 q 189 -78 210 -78 q 169 -82 179 -78 q 149 -93 158 -86 l 129 -82 l 174 0 l 201 0 l 163 -69 l 156 -68 q 177 -59 165 -61 q 200 -57 189 -57 q 251 -76 233 -57 q 269 -117 269 -96 q 246 -171 269 -150 q 179 -192 222 -192 z "},"Ț":{"ha":374,"x_min":17,"x_max":357,"o":"m 160 0 l 160 783 l 17 783 l 17 821 l 357 821 l 357 783 l 210 783 l 210 0 l 160 0 m 143 -207 q 167 -162 157 -183 q 178 -125 178 -140 q 172 -111 178 -117 q 160 -99 167 -106 q 154 -82 154 -93 q 164 -62 154 -71 q 185 -54 174 -54 q 210 -65 200 -54 q 219 -89 219 -75 q 212 -124 219 -103 q 192 -167 204 -146 q 167 -207 181 -189 l 143 -207 z "},"Т":{"ha":374,"x_min":17,"x_max":357,"o":"m 160 0 l 160 783 l 17 783 l 17 821 l 357 821 l 357 783 l 210 783 l 210 0 l 160 0 z "},"Þ":{"ha":517,"x_min":65,"x_max":453,"o":"m 65 0 l 65 821 l 118 821 l 118 661 l 301 661 q 409 630 365 661 q 453 525 453 599 l 453 371 q 440 289 453 326 q 388 228 426 251 q 276 204 350 204 l 118 204 l 118 0 l 65 0 m 118 238 l 265 238 q 367 272 333 238 q 401 378 401 307 l 401 508 q 369 599 401 571 q 293 628 338 628 l 118 628 l 118 238 z "},"Ц":{"ha":531,"x_min":65,"x_max":467,"o":"m 421 -107 l 421 0 l 65 0 l 65 821 l 119 821 l 119 39 l 385 39 l 385 821 l 439 821 l 439 33 l 467 33 l 467 -107 l 421 -107 z "},"Ћ":{"ha":610,"x_min":26,"x_max":546,"o":"m 179 0 l 179 782 l 26 782 l 26 821 l 386 821 l 386 782 l 231 782 l 231 529 q 281 578 244 556 q 376 601 318 601 q 488 576 453 601 q 535 507 524 550 q 546 414 546 464 l 546 0 l 494 0 l 494 415 q 485 492 494 458 q 449 544 476 525 q 364 563 421 563 q 270 533 301 563 q 231 474 239 504 l 231 0 l 179 0 z "},"U":{"ha":579,"x_min":94,"x_max":485,"o":"m 289 -17 q 215 -10 250 -17 q 153 15 181 -4 q 110 69 125 33 q 94 163 94 104 l 94 821 l 144 821 l 144 157 q 165 69 144 99 q 218 28 185 39 q 289 18 251 18 q 361 28 328 18 q 415 69 394 39 q 435 157 435 99 l 435 821 l 485 821 l 485 163 q 469 69 485 104 q 427 15 454 33 q 364 -10 400 -4 q 289 -17 328 -17 z "},"У":{"ha":414,"x_min":14,"x_max":400,"o":"m 85 -7 q 53 -5 68 -7 q 28 0 39 -3 l 28 32 q 45 29 35 31 q 69 28 56 28 q 107 35 88 28 q 143 61 126 42 q 162 94 154 75 q 175 138 169 113 l 14 821 l 67 821 l 208 196 l 207 196 l 351 821 l 400 821 l 244 164 q 188 32 221 71 q 85 -7 154 -7 z "},"Ú":{"ha":579,"x_min":94,"x_max":485,"o":"m 289 -17 q 215 -10 250 -17 q 153 15 181 -4 q 110 69 125 33 q 94 163 94 104 l 94 821 l 144 821 l 144 157 q 165 69 144 99 q 218 28 185 39 q 289 18 251 18 q 361 28 328 18 q 415 69 394 39 q 435 157 435 99 l 435 821 l 485 821 l 485 163 q 469 69 485 104 q 427 15 454 33 q 364 -10 400 -4 q 289 -17 328 -17 m 231 879 l 343 988 l 403 988 l 269 879 l 231 879 z "},"Ǔ":{"ha":579,"x_min":94,"x_max":485,"o":"m 289 -17 q 215 -10 250 -17 q 153 15 181 -4 q 110 69 125 33 q 94 163 94 104 l 94 821 l 144 821 l 144 157 q 165 69 144 99 q 218 28 185 39 q 289 18 251 18 q 361 28 328 18 q 415 69 394 39 q 435 157 435 99 l 435 821 l 485 821 l 485 163 q 469 69 485 104 q 427 15 454 33 q 364 -10 400 -4 q 289 -17 328 -17 m 267 872 l 154 978 l 193 978 l 288 903 l 383 979 l 424 979 l 310 872 l 267 872 z "},"Û":{"ha":579,"x_min":94,"x_max":485,"o":"m 289 -17 q 215 -10 250 -17 q 153 15 181 -4 q 110 69 125 33 q 94 163 94 104 l 94 821 l 144 821 l 144 157 q 165 69 144 99 q 218 28 185 39 q 289 18 251 18 q 361 28 328 18 q 415 69 394 39 q 435 157 435 99 l 435 821 l 485 821 l 485 163 q 469 69 485 104 q 427 15 454 33 q 364 -10 400 -4 q 289 -17 328 -17 m 147 872 l 267 990 l 310 990 l 429 872 l 390 872 l 288 960 l 188 872 l 147 872 z "},"Ü":{"ha":579,"x_min":94,"x_max":485,"o":"m 289 -17 q 215 -10 250 -17 q 153 15 181 -4 q 110 69 125 33 q 94 163 94 104 l 94 821 l 144 821 l 144 157 q 165 69 144 99 q 218 28 185 39 q 289 18 251 18 q 361 28 328 18 q 415 69 394 39 q 435 157 435 99 l 435 821 l 485 821 l 485 163 q 469 69 485 104 q 427 15 454 33 q 364 -10 400 -4 q 289 -17 328 -17 m 229 890 q 205 901 215 890 q 194 926 194 911 q 205 950 194 940 q 229 960 215 960 q 255 950 244 960 q 265 926 265 940 q 255 901 265 911 q 229 890 244 890 m 349 890 q 323 901 333 890 q 313 926 313 911 q 323 950 313 940 q 349 960 333 960 q 373 950 363 960 q 383 926 383 940 q 373 901 383 911 q 349 890 363 890 z "},"Ǘ":{"ha":579,"x_min":94,"x_max":485,"o":"m 289 -17 q 215 -10 250 -17 q 153 15 181 -4 q 110 69 125 33 q 94 163 94 104 l 94 821 l 144 821 l 144 157 q 165 69 144 99 q 218 28 185 39 q 289 18 251 18 q 361 28 328 18 q 415 69 394 39 q 435 157 435 99 l 435 821 l 485 821 l 485 163 q 469 69 485 104 q 427 15 454 33 q 364 -10 400 -4 q 289 -17 328 -17 m 229 890 q 205 901 215 890 q 194 926 194 911 q 205 950 194 940 q 229 960 215 960 q 255 950 244 960 q 265 926 265 940 q 255 901 265 911 q 229 890 244 890 m 349 890 q 323 901 333 890 q 313 926 313 911 q 323 950 313 940 q 349 960 333 960 q 373 950 363 960 q 383 926 383 940 q 373 901 383 911 q 349 890 363 890 m 231 989 l 343 1097 l 403 1097 l 269 989 l 231 989 z "},"Ǚ":{"ha":579,"x_min":94,"x_max":485,"o":"m 289 -17 q 215 -10 250 -17 q 153 15 181 -4 q 110 69 125 33 q 94 163 94 104 l 94 821 l 144 821 l 144 157 q 165 69 144 99 q 218 28 185 39 q 289 18 251 18 q 361 28 328 18 q 415 69 394 39 q 435 157 435 99 l 435 821 l 485 821 l 485 163 q 469 69 485 104 q 427 15 454 33 q 364 -10 400 -4 q 289 -17 328 -17 m 229 890 q 205 901 215 890 q 194 926 194 911 q 205 950 194 940 q 229 960 215 960 q 255 950 244 960 q 265 926 265 940 q 255 901 265 911 q 229 890 244 890 m 349 890 q 323 901 333 890 q 313 926 313 911 q 323 950 313 940 q 349 960 333 960 q 373 950 363 960 q 383 926 383 940 q 373 901 383 911 q 349 890 363 890 m 267 982 l 154 1088 l 193 1088 l 288 1013 l 383 1089 l 424 1089 l 310 982 l 267 982 z "},"Ǜ":{"ha":579,"x_min":94,"x_max":485,"o":"m 289 -17 q 215 -10 250 -17 q 153 15 181 -4 q 110 69 125 33 q 94 163 94 104 l 94 821 l 144 821 l 144 157 q 165 69 144 99 q 218 28 185 39 q 289 18 251 18 q 361 28 328 18 q 415 69 394 39 q 435 157 435 99 l 435 821 l 485 821 l 485 163 q 469 69 485 104 q 427 15 454 33 q 364 -10 400 -4 q 289 -17 328 -17 m 229 890 q 205 901 215 890 q 194 926 194 911 q 205 950 194 940 q 229 960 215 960 q 255 950 244 960 q 265 926 265 940 q 255 901 265 911 q 229 890 244 890 m 349 890 q 323 901 333 890 q 313 926 313 911 q 323 950 313 940 q 349 960 333 960 q 373 950 363 960 q 383 926 383 940 q 373 901 383 911 q 349 890 363 890 m 307 989 l 175 1096 l 236 1096 l 347 989 l 307 989 z "},"Ǖ":{"ha":579,"x_min":94,"x_max":485,"o":"m 289 -17 q 215 -10 250 -17 q 153 15 181 -4 q 110 69 125 33 q 94 163 94 104 l 94 821 l 144 821 l 144 157 q 165 69 144 99 q 218 28 185 39 q 289 18 251 18 q 361 28 328 18 q 415 69 394 39 q 435 157 435 99 l 435 821 l 485 821 l 485 163 q 469 69 485 104 q 427 15 454 33 q 364 -10 400 -4 q 289 -17 328 -17 m 229 890 q 205 901 215 890 q 194 926 194 911 q 205 950 194 940 q 229 960 215 960 q 255 950 244 960 q 265 926 265 940 q 255 901 265 911 q 229 890 244 890 m 349 890 q 323 901 333 890 q 313 926 313 911 q 323 950 313 940 q 349 960 333 960 q 373 950 363 960 q 383 926 383 940 q 373 901 383 911 q 349 890 363 890 m 167 1018 l 167 1049 l 411 1049 l 411 1018 l 167 1018 z "},"Ụ":{"ha":579,"x_min":94,"x_max":485,"o":"m 289 -17 q 215 -10 250 -17 q 153 15 181 -4 q 110 69 125 33 q 94 163 94 104 l 94 821 l 144 821 l 144 157 q 165 69 144 99 q 218 28 185 39 q 289 18 251 18 q 361 28 328 18 q 415 69 394 39 q 435 157 435 99 l 435 821 l 485 821 l 485 163 q 469 69 485 104 q 427 15 454 33 q 364 -10 400 -4 q 289 -17 328 -17 m 289 -135 q 263 -124 274 -135 q 253 -100 253 -114 q 263 -75 253 -85 q 289 -65 274 -65 q 315 -75 304 -65 q 326 -100 326 -85 q 315 -124 326 -114 q 289 -135 304 -135 z "},"Ù":{"ha":579,"x_min":94,"x_max":485,"o":"m 289 -17 q 215 -10 250 -17 q 153 15 181 -4 q 110 69 125 33 q 94 163 94 104 l 94 821 l 144 821 l 144 157 q 165 69 144 99 q 218 28 185 39 q 289 18 251 18 q 361 28 328 18 q 415 69 394 39 q 435 157 435 99 l 435 821 l 485 821 l 485 163 q 469 69 485 104 q 427 15 454 33 q 364 -10 400 -4 q 289 -17 328 -17 m 307 879 l 175 986 l 236 986 l 347 879 l 307 879 z "},"Ủ":{"ha":579,"x_min":94,"x_max":485,"o":"m 289 -17 q 215 -10 250 -17 q 153 15 181 -4 q 110 69 125 33 q 94 163 94 104 l 94 821 l 144 821 l 144 157 q 165 69 144 99 q 218 28 185 39 q 289 18 251 18 q 361 28 328 18 q 415 69 394 39 q 435 157 435 99 l 435 821 l 485 821 l 485 163 q 469 69 485 104 q 427 15 454 33 q 364 -10 400 -4 q 289 -17 328 -17 m 274 869 l 274 894 q 290 925 274 915 q 322 944 306 935 q 339 972 339 954 l 339 978 q 328 1006 339 993 q 292 1018 317 1018 q 251 983 258 1018 l 221 990 q 244 1029 226 1015 q 296 1043 263 1043 q 353 1027 333 1043 q 372 976 372 1011 l 372 974 q 355 932 372 944 q 321 912 338 919 q 304 888 304 904 l 304 869 l 274 869 z "},"Ư":{"ha":579,"x_min":94,"x_max":563,"o":"m 289 -17 q 215 -10 250 -17 q 153 15 181 -4 q 110 69 125 33 q 94 163 94 104 l 94 821 l 144 821 l 144 157 q 165 69 144 99 q 218 28 185 39 q 289 18 251 18 q 361 28 328 18 q 415 69 394 39 q 435 157 435 99 l 435 821 l 485 821 l 485 163 q 469 69 485 104 q 427 15 454 33 q 364 -10 400 -4 q 289 -17 328 -17 m 444 790 l 439 821 l 453 821 q 522 882 522 821 l 522 903 l 561 903 l 561 889 q 531 815 561 842 q 444 790 500 789 z "},"Ứ":{"ha":579,"x_min":94,"x_max":563,"o":"m 289 -17 q 215 -10 250 -17 q 153 15 181 -4 q 110 69 125 33 q 94 163 94 104 l 94 821 l 144 821 l 144 157 q 165 69 144 99 q 218 28 185 39 q 289 18 251 18 q 361 28 328 18 q 415 69 394 39 q 435 157 435 99 l 435 821 l 485 821 l 485 163 q 469 69 485 104 q 427 15 454 33 q 364 -10 400 -4 q 289 -17 328 -17 m 444 790 l 439 821 l 453 821 q 522 882 522 821 l 522 903 l 561 903 l 561 889 q 531 815 561 842 q 444 790 500 789 m 231 879 l 343 988 l 403 988 l 269 879 l 231 879 z "},"Ự":{"ha":579,"x_min":94,"x_max":563,"o":"m 289 -17 q 215 -10 250 -17 q 153 15 181 -4 q 110 69 125 33 q 94 163 94 104 l 94 821 l 144 821 l 144 157 q 165 69 144 99 q 218 28 185 39 q 289 18 251 18 q 361 28 328 18 q 415 69 394 39 q 435 157 435 99 l 435 821 l 485 821 l 485 163 q 469 69 485 104 q 427 15 454 33 q 364 -10 400 -4 q 289 -17 328 -17 m 444 790 l 439 821 l 453 821 q 522 882 522 821 l 522 903 l 561 903 l 561 889 q 531 815 561 842 q 444 790 500 789 m 289 -135 q 263 -124 274 -135 q 253 -100 253 -114 q 263 -75 253 -85 q 289 -65 274 -65 q 315 -75 304 -65 q 326 -100 326 -85 q 315 -124 326 -114 q 289 -135 304 -135 z "},"Ừ":{"ha":579,"x_min":94,"x_max":563,"o":"m 289 -17 q 215 -10 250 -17 q 153 15 181 -4 q 110 69 125 33 q 94 163 94 104 l 94 821 l 144 821 l 144 157 q 165 69 144 99 q 218 28 185 39 q 289 18 251 18 q 361 28 328 18 q 415 69 394 39 q 435 157 435 99 l 435 821 l 485 821 l 485 163 q 469 69 485 104 q 427 15 454 33 q 364 -10 400 -4 q 289 -17 328 -17 m 444 790 l 439 821 l 453 821 q 522 882 522 821 l 522 903 l 561 903 l 561 889 q 531 815 561 842 q 444 790 500 789 m 307 879 l 175 986 l 236 986 l 347 879 l 307 879 z "},"Ử":{"ha":579,"x_min":94,"x_max":563,"o":"m 289 -17 q 215 -10 250 -17 q 153 15 181 -4 q 110 69 125 33 q 94 163 94 104 l 94 821 l 144 821 l 144 157 q 165 69 144 99 q 218 28 185 39 q 289 18 251 18 q 361 28 328 18 q 415 69 394 39 q 435 157 435 99 l 435 821 l 485 821 l 485 163 q 469 69 485 104 q 427 15 454 33 q 364 -10 400 -4 q 289 -17 328 -17 m 444 790 l 439 821 l 453 821 q 522 882 522 821 l 522 903 l 561 903 l 561 889 q 531 815 561 842 q 444 790 500 789 m 274 869 l 274 894 q 290 925 274 915 q 322 944 306 935 q 339 972 339 954 l 339 978 q 328 1006 339 993 q 292 1018 317 1018 q 251 983 258 1018 l 221 990 q 244 1029 226 1015 q 296 1043 263 1043 q 353 1027 333 1043 q 372 976 372 1011 l 372 974 q 355 932 372 944 q 321 912 338 919 q 304 888 304 904 l 304 869 l 274 869 z "},"Ữ":{"ha":579,"x_min":94,"x_max":563,"o":"m 289 -17 q 215 -10 250 -17 q 153 15 181 -4 q 110 69 125 33 q 94 163 94 104 l 94 821 l 144 821 l 144 157 q 165 69 144 99 q 218 28 185 39 q 289 18 251 18 q 361 28 328 18 q 415 69 394 39 q 435 157 435 99 l 435 821 l 485 821 l 485 163 q 469 69 485 104 q 427 15 454 33 q 364 -10 400 -4 q 289 -17 328 -17 m 444 790 l 439 821 l 453 821 q 522 882 522 821 l 522 903 l 561 903 l 561 889 q 531 815 561 842 q 444 790 500 789 m 344 889 q 316 894 328 889 q 285 914 304 900 q 261 930 275 921 q 231 939 247 939 q 202 928 214 939 q 186 890 190 917 l 158 890 q 180 947 161 925 q 231 969 199 969 q 263 962 247 969 q 293 943 278 954 q 319 927 308 933 q 344 921 331 921 q 374 932 363 921 q 389 968 385 943 l 418 968 q 407 926 417 944 q 381 899 397 908 q 344 889 365 889 z "},"Ű":{"ha":579,"x_min":94,"x_max":485,"o":"m 289 -17 q 215 -10 250 -17 q 153 15 181 -4 q 110 69 125 33 q 94 163 94 104 l 94 821 l 144 821 l 144 157 q 165 69 144 99 q 218 28 185 39 q 289 18 251 18 q 361 28 328 18 q 415 69 394 39 q 435 157 435 99 l 435 821 l 485 821 l 485 163 q 469 69 485 104 q 427 15 454 33 q 364 -10 400 -4 q 289 -17 328 -17 m 225 874 l 271 996 l 324 996 l 251 874 l 225 874 m 307 874 l 357 996 l 408 996 l 335 874 l 307 874 z "},"Ū":{"ha":579,"x_min":94,"x_max":485,"o":"m 289 -17 q 215 -10 250 -17 q 153 15 181 -4 q 110 69 125 33 q 94 163 94 104 l 94 821 l 144 821 l 144 157 q 165 69 144 99 q 218 28 185 39 q 289 18 251 18 q 361 28 328 18 q 415 69 394 39 q 435 157 435 99 l 435 821 l 485 821 l 485 163 q 469 69 485 104 q 427 15 454 33 q 364 -10 400 -4 q 289 -17 328 -17 m 167 908 l 167 939 l 411 939 l 411 908 l 167 908 z "},"Ų":{"ha":579,"x_min":94,"x_max":485,"o":"m 289 -17 q 215 -10 250 -17 q 153 15 181 -4 q 110 69 125 33 q 94 163 94 104 l 94 821 l 144 821 l 144 157 q 165 69 144 99 q 218 28 185 39 q 289 18 251 18 q 361 28 328 18 q 415 69 394 39 q 435 157 435 99 l 435 821 l 485 821 l 485 163 q 469 69 485 104 q 427 15 454 33 q 364 -10 400 -4 q 289 -17 328 -17 m 304 -182 q 244 -161 269 -182 q 218 -106 218 -140 q 244 -38 218 -65 q 299 0 271 -11 l 333 0 q 277 -44 297 -18 q 257 -99 257 -71 q 275 -140 257 -126 q 311 -154 293 -154 q 335 -151 325 -154 q 350 -144 344 -147 l 360 -167 q 338 -177 351 -172 q 304 -182 324 -182 z "},"Ů":{"ha":579,"x_min":94,"x_max":485,"o":"m 289 -17 q 215 -10 250 -17 q 153 15 181 -4 q 110 69 125 33 q 94 163 94 104 l 94 821 l 144 821 l 144 157 q 165 69 144 99 q 218 28 185 39 q 289 18 251 18 q 361 28 328 18 q 415 69 394 39 q 435 157 435 99 l 435 821 l 485 821 l 485 163 q 469 69 485 104 q 427 15 454 33 q 364 -10 400 -4 q 289 -17 328 -17 m 288 847 q 213 876 242 847 q 183 946 183 906 q 213 1017 183 988 q 288 1046 242 1046 q 365 1017 336 1046 q 393 946 393 988 q 362 876 393 906 q 288 847 331 847 m 288 878 q 340 897 321 878 q 360 946 360 917 q 340 997 360 978 q 288 1015 321 1015 q 235 997 254 1015 q 217 946 217 978 q 235 897 217 917 q 288 878 254 878 z "},"Ў":{"ha":414,"x_min":14,"x_max":400,"o":"m 85 -7 q 53 -5 68 -7 q 28 0 39 -3 l 28 32 q 45 29 35 31 q 69 28 56 28 q 107 35 88 28 q 143 61 126 42 q 162 94 154 75 q 175 138 169 113 l 14 821 l 67 821 l 208 196 l 207 196 l 351 821 l 400 821 l 244 164 q 188 32 221 71 q 85 -7 154 -7 m 206 875 q 131 894 158 875 q 92 942 104 914 q 79 992 81 969 l 113 992 q 144 927 119 949 q 206 906 169 906 q 269 926 244 906 q 300 992 294 947 l 333 992 q 319 941 332 968 q 278 894 306 914 q 206 875 251 875 z "},"Ũ":{"ha":579,"x_min":94,"x_max":485,"o":"m 289 -17 q 215 -10 250 -17 q 153 15 181 -4 q 110 69 125 33 q 94 163 94 104 l 94 821 l 144 821 l 144 157 q 165 69 144 99 q 218 28 185 39 q 289 18 251 18 q 361 28 328 18 q 415 69 394 39 q 435 157 435 99 l 435 821 l 485 821 l 485 163 q 469 69 485 104 q 427 15 454 33 q 364 -10 400 -4 q 289 -17 328 -17 m 344 889 q 316 894 328 889 q 285 914 304 900 q 261 930 275 921 q 231 939 247 939 q 202 928 214 939 q 186 890 190 917 l 158 890 q 180 947 161 925 q 231 969 199 969 q 263 962 247 969 q 293 943 278 954 q 319 927 308 933 q 344 921 331 921 q 374 932 363 921 q 389 968 385 943 l 418 968 q 407 926 417 944 q 381 899 397 908 q 344 889 365 889 z "},"V":{"ha":444,"x_min":32,"x_max":413,"o":"m 194 0 l 32 821 l 81 821 l 226 85 l 221 85 l 364 821 l 413 821 l 249 0 l 194 0 z "},"В":{"ha":576,"x_min":101,"x_max":496,"o":"m 101 0 l 101 821 l 336 821 q 444 790 400 821 q 488 686 488 760 l 488 583 q 476 513 488 543 q 446 465 465 483 q 397 439 425 444 q 351 433 368 433 l 351 436 q 410 430 382 436 q 454 406 438 424 q 485 357 474 386 q 496 289 496 328 l 496 167 q 474 60 496 96 q 414 13 453 25 q 324 0 375 0 l 101 0 m 153 33 l 318 33 q 385 43 357 33 q 429 83 414 53 q 444 172 444 113 l 444 292 q 403 388 444 364 q 303 411 363 411 l 153 411 l 153 33 m 153 449 l 300 449 q 403 483 368 449 q 439 576 439 517 l 439 676 q 406 760 439 733 q 329 788 374 788 l 153 788 l 153 449 z "},"W":{"ha":728,"x_min":32,"x_max":696,"o":"m 165 0 l 32 821 l 81 821 l 199 78 l 344 821 l 383 821 l 526 79 l 647 821 l 696 821 l 564 0 l 506 0 l 365 697 l 225 0 l 165 0 z "},"Ẃ":{"ha":728,"x_min":32,"x_max":696,"o":"m 165 0 l 32 821 l 81 821 l 199 78 l 344 821 l 383 821 l 526 79 l 647 821 l 696 821 l 564 0 l 506 0 l 365 697 l 225 0 l 165 0 m 307 879 l 419 988 l 479 988 l 346 879 l 307 879 z "},"Ŵ":{"ha":728,"x_min":32,"x_max":696,"o":"m 165 0 l 32 821 l 81 821 l 199 78 l 344 821 l 383 821 l 526 79 l 647 821 l 696 821 l 564 0 l 506 0 l 365 697 l 225 0 l 165 0 m 224 872 l 343 990 l 386 990 l 506 872 l 467 872 l 364 960 l 264 872 l 224 872 z "},"Ẅ":{"ha":728,"x_min":32,"x_max":696,"o":"m 165 0 l 32 821 l 81 821 l 199 78 l 344 821 l 383 821 l 526 79 l 647 821 l 696 821 l 564 0 l 506 0 l 365 697 l 225 0 l 165 0 m 306 890 q 281 901 292 890 q 271 926 271 911 q 281 950 271 940 q 306 960 292 960 q 331 950 321 960 q 342 926 342 940 q 331 901 342 911 q 306 890 321 890 m 425 890 q 399 901 410 890 q 389 926 389 911 q 399 950 389 940 q 425 960 410 960 q 449 950 439 960 q 460 926 460 940 q 449 901 460 911 q 425 890 439 890 z "},"Ẁ":{"ha":728,"x_min":32,"x_max":696,"o":"m 165 0 l 32 821 l 81 821 l 199 78 l 344 821 l 383 821 l 526 79 l 647 821 l 696 821 l 564 0 l 506 0 l 365 697 l 225 0 l 165 0 m 382 879 l 250 986 l 311 986 l 422 879 l 382 879 z "},"X":{"ha":413,"x_min":28,"x_max":383,"o":"m 28 0 l 165 415 l 42 821 l 90 821 l 206 439 l 335 821 l 383 821 l 247 414 l 381 0 l 331 0 l 206 383 l 81 0 l 28 0 z "},"Y":{"ha":424,"x_min":26,"x_max":394,"o":"m 181 0 l 181 365 l 26 821 l 81 821 l 204 438 l 207 422 l 211 438 l 344 821 l 394 821 l 231 363 l 231 0 l 181 0 z "},"Ý":{"ha":424,"x_min":26,"x_max":394,"o":"m 181 0 l 181 365 l 26 821 l 81 821 l 204 438 l 207 422 l 211 438 l 344 821 l 394 821 l 231 363 l 231 0 l 181 0 m 154 879 l 267 988 l 326 988 l 193 879 l 154 879 z "},"Ѣ":{"ha":554,"x_min":21,"x_max":489,"o":"m 122 0 l 122 818 l 172 818 l 172 604 l 318 604 q 420 584 383 604 q 473 524 457 564 q 489 425 489 485 l 489 199 q 480 110 489 147 q 451 48 471 72 q 399 12 432 24 q 317 0 367 0 l 122 0 m 172 33 l 310 33 q 393 55 365 33 q 430 115 421 76 q 439 201 439 153 l 439 411 q 431 488 439 453 q 396 547 424 524 q 307 569 368 569 l 172 569 l 172 33 m 21 717 l 21 751 l 414 751 l 414 717 l 21 717 z "},"Ŷ":{"ha":424,"x_min":26,"x_max":394,"o":"m 181 0 l 181 365 l 26 821 l 81 821 l 204 438 l 207 422 l 211 438 l 344 821 l 394 821 l 231 363 l 231 0 l 181 0 m 71 872 l 190 990 l 233 990 l 353 872 l 314 872 l 211 960 l 111 872 l 71 872 z "},"Ÿ":{"ha":424,"x_min":26,"x_max":394,"o":"m 181 0 l 181 365 l 26 821 l 81 821 l 204 438 l 207 422 l 211 438 l 344 821 l 394 821 l 231 363 l 231 0 l 181 0 m 153 890 q 128 901 139 890 q 118 926 118 911 q 128 950 118 940 q 153 960 139 960 q 178 950 168 960 q 189 926 189 940 q 178 901 189 911 q 153 890 168 890 m 272 890 q 247 901 257 890 q 236 926 236 911 q 247 950 236 940 q 272 960 257 960 q 297 950 286 960 q 307 926 307 940 q 297 901 307 911 q 272 890 286 890 z "},"Ỵ":{"ha":424,"x_min":26,"x_max":394,"o":"m 181 0 l 181 365 l 26 821 l 81 821 l 204 438 l 207 422 l 211 438 l 344 821 l 394 821 l 231 363 l 231 0 l 181 0 m 211 -135 q 185 -124 196 -135 q 175 -100 175 -114 q 185 -75 175 -85 q 211 -65 196 -65 q 238 -75 226 -65 q 249 -100 249 -85 q 238 -124 249 -114 q 211 -135 226 -135 z "},"Ы":{"ha":650,"x_min":65,"x_max":583,"o":"m 65 0 l 65 818 l 115 818 l 115 604 l 260 604 q 363 584 326 604 q 415 524 400 564 q 431 425 431 485 l 431 199 q 422 110 431 147 q 393 48 413 72 q 341 12 374 24 q 261 0 308 0 l 65 0 m 115 33 l 254 33 q 335 55 308 33 q 372 115 363 76 q 381 201 381 153 l 381 411 q 373 488 381 453 q 338 547 365 524 q 251 569 310 569 l 115 569 l 115 33 m 533 0 l 533 821 l 583 821 l 583 0 l 533 0 z "},"Ỳ":{"ha":424,"x_min":26,"x_max":394,"o":"m 181 0 l 181 365 l 26 821 l 81 821 l 204 438 l 207 422 l 211 438 l 344 821 l 394 821 l 231 363 l 231 0 l 181 0 m 229 879 l 97 986 l 158 986 l 269 879 l 229 879 z "},"Ỷ":{"ha":424,"x_min":26,"x_max":394,"o":"m 181 0 l 181 365 l 26 821 l 81 821 l 204 438 l 207 422 l 211 438 l 344 821 l 394 821 l 231 363 l 231 0 l 181 0 m 196 869 l 196 894 q 212 925 196 915 q 244 944 228 935 q 261 972 261 954 l 261 978 q 250 1006 261 993 q 214 1018 239 1018 q 174 983 181 1018 l 143 990 q 167 1029 149 1015 q 218 1043 185 1043 q 275 1027 256 1043 q 294 976 294 1011 l 294 974 q 277 932 294 944 q 243 912 260 919 q 226 888 226 904 l 226 869 l 196 869 z "},"Ї":{"ha":254,"x_min":32,"x_max":221,"o":"m 101 0 l 101 821 l 151 821 l 151 0 l 101 0 m 67 890 q 42 901 53 890 q 32 926 32 911 q 42 950 32 940 q 67 960 53 960 q 92 950 82 960 q 103 926 103 940 q 92 901 103 911 q 67 890 82 890 m 186 890 q 160 901 171 890 q 150 926 150 911 q 160 950 150 940 q 186 960 171 960 q 210 950 200 960 q 221 926 221 940 q 210 901 221 911 q 186 890 200 890 z "},"Ỹ":{"ha":424,"x_min":26,"x_max":394,"o":"m 181 0 l 181 365 l 26 821 l 81 821 l 204 438 l 207 422 l 211 438 l 344 821 l 394 821 l 231 363 l 231 0 l 181 0 m 268 889 q 240 894 251 889 q 208 914 228 900 q 185 930 199 921 q 154 939 171 939 q 126 928 138 939 q 110 890 114 917 l 82 890 q 103 947 85 925 q 154 969 122 969 q 186 962 171 969 q 217 943 201 954 q 243 927 232 933 q 268 921 254 921 q 297 932 286 921 q 313 968 308 943 l 342 968 q 331 926 340 944 q 305 899 321 908 q 268 889 289 889 z "},"Ѫ":{"ha":913,"x_min":35,"x_max":878,"o":"m 63 0 l 151 317 q 175 381 160 350 q 217 433 190 413 q 285 453 243 453 l 403 453 l 35 782 l 35 821 l 878 821 l 878 782 l 510 453 l 625 453 q 699 433 672 453 q 739 381 725 413 q 763 317 753 350 l 851 0 l 797 0 l 714 310 q 681 389 703 353 q 610 429 658 425 l 482 429 l 482 0 l 432 0 l 432 429 l 304 429 q 233 390 256 426 q 199 311 210 353 l 115 0 l 63 0 m 457 464 l 814 782 l 96 782 l 457 464 z "},"Z":{"ha":374,"x_min":29,"x_max":346,"o":"m 29 0 l 29 40 l 288 783 l 46 783 l 46 821 l 346 821 l 346 783 l 81 38 l 346 38 l 346 0 l 29 0 z "},"Ź":{"ha":374,"x_min":29,"x_max":346,"o":"m 29 0 l 29 40 l 288 783 l 46 783 l 46 821 l 346 821 l 346 783 l 81 38 l 346 38 l 346 0 l 29 0 m 147 879 l 260 988 l 319 988 l 186 879 l 147 879 z "},"Ž":{"ha":374,"x_min":29,"x_max":346,"o":"m 29 0 l 29 40 l 288 783 l 46 783 l 46 821 l 346 821 l 346 783 l 81 38 l 346 38 l 346 0 l 29 0 m 182 872 l 69 978 l 108 978 l 203 903 l 299 979 l 339 979 l 225 872 l 182 872 z "},"Ż":{"ha":374,"x_min":29,"x_max":346,"o":"m 29 0 l 29 40 l 288 783 l 46 783 l 46 821 l 346 821 l 346 783 l 81 38 l 346 38 l 346 0 l 29 0 m 207 892 q 181 903 192 892 q 169 929 169 914 q 181 955 169 944 q 207 965 192 965 q 233 955 222 965 q 244 929 244 944 q 233 903 244 914 q 207 892 222 892 z "},"З":{"ha":542,"x_min":61,"x_max":471,"o":"m 267 -11 q 146 16 190 -11 q 81 90 101 43 q 61 194 61 138 l 61 271 l 114 271 l 114 190 q 153 73 114 115 q 267 29 193 31 q 376 71 335 29 q 418 186 418 113 l 418 260 q 374 369 418 331 q 257 410 331 407 l 169 410 l 169 450 l 257 450 q 324 464 292 450 q 378 504 356 478 q 402 551 394 526 q 410 603 410 575 l 410 646 q 376 745 410 704 q 267 786 342 786 q 156 744 190 786 q 122 642 122 703 l 122 585 l 68 585 l 68 638 q 115 776 68 726 q 267 826 163 826 q 418 777 371 826 q 465 639 465 728 l 465 608 q 428 490 465 535 q 338 428 392 446 q 438 365 406 414 q 471 246 471 317 l 471 194 q 452 90 471 138 q 389 16 433 43 q 267 -11 344 -11 z "},"Ж":{"ha":829,"x_min":63,"x_max":768,"o":"m 63 0 l 301 425 l 72 821 l 129 821 l 347 440 l 390 440 l 390 819 l 442 819 l 442 440 l 485 440 l 700 821 l 760 821 l 531 425 l 768 0 l 707 0 l 485 406 l 442 406 l 442 0 l 390 0 l 390 406 l 346 406 l 122 0 l 63 0 z "},"a":{"ha":492,"x_min":67,"x_max":421,"o":"m 210 -10 q 147 -1 179 -10 q 90 41 114 7 q 67 147 67 75 l 67 201 q 110 318 67 275 q 224 396 153 361 q 305 442 272 422 q 355 485 338 461 q 372 547 372 510 l 372 572 q 355 633 372 613 q 310 661 338 654 q 253 668 283 668 q 153 630 176 668 q 129 521 129 592 l 129 463 l 83 463 l 83 525 q 97 616 83 576 q 147 678 111 656 q 253 701 183 701 q 364 683 328 701 q 410 631 400 664 q 421 557 421 597 l 421 0 l 372 0 l 371 90 q 307 15 351 40 q 210 -10 263 -10 m 224 26 q 335 78 300 26 q 371 215 371 131 l 371 457 q 315 408 353 431 q 238 365 276 386 q 147 298 179 333 q 115 201 115 263 l 115 156 q 133 66 115 93 q 176 33 150 39 q 224 26 201 26 z "},"а":{"ha":492,"x_min":67,"x_max":421,"o":"m 210 -10 q 147 -1 179 -10 q 90 41 114 7 q 67 147 67 75 l 67 201 q 110 318 67 275 q 224 396 153 361 q 305 442 272 422 q 355 485 338 461 q 372 547 372 510 l 372 572 q 355 633 372 613 q 310 661 338 654 q 253 668 283 668 q 153 630 176 668 q 129 521 129 592 l 129 463 l 83 463 l 83 525 q 97 616 83 576 q 147 678 111 656 q 253 701 183 701 q 364 683 328 701 q 410 631 400 664 q 421 557 421 597 l 421 0 l 372 0 l 371 90 q 307 15 351 40 q 210 -10 263 -10 m 224 26 q 335 78 300 26 q 371 215 371 131 l 371 457 q 315 408 353 431 q 238 365 276 386 q 147 298 179 333 q 115 201 115 263 l 115 156 q 133 66 115 93 q 176 33 150 39 q 224 26 201 26 z "},"á":{"ha":492,"x_min":67,"x_max":421,"o":"m 210 -10 q 147 -1 179 -10 q 90 41 114 7 q 67 147 67 75 l 67 201 q 110 318 67 275 q 224 396 153 361 q 305 442 272 422 q 355 485 338 461 q 372 547 372 510 l 372 572 q 355 633 372 613 q 310 661 338 654 q 253 668 283 668 q 153 630 176 668 q 129 521 129 592 l 129 463 l 83 463 l 83 525 q 97 616 83 576 q 147 678 111 656 q 253 701 183 701 q 364 683 328 701 q 410 631 400 664 q 421 557 421 597 l 421 0 l 372 0 l 371 90 q 307 15 351 40 q 210 -10 263 -10 m 224 26 q 335 78 300 26 q 371 215 371 131 l 371 457 q 315 408 353 431 q 238 365 276 386 q 147 298 179 333 q 115 201 115 263 l 115 156 q 133 66 115 93 q 176 33 150 39 q 224 26 201 26 m 210 757 l 288 879 l 347 879 l 242 757 l 210 757 z "},"ă":{"ha":492,"x_min":67,"x_max":421,"o":"m 210 -10 q 147 -1 179 -10 q 90 41 114 7 q 67 147 67 75 l 67 201 q 110 318 67 275 q 224 396 153 361 q 305 442 272 422 q 355 485 338 461 q 372 547 372 510 l 372 572 q 355 633 372 613 q 310 661 338 654 q 253 668 283 668 q 153 630 176 668 q 129 521 129 592 l 129 463 l 83 463 l 83 525 q 97 616 83 576 q 147 678 111 656 q 253 701 183 701 q 364 683 328 701 q 410 631 400 664 q 421 557 421 597 l 421 0 l 372 0 l 371 90 q 307 15 351 40 q 210 -10 263 -10 m 224 26 q 335 78 300 26 q 371 215 371 131 l 371 457 q 315 408 353 431 q 238 365 276 386 q 147 298 179 333 q 115 201 115 263 l 115 156 q 133 66 115 93 q 176 33 150 39 q 224 26 201 26 m 253 757 q 178 776 206 757 q 140 824 151 796 q 126 874 128 851 l 160 874 q 192 809 167 831 q 253 788 217 788 q 317 808 292 788 q 347 874 342 829 l 381 874 q 366 823 379 850 q 326 776 353 796 q 253 757 299 757 z "},"ắ":{"ha":492,"x_min":67,"x_max":421,"o":"m 210 -10 q 147 -1 179 -10 q 90 41 114 7 q 67 147 67 75 l 67 201 q 110 318 67 275 q 224 396 153 361 q 305 442 272 422 q 355 485 338 461 q 372 547 372 510 l 372 572 q 355 633 372 613 q 310 661 338 654 q 253 668 283 668 q 153 630 176 668 q 129 521 129 592 l 129 463 l 83 463 l 83 525 q 97 616 83 576 q 147 678 111 656 q 253 701 183 701 q 364 683 328 701 q 410 631 400 664 q 421 557 421 597 l 421 0 l 372 0 l 371 90 q 307 15 351 40 q 210 -10 263 -10 m 224 26 q 335 78 300 26 q 371 215 371 131 l 371 457 q 315 408 353 431 q 238 365 276 386 q 147 298 179 333 q 115 201 115 263 l 115 156 q 133 66 115 93 q 176 33 150 39 q 224 26 201 26 m 253 757 q 178 776 206 757 q 140 824 151 796 q 126 874 128 851 l 160 874 q 192 809 167 831 q 253 788 217 788 q 317 808 292 788 q 347 874 342 829 l 381 874 q 366 823 379 850 q 326 776 353 796 q 253 757 299 757 m 208 893 l 286 1015 l 346 1015 l 240 893 l 208 893 z "},"ặ":{"ha":492,"x_min":67,"x_max":421,"o":"m 210 -10 q 147 -1 179 -10 q 90 41 114 7 q 67 147 67 75 l 67 201 q 110 318 67 275 q 224 396 153 361 q 305 442 272 422 q 355 485 338 461 q 372 547 372 510 l 372 572 q 355 633 372 613 q 310 661 338 654 q 253 668 283 668 q 153 630 176 668 q 129 521 129 592 l 129 463 l 83 463 l 83 525 q 97 616 83 576 q 147 678 111 656 q 253 701 183 701 q 364 683 328 701 q 410 631 400 664 q 421 557 421 597 l 421 0 l 372 0 l 371 90 q 307 15 351 40 q 210 -10 263 -10 m 224 26 q 335 78 300 26 q 371 215 371 131 l 371 457 q 315 408 353 431 q 238 365 276 386 q 147 298 179 333 q 115 201 115 263 l 115 156 q 133 66 115 93 q 176 33 150 39 q 224 26 201 26 m 246 -135 q 220 -124 231 -135 q 210 -100 210 -114 q 220 -75 210 -85 q 246 -65 231 -65 q 272 -75 261 -65 q 283 -100 283 -85 q 272 -124 283 -114 q 246 -135 261 -135 m 253 757 q 178 776 206 757 q 140 824 151 796 q 126 874 128 851 l 160 874 q 192 809 167 831 q 253 788 217 788 q 317 808 292 788 q 347 874 342 829 l 381 874 q 366 823 379 850 q 326 776 353 796 q 253 757 299 757 z "},"ằ":{"ha":492,"x_min":67,"x_max":421,"o":"m 210 -10 q 147 -1 179 -10 q 90 41 114 7 q 67 147 67 75 l 67 201 q 110 318 67 275 q 224 396 153 361 q 305 442 272 422 q 355 485 338 461 q 372 547 372 510 l 372 572 q 355 633 372 613 q 310 661 338 654 q 253 668 283 668 q 153 630 176 668 q 129 521 129 592 l 129 463 l 83 463 l 83 525 q 97 616 83 576 q 147 678 111 656 q 253 701 183 701 q 364 683 328 701 q 410 631 400 664 q 421 557 421 597 l 421 0 l 372 0 l 371 90 q 307 15 351 40 q 210 -10 263 -10 m 224 26 q 335 78 300 26 q 371 215 371 131 l 371 457 q 315 408 353 431 q 238 365 276 386 q 147 298 179 333 q 115 201 115 263 l 115 156 q 133 66 115 93 q 176 33 150 39 q 224 26 201 26 m 253 757 q 178 776 206 757 q 140 824 151 796 q 126 874 128 851 l 160 874 q 192 809 167 831 q 253 788 217 788 q 317 808 292 788 q 347 874 342 829 l 381 874 q 366 823 379 850 q 326 776 353 796 q 253 757 299 757 m 265 893 l 160 1015 l 218 1015 l 297 893 l 265 893 z "},"ẳ":{"ha":492,"x_min":67,"x_max":421,"o":"m 210 -10 q 147 -1 179 -10 q 90 41 114 7 q 67 147 67 75 l 67 201 q 110 318 67 275 q 224 396 153 361 q 305 442 272 422 q 355 485 338 461 q 372 547 372 510 l 372 572 q 355 633 372 613 q 310 661 338 654 q 253 668 283 668 q 153 630 176 668 q 129 521 129 592 l 129 463 l 83 463 l 83 525 q 97 616 83 576 q 147 678 111 656 q 253 701 183 701 q 364 683 328 701 q 410 631 400 664 q 421 557 421 597 l 421 0 l 372 0 l 371 90 q 307 15 351 40 q 210 -10 263 -10 m 224 26 q 335 78 300 26 q 371 215 371 131 l 371 457 q 315 408 353 431 q 238 365 276 386 q 147 298 179 333 q 115 201 115 263 l 115 156 q 133 66 115 93 q 176 33 150 39 q 224 26 201 26 m 253 757 q 178 776 206 757 q 140 824 151 796 q 126 874 128 851 l 160 874 q 192 809 167 831 q 253 788 217 788 q 317 808 292 788 q 347 874 342 829 l 381 874 q 366 823 379 850 q 326 776 353 796 q 253 757 299 757 m 238 894 l 238 919 q 253 950 238 940 q 286 969 269 960 q 303 997 303 979 l 303 1003 q 292 1031 303 1018 q 256 1043 281 1043 q 215 1008 222 1043 l 185 1015 q 208 1054 190 1040 q 260 1068 226 1068 q 317 1052 297 1068 q 336 1001 336 1036 l 336 999 q 319 957 336 969 q 285 937 301 944 q 268 913 268 929 l 268 894 l 238 894 z "},"ẵ":{"ha":492,"x_min":67,"x_max":421,"o":"m 210 -10 q 147 -1 179 -10 q 90 41 114 7 q 67 147 67 75 l 67 201 q 110 318 67 275 q 224 396 153 361 q 305 442 272 422 q 355 485 338 461 q 372 547 372 510 l 372 572 q 355 633 372 613 q 310 661 338 654 q 253 668 283 668 q 153 630 176 668 q 129 521 129 592 l 129 463 l 83 463 l 83 525 q 97 616 83 576 q 147 678 111 656 q 253 701 183 701 q 364 683 328 701 q 410 631 400 664 q 421 557 421 597 l 421 0 l 372 0 l 371 90 q 307 15 351 40 q 210 -10 263 -10 m 224 26 q 335 78 300 26 q 371 215 371 131 l 371 457 q 315 408 353 431 q 238 365 276 386 q 147 298 179 333 q 115 201 115 263 l 115 156 q 133 66 115 93 q 176 33 150 39 q 224 26 201 26 m 253 757 q 178 776 206 757 q 140 824 151 796 q 126 874 128 851 l 160 874 q 192 809 167 831 q 253 788 217 788 q 317 808 292 788 q 347 874 342 829 l 381 874 q 366 823 379 850 q 326 776 353 796 q 253 757 299 757 m 310 907 q 281 913 293 907 q 250 932 269 918 q 226 948 240 939 q 196 957 213 957 q 167 946 179 957 q 151 908 156 935 l 124 908 q 145 965 126 943 q 196 988 164 988 q 228 980 213 988 q 258 961 243 972 q 285 945 274 951 q 310 939 296 939 q 339 950 328 939 q 354 986 350 961 l 383 986 q 372 944 382 963 q 347 917 363 926 q 310 907 331 907 z "},"ǎ":{"ha":492,"x_min":67,"x_max":421,"o":"m 210 -10 q 147 -1 179 -10 q 90 41 114 7 q 67 147 67 75 l 67 201 q 110 318 67 275 q 224 396 153 361 q 305 442 272 422 q 355 485 338 461 q 372 547 372 510 l 372 572 q 355 633 372 613 q 310 661 338 654 q 253 668 283 668 q 153 630 176 668 q 129 521 129 592 l 129 463 l 83 463 l 83 525 q 97 616 83 576 q 147 678 111 656 q 253 701 183 701 q 364 683 328 701 q 410 631 400 664 q 421 557 421 597 l 421 0 l 372 0 l 371 90 q 307 15 351 40 q 210 -10 263 -10 m 224 26 q 335 78 300 26 q 371 215 371 131 l 371 457 q 315 408 353 431 q 238 365 276 386 q 147 298 179 333 q 115 201 115 263 l 115 156 q 133 66 115 93 q 176 33 150 39 q 224 26 201 26 m 232 760 l 113 878 l 153 878 l 253 789 l 357 878 l 394 878 l 275 760 l 232 760 z "},"â":{"ha":492,"x_min":67,"x_max":421,"o":"m 210 -10 q 147 -1 179 -10 q 90 41 114 7 q 67 147 67 75 l 67 201 q 110 318 67 275 q 224 396 153 361 q 305 442 272 422 q 355 485 338 461 q 372 547 372 510 l 372 572 q 355 633 372 613 q 310 661 338 654 q 253 668 283 668 q 153 630 176 668 q 129 521 129 592 l 129 463 l 83 463 l 83 525 q 97 616 83 576 q 147 678 111 656 q 253 701 183 701 q 364 683 328 701 q 410 631 400 664 q 421 557 421 597 l 421 0 l 372 0 l 371 90 q 307 15 351 40 q 210 -10 263 -10 m 224 26 q 335 78 300 26 q 371 215 371 131 l 371 457 q 315 408 353 431 q 238 365 276 386 q 147 298 179 333 q 115 201 115 263 l 115 156 q 133 66 115 93 q 176 33 150 39 q 224 26 201 26 m 113 760 l 232 878 l 275 878 l 394 760 l 357 760 l 253 849 l 151 760 l 113 760 z "},"ấ":{"ha":492,"x_min":67,"x_max":529,"o":"m 210 -10 q 147 -1 179 -10 q 90 41 114 7 q 67 147 67 75 l 67 201 q 110 318 67 275 q 224 396 153 361 q 305 442 272 422 q 355 485 338 461 q 372 547 372 510 l 372 572 q 355 633 372 613 q 310 661 338 654 q 253 668 283 668 q 153 630 176 668 q 129 521 129 592 l 129 463 l 83 463 l 83 525 q 97 616 83 576 q 147 678 111 656 q 253 701 183 701 q 364 683 328 701 q 410 631 400 664 q 421 557 421 597 l 421 0 l 372 0 l 371 90 q 307 15 351 40 q 210 -10 263 -10 m 224 26 q 335 78 300 26 q 371 215 371 131 l 371 457 q 315 408 353 431 q 238 365 276 386 q 147 298 179 333 q 115 201 115 263 l 115 156 q 133 66 115 93 q 176 33 150 39 q 224 26 201 26 m 113 760 l 232 878 l 275 878 l 394 760 l 357 760 l 253 849 l 151 760 l 113 760 m 392 829 l 469 951 l 529 951 l 424 829 l 392 829 z "},"ậ":{"ha":492,"x_min":67,"x_max":421,"o":"m 210 -10 q 147 -1 179 -10 q 90 41 114 7 q 67 147 67 75 l 67 201 q 110 318 67 275 q 224 396 153 361 q 305 442 272 422 q 355 485 338 461 q 372 547 372 510 l 372 572 q 355 633 372 613 q 310 661 338 654 q 253 668 283 668 q 153 630 176 668 q 129 521 129 592 l 129 463 l 83 463 l 83 525 q 97 616 83 576 q 147 678 111 656 q 253 701 183 701 q 364 683 328 701 q 410 631 400 664 q 421 557 421 597 l 421 0 l 372 0 l 371 90 q 307 15 351 40 q 210 -10 263 -10 m 224 26 q 335 78 300 26 q 371 215 371 131 l 371 457 q 315 408 353 431 q 238 365 276 386 q 147 298 179 333 q 115 201 115 263 l 115 156 q 133 66 115 93 q 176 33 150 39 q 224 26 201 26 m 246 -135 q 220 -124 231 -135 q 210 -100 210 -114 q 220 -75 210 -85 q 246 -65 231 -65 q 272 -75 261 -65 q 283 -100 283 -85 q 272 -124 283 -114 q 246 -135 261 -135 m 113 760 l 232 878 l 275 878 l 394 760 l 357 760 l 253 849 l 151 760 l 113 760 z "},"ầ":{"ha":492,"x_min":67,"x_max":481,"o":"m 210 -10 q 147 -1 179 -10 q 90 41 114 7 q 67 147 67 75 l 67 201 q 110 318 67 275 q 224 396 153 361 q 305 442 272 422 q 355 485 338 461 q 372 547 372 510 l 372 572 q 355 633 372 613 q 310 661 338 654 q 253 668 283 668 q 153 630 176 668 q 129 521 129 592 l 129 463 l 83 463 l 83 525 q 97 616 83 576 q 147 678 111 656 q 253 701 183 701 q 364 683 328 701 q 410 631 400 664 q 421 557 421 597 l 421 0 l 372 0 l 371 90 q 307 15 351 40 q 210 -10 263 -10 m 224 26 q 335 78 300 26 q 371 215 371 131 l 371 457 q 315 408 353 431 q 238 365 276 386 q 147 298 179 333 q 115 201 115 263 l 115 156 q 133 66 115 93 q 176 33 150 39 q 224 26 201 26 m 113 760 l 232 878 l 275 878 l 394 760 l 357 760 l 253 849 l 151 760 l 113 760 m 449 829 l 343 951 l 401 951 l 481 829 l 449 829 z "},"ẩ":{"ha":492,"x_min":67,"x_max":521,"o":"m 210 -10 q 147 -1 179 -10 q 90 41 114 7 q 67 147 67 75 l 67 201 q 110 318 67 275 q 224 396 153 361 q 305 442 272 422 q 355 485 338 461 q 372 547 372 510 l 372 572 q 355 633 372 613 q 310 661 338 654 q 253 668 283 668 q 153 630 176 668 q 129 521 129 592 l 129 463 l 83 463 l 83 525 q 97 616 83 576 q 147 678 111 656 q 253 701 183 701 q 364 683 328 701 q 410 631 400 664 q 421 557 421 597 l 421 0 l 372 0 l 371 90 q 307 15 351 40 q 210 -10 263 -10 m 224 26 q 335 78 300 26 q 371 215 371 131 l 371 457 q 315 408 353 431 q 238 365 276 386 q 147 298 179 333 q 115 201 115 263 l 115 156 q 133 66 115 93 q 176 33 150 39 q 224 26 201 26 m 113 760 l 232 878 l 275 878 l 394 760 l 357 760 l 253 849 l 151 760 l 113 760 m 421 831 l 421 856 q 437 886 421 876 q 469 906 453 896 q 486 933 486 915 l 486 939 q 475 967 486 954 q 439 979 464 979 q 399 944 406 979 l 368 951 q 392 990 374 976 q 443 1004 410 1004 q 500 988 481 1004 q 519 938 519 972 l 519 935 q 502 893 519 906 q 468 873 485 881 q 451 849 451 865 l 451 831 l 421 831 z "},"ẫ":{"ha":492,"x_min":67,"x_max":421,"o":"m 210 -10 q 147 -1 179 -10 q 90 41 114 7 q 67 147 67 75 l 67 201 q 110 318 67 275 q 224 396 153 361 q 305 442 272 422 q 355 485 338 461 q 372 547 372 510 l 372 572 q 355 633 372 613 q 310 661 338 654 q 253 668 283 668 q 153 630 176 668 q 129 521 129 592 l 129 463 l 83 463 l 83 525 q 97 616 83 576 q 147 678 111 656 q 253 701 183 701 q 364 683 328 701 q 410 631 400 664 q 421 557 421 597 l 421 0 l 372 0 l 371 90 q 307 15 351 40 q 210 -10 263 -10 m 224 26 q 335 78 300 26 q 371 215 371 131 l 371 457 q 315 408 353 431 q 238 365 276 386 q 147 298 179 333 q 115 201 115 263 l 115 156 q 133 66 115 93 q 176 33 150 39 q 224 26 201 26 m 113 760 l 232 878 l 275 878 l 394 760 l 357 760 l 253 849 l 151 760 l 113 760 m 308 907 q 280 913 292 907 q 249 932 268 918 q 225 948 239 939 q 194 957 211 957 q 166 946 178 957 q 150 908 154 935 l 122 908 q 144 965 125 943 q 194 988 163 988 q 226 980 211 988 q 257 961 242 972 q 283 945 272 951 q 308 939 294 939 q 338 950 326 939 q 353 986 349 961 l 382 986 q 371 944 381 963 q 345 917 361 926 q 308 907 329 907 z "},"´":{"ha":160,"x_min":0,"x_max":138,"o":"m 0 757 l 78 879 l 138 879 l 32 757 l 0 757 z "},"́":{"ha":0,"x_min":0,"x_max":138,"o":"m 0 757 l 78 879 l 138 879 l 32 757 l 0 757 z "},"ä":{"ha":492,"x_min":67,"x_max":421,"o":"m 210 -10 q 147 -1 179 -10 q 90 41 114 7 q 67 147 67 75 l 67 201 q 110 318 67 275 q 224 396 153 361 q 305 442 272 422 q 355 485 338 461 q 372 547 372 510 l 372 572 q 355 633 372 613 q 310 661 338 654 q 253 668 283 668 q 153 630 176 668 q 129 521 129 592 l 129 463 l 83 463 l 83 525 q 97 616 83 576 q 147 678 111 656 q 253 701 183 701 q 364 683 328 701 q 410 631 400 664 q 421 557 421 597 l 421 0 l 372 0 l 371 90 q 307 15 351 40 q 210 -10 263 -10 m 224 26 q 335 78 300 26 q 371 215 371 131 l 371 457 q 315 408 353 431 q 238 365 276 386 q 147 298 179 333 q 115 201 115 263 l 115 156 q 133 66 115 93 q 176 33 150 39 q 224 26 201 26 m 194 776 q 170 787 181 776 q 160 813 160 797 q 170 836 160 826 q 194 846 181 846 q 220 836 210 846 q 231 813 231 826 q 220 787 231 797 q 194 776 210 776 m 314 776 q 288 787 299 776 q 278 813 278 797 q 288 836 278 826 q 314 846 299 846 q 338 836 328 846 q 349 813 349 826 q 338 787 349 797 q 314 776 328 776 z "},"ạ":{"ha":492,"x_min":67,"x_max":421,"o":"m 210 -10 q 147 -1 179 -10 q 90 41 114 7 q 67 147 67 75 l 67 201 q 110 318 67 275 q 224 396 153 361 q 305 442 272 422 q 355 485 338 461 q 372 547 372 510 l 372 572 q 355 633 372 613 q 310 661 338 654 q 253 668 283 668 q 153 630 176 668 q 129 521 129 592 l 129 463 l 83 463 l 83 525 q 97 616 83 576 q 147 678 111 656 q 253 701 183 701 q 364 683 328 701 q 410 631 400 664 q 421 557 421 597 l 421 0 l 372 0 l 371 90 q 307 15 351 40 q 210 -10 263 -10 m 224 26 q 335 78 300 26 q 371 215 371 131 l 371 457 q 315 408 353 431 q 238 365 276 386 q 147 298 179 333 q 115 201 115 263 l 115 156 q 133 66 115 93 q 176 33 150 39 q 224 26 201 26 m 246 -135 q 220 -124 231 -135 q 210 -100 210 -114 q 220 -75 210 -85 q 246 -65 231 -65 q 272 -75 261 -65 q 283 -100 283 -85 q 272 -124 283 -114 q 246 -135 261 -135 z "},"æ":{"ha":776,"x_min":67,"x_max":719,"o":"m 210 -4 q 165 -1 189 -4 q 118 18 140 3 q 81 65 96 33 q 67 154 67 97 l 67 208 q 108 316 67 274 q 213 390 149 358 q 301 440 265 418 q 354 485 336 463 q 372 533 372 507 l 372 572 q 355 633 372 613 q 310 661 338 654 q 253 668 283 668 q 153 630 176 668 q 129 521 129 592 l 129 463 l 83 463 l 83 525 q 97 616 83 576 q 147 678 111 656 q 253 701 183 701 q 357 681 324 701 q 401 629 390 661 q 411 557 411 597 l 411 74 l 383 118 q 316 23 363 50 q 210 -4 269 -4 m 224 32 q 335 81 300 32 q 371 215 371 131 l 371 457 q 313 407 353 429 q 231 361 274 385 q 145 295 175 329 q 115 206 115 261 l 115 160 q 133 72 115 100 q 176 38 150 44 q 224 32 201 32 m 546 -3 q 466 4 499 -3 q 413 29 433 11 q 384 83 393 47 q 375 174 375 118 l 375 533 q 414 664 375 626 q 546 701 453 701 q 681 665 643 701 q 719 533 719 629 l 719 360 l 422 360 l 422 163 q 432 82 422 111 q 468 42 442 53 q 544 32 494 32 q 622 44 594 32 q 659 86 649 56 q 669 171 669 117 l 669 240 l 719 240 l 719 183 q 710 90 719 126 q 681 34 701 54 q 627 6 660 14 q 546 -3 594 -3 m 422 393 l 669 393 l 669 535 q 646 636 669 604 q 546 668 622 668 q 447 636 472 668 q 422 535 422 604 l 422 393 z "},"à":{"ha":492,"x_min":67,"x_max":421,"o":"m 210 -10 q 147 -1 179 -10 q 90 41 114 7 q 67 147 67 75 l 67 201 q 110 318 67 275 q 224 396 153 361 q 305 442 272 422 q 355 485 338 461 q 372 547 372 510 l 372 572 q 355 633 372 613 q 310 661 338 654 q 253 668 283 668 q 153 630 176 668 q 129 521 129 592 l 129 463 l 83 463 l 83 525 q 97 616 83 576 q 147 678 111 656 q 253 701 183 701 q 364 683 328 701 q 410 631 400 664 q 421 557 421 597 l 421 0 l 372 0 l 371 90 q 307 15 351 40 q 210 -10 263 -10 m 224 26 q 335 78 300 26 q 371 215 371 131 l 371 457 q 315 408 353 431 q 238 365 276 386 q 147 298 179 333 q 115 201 115 263 l 115 156 q 133 66 115 93 q 176 33 150 39 q 224 26 201 26 m 267 757 l 161 879 l 219 879 l 299 757 l 267 757 z "},"ả":{"ha":492,"x_min":67,"x_max":421,"o":"m 210 -10 q 147 -1 179 -10 q 90 41 114 7 q 67 147 67 75 l 67 201 q 110 318 67 275 q 224 396 153 361 q 305 442 272 422 q 355 485 338 461 q 372 547 372 510 l 372 572 q 355 633 372 613 q 310 661 338 654 q 253 668 283 668 q 153 630 176 668 q 129 521 129 592 l 129 463 l 83 463 l 83 525 q 97 616 83 576 q 147 678 111 656 q 253 701 183 701 q 364 683 328 701 q 410 631 400 664 q 421 557 421 597 l 421 0 l 372 0 l 371 90 q 307 15 351 40 q 210 -10 263 -10 m 224 26 q 335 78 300 26 q 371 215 371 131 l 371 457 q 315 408 353 431 q 238 365 276 386 q 147 298 179 333 q 115 201 115 263 l 115 156 q 133 66 115 93 q 176 33 150 39 q 224 26 201 26 m 239 758 l 239 783 q 255 814 239 804 q 288 833 271 824 q 304 861 304 843 l 304 867 q 293 894 304 882 q 257 907 282 907 q 217 872 224 907 l 186 879 q 210 918 192 904 q 261 932 228 932 q 318 916 299 932 q 338 865 338 900 l 338 863 q 320 821 338 833 q 286 801 303 808 q 269 776 269 793 l 269 758 l 239 758 z "},"ā":{"ha":492,"x_min":67,"x_max":421,"o":"m 210 -10 q 147 -1 179 -10 q 90 41 114 7 q 67 147 67 75 l 67 201 q 110 318 67 275 q 224 396 153 361 q 305 442 272 422 q 355 485 338 461 q 372 547 372 510 l 372 572 q 355 633 372 613 q 310 661 338 654 q 253 668 283 668 q 153 630 176 668 q 129 521 129 592 l 129 463 l 83 463 l 83 525 q 97 616 83 576 q 147 678 111 656 q 253 701 183 701 q 364 683 328 701 q 410 631 400 664 q 421 557 421 597 l 421 0 l 372 0 l 371 90 q 307 15 351 40 q 210 -10 263 -10 m 224 26 q 335 78 300 26 q 371 215 371 131 l 371 457 q 315 408 353 431 q 238 365 276 386 q 147 298 179 333 q 115 201 115 263 l 115 156 q 133 66 115 93 q 176 33 150 39 q 224 26 201 26 m 132 790 l 132 821 l 376 821 l 376 790 l 132 790 z "},"&":{"ha":679,"x_min":64,"x_max":615,"o":"m 267 -11 q 146 18 190 -11 q 83 99 101 47 q 64 218 64 150 q 99 362 64 308 q 197 435 133 415 q 172 481 185 449 q 160 558 160 514 q 200 664 160 625 q 326 703 240 703 q 401 697 368 703 q 455 685 433 692 q 485 672 476 678 l 485 629 q 456 639 479 632 q 401 653 433 646 q 333 660 369 660 q 253 639 281 660 q 217 587 225 618 q 215 521 208 556 q 240 457 222 486 q 267 422 247 446 q 310 369 286 399 q 359 312 335 340 q 403 263 383 283 q 429 233 422 242 l 429 393 l 615 393 l 615 354 l 472 354 q 472 278 472 307 q 471 231 471 249 q 469 192 471 213 q 554 104 515 143 q 615 51 593 65 l 615 -3 q 553 41 596 1 q 458 135 510 81 q 415 42 446 74 q 344 -1 383 10 q 267 -11 304 -11 m 268 26 q 378 66 338 26 q 421 172 418 106 q 308 298 364 236 q 222 397 253 360 q 142 342 172 383 q 111 217 111 301 q 154 74 111 121 q 268 26 197 26 z "},"ą":{"ha":492,"x_min":67,"x_max":449,"o":"m 210 -10 q 147 -1 179 -10 q 90 41 114 7 q 67 147 67 75 l 67 201 q 110 318 67 275 q 224 396 153 361 q 305 442 272 422 q 355 485 338 461 q 372 547 372 510 l 372 572 q 355 633 372 613 q 310 661 338 654 q 253 668 283 668 q 153 630 176 668 q 129 521 129 592 l 129 463 l 83 463 l 83 525 q 97 616 83 576 q 147 678 111 656 q 253 701 183 701 q 364 683 328 701 q 410 631 400 664 q 421 557 421 597 l 421 0 l 372 0 l 371 90 q 307 15 351 40 q 210 -10 263 -10 m 224 26 q 335 78 300 26 q 371 215 371 131 l 371 457 q 315 408 353 431 q 238 365 276 386 q 147 298 179 333 q 115 201 115 263 l 115 156 q 133 66 115 93 q 176 33 150 39 q 224 26 201 26 m 393 -182 q 333 -161 358 -182 q 307 -106 307 -140 q 333 -38 307 -65 q 388 0 360 -11 l 422 0 q 366 -44 386 -18 q 346 -99 346 -71 q 364 -140 346 -126 q 400 -154 382 -154 q 424 -151 414 -154 q 439 -144 433 -147 l 449 -167 q 426 -177 440 -172 q 393 -182 413 -182 z "},"≈":{"ha":650,"x_min":65,"x_max":582,"o":"m 454 463 q 367 476 410 463 q 282 503 325 489 q 189 517 239 517 q 128 499 151 517 q 104 458 104 482 l 65 458 q 90 516 71 496 q 138 546 110 536 q 196 556 165 556 q 281 543 239 556 q 367 517 322 531 q 464 504 413 504 q 519 521 497 504 q 542 558 540 538 l 582 558 q 558 499 579 521 q 510 470 538 478 q 454 463 482 463 m 454 175 q 367 190 410 175 q 282 217 325 204 q 189 231 239 231 q 128 213 151 231 q 104 171 104 196 l 65 171 q 90 229 71 208 q 138 260 110 250 q 196 269 165 269 q 281 257 239 269 q 367 231 322 244 q 464 218 413 218 q 519 235 497 218 q 542 274 540 251 l 582 274 q 558 213 579 235 q 510 183 538 192 q 454 175 482 175 z "},"å":{"ha":492,"x_min":67,"x_max":421,"o":"m 210 -10 q 147 -1 179 -10 q 90 41 114 7 q 67 147 67 75 l 67 201 q 110 318 67 275 q 224 396 153 361 q 305 442 272 422 q 355 485 338 461 q 372 547 372 510 l 372 572 q 355 633 372 613 q 310 661 338 654 q 253 668 283 668 q 153 630 176 668 q 129 521 129 592 l 129 463 l 83 463 l 83 525 q 97 616 83 576 q 147 678 111 656 q 253 701 183 701 q 364 683 328 701 q 410 631 400 664 q 421 557 421 597 l 421 0 l 372 0 l 371 90 q 307 15 351 40 q 210 -10 263 -10 m 224 26 q 335 78 300 26 q 371 215 371 131 l 371 457 q 315 408 353 431 q 238 365 276 386 q 147 298 179 333 q 115 201 115 263 l 115 156 q 133 66 115 93 q 176 33 150 39 q 224 26 201 26 m 253 756 q 178 785 207 756 q 149 854 149 814 q 178 925 149 896 q 253 954 207 954 q 330 925 301 954 q 358 854 358 896 q 327 785 358 814 q 253 756 296 756 m 253 786 q 306 806 286 786 q 325 854 325 825 q 306 905 325 886 q 253 924 286 924 q 201 905 219 924 q 182 854 182 886 q 201 806 182 825 q 253 786 219 786 z "},"^":{"ha":529,"x_min":65,"x_max":464,"o":"m 65 688 l 249 925 l 282 925 l 464 688 l 410 688 l 261 874 l 121 688 l 65 688 z "},"~":{"ha":650,"x_min":65,"x_max":582,"o":"m 454 708 q 367 722 410 708 q 282 749 325 735 q 189 763 239 763 q 128 745 151 763 q 104 704 104 728 l 65 704 q 90 762 71 740 q 138 793 110 783 q 196 803 165 803 q 281 790 239 803 q 367 763 322 776 q 464 750 413 750 q 519 767 497 750 q 542 804 540 783 l 582 804 q 558 746 579 767 q 510 717 538 725 q 454 708 482 708 z "},"*":{"ha":747,"x_min":68,"x_max":674,"o":"m 218 153 l 163 192 l 356 419 l 68 485 l 89 551 l 363 433 l 338 729 l 406 729 l 381 433 l 653 550 l 674 488 l 386 419 l 579 193 l 525 154 l 374 407 l 218 153 z "},"@":{"ha":976,"x_min":69,"x_max":907,"o":"m 482 -89 q 233 -38 324 -89 q 106 110 143 13 q 69 349 69 208 q 167 699 69 574 q 483 824 265 824 q 701 782 606 824 q 851 649 796 740 q 907 411 907 558 q 889 262 907 332 q 833 147 871 192 q 732 101 794 101 q 661 127 686 101 q 627 185 636 153 q 617 242 618 218 l 635 249 q 556 160 606 186 q 453 135 507 135 q 349 163 388 135 q 311 268 311 192 q 328 336 311 308 q 384 387 344 364 q 493 431 424 410 q 550 449 525 439 q 590 471 575 460 q 607 493 603 481 q 611 519 611 506 q 584 578 611 556 q 496 601 557 601 q 397 576 426 601 q 368 503 368 551 l 368 461 l 325 461 l 325 503 q 341 576 325 546 q 395 621 357 606 q 497 636 433 636 q 594 621 560 636 q 644 574 629 606 q 658 494 658 542 l 658 243 q 681 160 658 186 q 739 135 704 135 q 801 163 772 135 q 849 251 831 190 q 867 410 867 311 q 827 610 867 524 q 704 744 788 696 q 493 793 621 793 q 281 750 367 793 q 152 609 196 707 q 108 344 108 511 q 136 140 108 219 q 215 18 164 61 q 335 -42 265 -25 q 486 -58 404 -58 q 555 -54 514 -58 q 642 -42 596 -50 q 731 -24 688 -35 q 803 3 774 -12 l 803 -35 q 732 -58 778 -44 q 624 -80 686 -71 q 482 -89 561 -89 m 467 171 q 544 190 511 171 q 597 238 578 210 q 615 293 615 267 l 615 439 q 564 419 597 429 q 497 396 531 408 q 415 359 446 376 q 371 320 385 342 q 357 261 357 299 q 384 191 357 211 q 467 171 411 171 z "},"ã":{"ha":492,"x_min":67,"x_max":421,"o":"m 210 -10 q 147 -1 179 -10 q 90 41 114 7 q 67 147 67 75 l 67 201 q 110 318 67 275 q 224 396 153 361 q 305 442 272 422 q 355 485 338 461 q 372 547 372 510 l 372 572 q 355 633 372 613 q 310 661 338 654 q 253 668 283 668 q 153 630 176 668 q 129 521 129 592 l 129 463 l 83 463 l 83 525 q 97 616 83 576 q 147 678 111 656 q 253 701 183 701 q 364 683 328 701 q 410 631 400 664 q 421 557 421 597 l 421 0 l 372 0 l 371 90 q 307 15 351 40 q 210 -10 263 -10 m 224 26 q 335 78 300 26 q 371 215 371 131 l 371 457 q 315 408 353 431 q 238 365 276 386 q 147 298 179 333 q 115 201 115 263 l 115 156 q 133 66 115 93 q 176 33 150 39 q 224 26 201 26 m 311 771 q 283 776 294 771 q 251 796 271 782 q 228 812 242 803 q 197 821 214 821 q 169 810 181 821 q 153 772 157 799 l 125 772 q 147 829 128 807 q 197 851 165 851 q 229 844 214 851 q 260 825 244 836 q 286 809 275 815 q 311 803 297 803 q 340 814 329 803 q 356 850 351 825 l 385 850 q 374 808 383 826 q 348 781 364 790 q 311 771 332 771 z "},"b":{"ha":497,"x_min":83,"x_max":433,"o":"m 264 -10 q 167 13 197 -10 q 124 65 138 35 l 121 0 l 83 0 l 83 875 l 133 875 l 133 629 q 185 683 150 668 q 269 699 219 699 q 378 674 343 699 q 423 608 413 649 q 433 521 433 568 l 433 178 q 428 106 433 140 q 406 47 424 72 q 355 6 389 21 q 264 -10 321 -10 m 258 26 q 333 40 307 26 q 369 76 358 53 q 382 126 381 99 q 383 183 383 154 l 383 508 q 382 564 383 536 q 369 614 381 592 q 333 650 358 636 q 258 664 307 664 q 160 629 188 664 q 133 529 133 594 l 133 219 q 135 153 133 188 q 147 91 136 119 q 184 44 158 63 q 258 26 210 26 z "},"\\":{"ha":672,"x_min":67,"x_max":589,"o":"m 544 -64 l 67 876 l 114 876 l 589 -64 l 544 -64 z "},"|":{"ha":276,"x_min":115,"x_max":161,"o":"m 115 -339 l 115 876 l 161 876 l 161 -339 l 115 -339 z "},"б":{"ha":493,"x_min":64,"x_max":429,"o":"m 246 -10 q 138 12 176 -10 q 81 76 99 33 q 64 183 64 119 l 64 689 q 85 792 64 757 q 142 840 106 826 q 229 853 179 853 q 281 856 257 853 q 322 865 304 860 q 352 876 339 869 q 372 889 365 883 l 372 856 q 342 830 372 846 q 257 814 313 814 l 233 814 q 172 805 199 814 q 131 768 146 796 q 113 689 115 740 l 113 564 q 163 610 126 592 q 258 629 200 629 q 361 608 325 629 q 413 547 397 588 q 429 447 429 507 l 429 192 q 421 103 429 140 q 392 40 413 65 q 336 2 372 14 q 246 -10 300 -10 m 247 25 q 335 47 307 25 q 372 106 363 69 q 381 186 381 143 l 381 439 q 372 514 381 479 q 337 570 364 549 q 249 592 310 592 q 170 578 199 592 q 129 544 142 565 q 115 500 117 522 q 113 461 113 478 l 113 186 q 122 106 113 143 q 158 47 131 69 q 247 25 186 25 z "},"{":{"ha":411,"x_min":74,"x_max":306,"o":"m 306 -190 q 208 -159 247 -182 q 151 -99 169 -136 q 132 -12 132 -61 q 144 59 132 25 q 173 124 157 93 q 202 189 189 156 q 215 258 215 222 q 194 311 215 289 q 140 347 172 333 q 74 361 107 360 l 74 381 q 138 394 106 383 q 192 428 171 406 q 214 485 214 451 q 201 553 214 521 q 173 616 189 585 q 144 681 157 647 q 132 754 132 715 q 150 838 132 804 q 206 892 168 872 q 306 922 243 913 l 306 885 q 243 867 271 879 q 200 830 215 856 q 185 754 185 804 q 196 681 185 714 q 222 617 207 647 q 249 556 238 588 q 260 483 260 524 q 249 441 260 463 q 217 401 239 419 q 160 372 194 383 q 235 324 211 354 q 260 258 260 294 q 249 186 260 218 q 222 124 238 154 q 196 63 207 94 q 185 -11 185 31 q 201 -90 185 -61 q 245 -134 218 -119 q 306 -154 272 -149 l 306 -190 z "},"}":{"ha":411,"x_min":104,"x_max":338,"o":"m 104 -190 l 104 -154 q 165 -134 138 -149 q 209 -90 193 -119 q 225 -11 225 -61 q 214 63 225 31 q 188 124 203 94 q 163 186 174 154 q 151 258 151 218 q 176 324 151 294 q 251 372 200 354 q 194 401 217 383 q 162 441 172 419 q 151 483 151 463 q 163 556 151 524 q 189 617 174 588 q 215 681 204 647 q 226 754 226 714 q 211 830 226 804 q 168 867 196 856 q 104 885 140 879 l 104 922 q 205 892 167 913 q 261 838 243 872 q 279 754 279 804 q 267 681 279 715 q 238 616 254 647 q 209 553 222 585 q 196 485 196 521 q 218 428 196 451 q 273 394 240 406 q 338 381 306 383 l 338 361 q 272 347 304 360 q 217 311 239 333 q 196 258 196 289 q 209 189 196 222 q 238 124 222 156 q 267 59 254 93 q 279 -12 279 25 q 260 -99 279 -61 q 203 -159 242 -136 q 104 -190 164 -182 z "},"[":{"ha":382,"x_min":68,"x_max":314,"o":"m 68 -79 l 68 875 l 314 875 l 314 842 l 114 842 l 114 -46 l 314 -46 l 314 -79 l 68 -79 z "},"]":{"ha":382,"x_min":68,"x_max":314,"o":"m 68 -79 l 68 -46 l 265 -46 l 265 842 l 68 842 l 68 875 l 314 875 l 314 -79 l 68 -79 z "},"˘":{"ha":294,"x_min":15,"x_max":269,"o":"m 142 758 q 67 778 94 758 q 28 825 40 797 q 15 875 17 853 l 49 875 q 81 810 56 832 q 142 789 106 789 q 206 810 181 789 q 236 875 231 831 l 269 875 q 255 824 268 851 q 215 778 242 797 q 142 758 188 758 z "},"̆":{"ha":0,"x_min":15,"x_max":269,"o":"m 142 758 q 67 778 94 758 q 28 825 40 797 q 15 875 17 853 l 49 875 q 81 810 56 832 q 142 789 106 789 q 206 810 181 789 q 236 875 231 831 l 269 875 q 255 824 268 851 q 215 778 242 797 q 142 758 188 758 z "},"¦":{"ha":307,"x_min":132,"x_max":178,"o":"m 132 -236 l 132 233 l 178 233 l 178 -236 l 132 -236 m 132 382 l 132 813 l 178 813 l 178 382 l 132 382 z "},"•":{"ha":564,"x_min":92,"x_max":471,"o":"m 282 199 q 186 224 229 199 q 117 293 143 250 q 92 389 92 336 q 117 484 92 442 q 186 552 143 526 q 282 578 229 578 q 377 552 335 578 q 445 484 419 526 q 471 389 471 442 q 445 293 471 336 q 377 224 419 250 q 282 199 335 199 z "},"c":{"ha":468,"x_min":64,"x_max":411,"o":"m 246 -12 q 138 3 178 -12 q 81 60 99 19 q 64 174 64 100 l 64 531 q 103 665 64 629 q 239 701 143 701 q 373 665 335 701 q 411 533 411 629 l 411 450 l 361 450 l 361 533 q 338 635 361 604 q 239 667 314 667 q 140 635 165 667 q 114 533 114 604 l 114 165 q 140 56 114 88 q 244 24 165 24 q 338 54 314 24 q 361 165 361 85 l 361 246 l 411 246 l 411 174 q 394 62 411 103 q 342 4 378 21 q 246 -12 306 -12 z "},"ć":{"ha":468,"x_min":64,"x_max":411,"o":"m 246 -12 q 138 3 178 -12 q 81 60 99 19 q 64 174 64 100 l 64 531 q 103 665 64 629 q 239 701 143 701 q 373 665 335 701 q 411 533 411 629 l 411 450 l 361 450 l 361 533 q 338 635 361 604 q 239 667 314 667 q 140 635 165 667 q 114 533 114 604 l 114 165 q 140 56 114 88 q 244 24 165 24 q 338 54 314 24 q 361 165 361 85 l 361 246 l 411 246 l 411 174 q 394 62 411 103 q 342 4 378 21 q 246 -12 306 -12 m 190 757 l 268 879 l 328 879 l 222 757 l 190 757 z "},"ˇ":{"ha":308,"x_min":11,"x_max":293,"o":"m 131 760 l 11 878 l 51 878 l 151 789 l 256 878 l 293 878 l 174 760 l 131 760 z "},"̌":{"ha":0,"x_min":11,"x_max":293,"o":"m 131 760 l 11 878 l 51 878 l 151 789 l 256 878 l 293 878 l 174 760 l 131 760 z "},"č":{"ha":468,"x_min":64,"x_max":411,"o":"m 246 -12 q 138 3 178 -12 q 81 60 99 19 q 64 174 64 100 l 64 531 q 103 665 64 629 q 239 701 143 701 q 373 665 335 701 q 411 533 411 629 l 411 450 l 361 450 l 361 533 q 338 635 361 604 q 239 667 314 667 q 140 635 165 667 q 114 533 114 604 l 114 165 q 140 56 114 88 q 244 24 165 24 q 338 54 314 24 q 361 165 361 85 l 361 246 l 411 246 l 411 174 q 394 62 411 103 q 342 4 378 21 q 246 -12 306 -12 m 213 760 l 93 878 l 133 878 l 233 789 l 338 878 l 375 878 l 256 760 l 213 760 z "},"ç":{"ha":468,"x_min":64,"x_max":411,"o":"m 246 -12 q 138 3 178 -12 q 81 60 99 19 q 64 174 64 100 l 64 531 q 103 665 64 629 q 239 701 143 701 q 373 665 335 701 q 411 533 411 629 l 411 450 l 361 450 l 361 533 q 338 635 361 604 q 239 667 314 667 q 140 635 165 667 q 114 533 114 604 l 114 165 q 140 56 114 88 q 244 24 165 24 q 338 54 314 24 q 361 165 361 85 l 361 246 l 411 246 l 411 174 q 394 62 411 103 q 342 4 378 21 q 246 -12 306 -12 m 228 -192 q 194 -185 210 -192 q 168 -174 179 -179 l 178 -150 q 201 -160 185 -156 q 226 -165 217 -165 q 271 -152 257 -165 q 285 -121 285 -139 q 272 -90 285 -101 q 238 -78 258 -78 q 217 -82 228 -78 q 197 -93 207 -86 l 178 -82 l 222 0 l 250 0 l 211 -69 l 204 -68 q 226 -59 214 -61 q 249 -57 238 -57 q 300 -76 282 -57 q 318 -117 318 -96 q 294 -171 318 -150 q 228 -192 271 -192 z "},"ċ":{"ha":468,"x_min":64,"x_max":411,"o":"m 246 -12 q 138 3 178 -12 q 81 60 99 19 q 64 174 64 100 l 64 531 q 103 665 64 629 q 239 701 143 701 q 373 665 335 701 q 411 533 411 629 l 411 450 l 361 450 l 361 533 q 338 635 361 604 q 239 667 314 667 q 140 635 165 667 q 114 533 114 604 l 114 165 q 140 56 114 88 q 244 24 165 24 q 338 54 314 24 q 361 165 361 85 l 361 246 l 411 246 l 411 174 q 394 62 411 103 q 342 4 378 21 q 246 -12 306 -12 m 235 776 q 208 788 219 776 q 197 814 197 799 q 208 840 197 829 q 235 850 219 850 q 261 840 250 850 q 272 814 272 829 q 261 788 272 799 q 235 776 250 776 z "},"¸":{"ha":176,"x_min":0,"x_max":150,"o":"m 60 -192 q 26 -185 42 -192 q 0 -174 11 -179 l 10 -150 q 33 -160 17 -156 q 58 -165 49 -165 q 103 -152 89 -165 q 117 -121 117 -139 q 103 -90 117 -101 q 69 -78 90 -78 q 49 -82 60 -78 q 29 -93 39 -86 l 10 -82 l 54 0 l 82 0 l 43 -69 l 36 -68 q 58 -59 46 -61 q 81 -57 69 -57 q 132 -76 114 -57 q 150 -117 150 -96 q 126 -171 150 -150 q 60 -192 103 -192 z "},"̧":{"ha":0,"x_min":0,"x_max":150,"o":"m 60 -192 q 26 -185 42 -192 q 0 -174 11 -179 l 10 -150 q 33 -160 17 -156 q 58 -165 49 -165 q 103 -152 89 -165 q 117 -121 117 -139 q 103 -90 117 -101 q 69 -78 90 -78 q 49 -82 60 -78 q 29 -93 39 -86 l 10 -82 l 54 0 l 82 0 l 43 -69 l 36 -68 q 58 -59 46 -61 q 81 -57 69 -57 q 132 -76 114 -57 q 150 -117 150 -96 q 126 -171 150 -150 q 60 -192 103 -192 z "},"¢":{"ha":468,"x_min":65,"x_max":401,"o":"m 217 -86 l 217 69 q 139 82 174 69 q 85 128 104 94 q 65 228 65 163 l 65 631 q 85 725 65 693 q 139 769 104 757 q 217 783 174 782 l 217 896 l 256 896 l 256 783 q 330 768 297 781 q 382 724 363 756 q 401 631 401 692 l 401 522 l 357 522 l 357 629 q 341 711 357 685 q 298 746 325 738 q 235 754 271 754 q 169 746 197 754 q 127 711 142 738 q 113 629 113 685 l 113 225 q 127 143 113 169 q 169 108 142 117 q 235 99 197 99 q 299 108 272 99 q 342 143 326 117 q 357 225 357 169 l 357 311 l 401 311 l 401 228 q 382 130 401 164 q 330 83 363 96 q 256 69 297 71 l 256 -86 l 217 -86 z "},"ч":{"ha":442,"x_min":40,"x_max":378,"o":"m 329 0 l 329 281 q 282 224 317 249 q 194 200 247 200 q 94 225 128 200 q 51 292 61 250 q 40 388 40 333 l 40 688 l 90 688 l 90 385 q 113 276 90 314 q 207 239 136 239 q 290 269 263 239 q 326 329 318 300 l 326 688 l 378 688 l 378 0 l 329 0 z "},"ˆ":{"ha":310,"x_min":14,"x_max":296,"o":"m 14 760 l 133 878 l 176 878 l 296 760 l 258 760 l 154 849 l 53 760 l 14 760 z "},"̂":{"ha":0,"x_min":14,"x_max":296,"o":"m 14 760 l 133 878 l 176 878 l 296 760 l 258 760 l 154 849 l 53 760 l 14 760 z "},":":{"ha":217,"x_min":69,"x_max":147,"o":"m 108 388 q 81 399 92 388 q 69 425 69 410 q 81 451 69 440 q 108 463 92 463 q 135 451 124 463 q 147 425 147 440 q 135 399 147 410 q 108 388 124 388 m 108 -8 q 81 3 92 -8 q 69 29 69 14 q 81 56 69 44 q 108 67 92 67 q 135 56 124 67 q 147 29 147 44 q 135 3 147 14 q 108 -8 124 -8 z "},",":{"ha":231,"x_min":69,"x_max":161,"o":"m 69 -146 q 96 -92 82 -121 q 110 -39 110 -62 q 104 -12 110 -21 q 93 4 99 -3 q 88 28 88 11 q 97 51 88 40 q 122 61 106 61 q 151 50 140 61 q 161 19 161 39 q 151 -35 161 -6 q 127 -92 142 -64 q 96 -146 113 -121 l 69 -146 z "},"̦":{"ha":0,"x_min":0,"x_max":76,"o":"m 0 -207 q 24 -162 14 -183 q 35 -125 35 -140 q 29 -111 35 -117 q 17 -99 24 -106 q 11 -82 11 -93 q 21 -62 11 -71 q 42 -54 31 -54 q 67 -65 57 -54 q 76 -89 76 -75 q 69 -124 76 -103 q 49 -167 61 -146 q 24 -207 38 -189 l 0 -207 z "},"̒":{"ha":0,"x_min":-7,"x_max":68,"o":"m 68 907 q 44 861 56 883 q 33 824 33 839 q 40 810 33 815 q 51 799 46 804 q 57 781 57 793 q 48 761 57 769 q 26 753 39 753 q 2 764 11 753 q -7 788 -7 775 q 1 824 -7 804 q 20 867 8 844 q 44 907 32 889 l 68 907 z "},"©":{"ha":833,"x_min":65,"x_max":843,"o":"m 454 43 q 303 73 374 43 q 178 157 232 103 q 95 282 125 211 q 65 433 65 353 q 95 584 65 514 q 178 708 125 654 q 303 791 232 761 q 454 821 374 821 q 606 791 535 821 q 730 708 676 761 q 813 584 783 654 q 843 433 843 514 q 813 282 843 353 q 730 157 783 211 q 606 73 676 103 q 454 43 535 43 m 454 71 q 594 99 529 71 q 709 178 660 128 q 785 294 758 229 q 813 433 813 360 q 765 613 813 532 q 636 743 717 694 q 454 792 556 792 q 316 764 381 792 q 201 687 251 736 q 123 572 151 638 q 94 433 94 507 q 123 294 94 360 q 201 178 151 229 q 316 99 251 128 q 454 71 381 71 m 461 218 q 384 228 413 218 q 343 263 356 238 q 331 336 331 289 l 331 560 q 358 644 331 621 q 457 667 386 667 q 553 644 525 667 q 581 561 581 622 l 581 508 l 546 508 l 546 563 q 528 626 546 606 q 457 646 511 646 q 383 626 401 646 q 365 563 365 606 l 365 331 q 384 261 365 281 q 460 242 403 242 q 528 260 511 242 q 546 331 546 279 l 546 381 l 581 381 l 581 336 q 569 265 581 290 q 531 228 557 239 q 461 218 504 218 z "},"¤":{"ha":607,"x_min":65,"x_max":542,"o":"m 107 189 l 75 222 l 164 311 q 133 360 144 335 q 122 414 122 386 q 163 525 122 475 l 65 622 l 96 653 l 197 551 q 297 583 246 583 q 403 550 350 583 l 500 646 l 531 614 l 436 519 q 474 414 474 469 q 438 315 474 361 l 542 211 l 508 179 l 403 286 q 350 260 376 269 q 297 251 324 251 q 196 279 240 251 l 107 189 m 297 296 q 385 331 349 296 q 422 414 422 367 q 385 503 422 467 q 297 540 349 540 q 208 505 243 540 q 174 414 174 469 q 208 331 174 367 q 297 296 243 296 z "},"d":{"ha":497,"x_min":64,"x_max":414,"o":"m 229 -11 q 141 3 174 -11 q 92 44 108 18 q 69 104 75 69 q 64 178 64 139 l 64 522 q 69 590 64 558 q 92 646 75 621 q 141 686 108 671 q 228 701 174 701 q 317 685 285 701 q 365 644 350 668 l 365 875 l 414 875 l 414 0 l 379 0 l 374 65 q 349 28 365 46 q 304 0 332 11 q 229 -11 276 -11 m 235 22 q 312 40 285 22 q 349 88 339 58 q 362 151 360 117 q 364 215 364 185 l 364 583 q 347 619 360 600 q 309 653 335 639 q 239 667 283 667 q 165 653 190 667 q 128 616 139 639 q 115 565 117 593 q 114 508 114 538 l 114 179 q 119 106 114 142 q 149 46 124 69 q 235 22 174 22 z "},"†":{"ha":496,"x_min":65,"x_max":431,"o":"m 221 -172 l 221 474 l 65 474 l 65 513 l 221 513 l 221 813 l 267 813 l 267 513 l 431 513 l 431 474 l 267 474 l 267 -172 l 221 -172 z "},"‡":{"ha":497,"x_min":65,"x_max":431,"o":"m 221 -172 l 221 231 l 65 231 l 65 271 l 221 271 l 221 476 l 65 476 l 65 515 l 221 515 l 221 819 l 269 819 l 269 515 l 431 515 l 431 476 l 269 476 l 269 271 l 431 271 l 431 231 l 269 231 l 269 -172 l 221 -172 z "},"ď":{"ha":511,"x_min":64,"x_max":515,"o":"m 229 -11 q 141 3 174 -11 q 92 44 108 18 q 69 104 75 69 q 64 178 64 139 l 64 522 q 69 590 64 558 q 92 646 75 621 q 141 686 108 671 q 228 701 174 701 q 317 685 285 701 q 365 644 350 668 l 365 875 l 414 875 l 414 0 l 379 0 l 374 65 q 349 28 365 46 q 304 0 332 11 q 229 -11 276 -11 m 235 22 q 312 40 285 22 q 349 88 339 58 q 362 151 360 117 q 364 215 364 185 l 364 583 q 347 619 360 600 q 309 653 335 639 q 239 667 283 667 q 165 653 190 667 q 128 616 139 639 q 115 565 117 593 q 114 508 114 538 l 114 179 q 119 106 114 142 q 149 46 124 69 q 235 22 174 22 m 454 699 l 476 865 l 515 865 l 479 699 l 454 699 z "},"đ":{"ha":485,"x_min":64,"x_max":471,"o":"m 186 753 l 186 783 l 471 783 l 471 753 l 186 753 m 229 -11 q 141 3 174 -11 q 92 44 108 18 q 69 104 75 69 q 64 178 64 139 l 64 522 q 69 590 64 558 q 92 646 75 621 q 141 686 108 671 q 228 701 174 701 q 317 685 285 701 q 365 644 350 668 l 365 875 l 414 875 l 414 0 l 379 0 l 374 65 q 349 28 365 46 q 304 0 332 11 q 229 -11 276 -11 m 235 22 q 312 40 285 22 q 349 88 339 58 q 362 151 360 117 q 364 215 364 185 l 364 583 q 347 619 360 600 q 309 653 335 639 q 239 667 283 667 q 165 653 190 667 q 128 616 139 639 q 115 565 117 593 q 114 508 114 538 l 114 179 q 119 106 114 142 q 149 46 124 69 q 235 22 174 22 z "},"д":{"ha":667,"x_min":33,"x_max":633,"o":"m 33 -144 l 33 35 l 103 35 q 136 48 122 38 q 160 81 150 58 q 172 142 169 104 l 225 686 l 524 686 l 524 35 l 633 35 l 633 -144 l 588 -144 l 588 -6 l 79 -6 l 79 -144 l 33 -144 m 186 35 l 471 35 l 471 647 l 272 647 l 226 171 q 215 97 222 138 q 186 35 208 56 z "},"°":{"ha":446,"x_min":65,"x_max":381,"o":"m 224 514 q 103 559 142 514 q 65 667 65 604 q 101 776 65 731 q 226 821 138 821 q 317 800 283 821 q 366 744 351 779 q 381 669 381 710 q 342 558 381 603 q 224 514 304 514 m 225 543 q 312 577 281 543 q 343 668 343 611 q 313 756 343 718 q 224 793 282 793 q 136 758 168 793 q 104 667 104 722 q 140 577 104 611 q 225 543 175 543 z "},"¨":{"ha":219,"x_min":0,"x_max":189,"o":"m 35 776 q 10 787 21 776 q 0 813 0 797 q 10 836 0 826 q 35 846 21 846 q 60 836 50 846 q 71 813 71 826 q 60 787 71 797 q 35 776 50 776 m 154 776 q 128 787 139 776 q 118 813 118 797 q 128 836 118 826 q 154 846 139 846 q 178 836 168 846 q 189 813 189 826 q 178 787 189 797 q 154 776 168 776 z "},"̈":{"ha":0,"x_min":0,"x_max":189,"o":"m 35 776 q 10 787 21 776 q 0 813 0 797 q 10 836 0 826 q 35 846 21 846 q 60 836 50 846 q 71 813 71 826 q 60 787 71 797 q 35 776 50 776 m 154 776 q 128 787 139 776 q 118 813 118 797 q 128 836 118 826 q 154 846 139 846 q 178 836 168 846 q 189 813 189 826 q 178 787 189 797 q 154 776 168 776 z "},"÷":{"ha":497,"x_min":68,"x_max":429,"o":"m 68 386 l 68 425 l 429 425 l 429 386 l 68 386 m 249 136 q 222 146 232 136 q 211 172 211 156 q 222 197 211 188 q 249 207 232 207 q 276 197 264 207 q 288 172 288 188 q 276 146 288 156 q 249 136 264 136 m 249 579 q 222 590 232 579 q 211 617 211 600 q 222 642 211 631 q 249 653 232 653 q 275 642 264 653 q 286 617 286 631 q 275 590 286 600 q 249 579 264 579 z "},"∕":{"ha":538,"x_min":25,"x_max":522,"o":"m 25 -165 l 475 976 l 522 976 l 69 -165 l 25 -165 z "},"ђ":{"ha":546,"x_min":31,"x_max":476,"o":"m 324 -131 q 276 -125 297 -131 q 239 -111 254 -119 l 251 -82 q 276 -93 261 -89 q 313 -97 292 -97 q 403 -49 381 -97 q 425 86 425 -1 l 425 440 q 397 531 422 494 q 294 567 371 567 q 210 545 238 567 q 172 492 182 524 q 160 426 161 460 q 160 369 160 393 l 160 0 l 110 0 l 110 736 l 31 736 l 31 768 l 110 768 l 110 875 l 160 875 l 160 768 l 297 768 l 297 736 l 160 736 l 160 521 q 212 578 175 556 q 306 600 249 600 q 408 579 371 600 q 460 518 444 558 q 476 419 476 478 l 476 89 q 463 -30 476 14 q 428 -95 450 -74 q 378 -124 406 -117 q 324 -131 351 -131 z "},"$":{"ha":472,"x_min":54,"x_max":400,"o":"m 226 -85 l 226 74 q 121 94 158 75 q 69 154 83 113 q 54 261 54 196 l 54 315 l 104 315 l 104 258 q 108 185 104 219 q 139 129 113 150 q 229 108 165 108 q 313 130 288 108 q 344 181 339 151 q 350 238 350 211 l 350 271 q 338 332 350 306 q 299 380 326 358 q 226 418 272 401 q 142 460 178 439 q 86 515 106 482 q 67 597 67 547 l 67 640 q 103 744 67 704 q 226 785 140 783 l 226 939 l 257 939 l 257 785 q 366 740 332 779 q 400 611 400 700 l 400 549 l 353 549 l 353 611 q 324 721 353 692 q 233 750 294 750 q 138 717 163 750 q 114 638 114 685 l 114 606 q 131 537 114 564 q 180 490 147 510 q 263 449 213 469 q 335 412 304 431 q 383 360 365 393 q 400 268 400 326 l 400 242 q 390 167 400 204 q 351 106 381 131 q 257 75 321 81 l 257 -85 l 226 -85 z "},"˙":{"ha":100,"x_min":0,"x_max":75,"o":"m 38 776 q 11 788 22 776 q 0 814 0 799 q 11 840 0 829 q 38 850 22 850 q 64 840 53 850 q 75 814 75 829 q 64 788 75 799 q 38 776 53 776 z "},"̇":{"ha":0,"x_min":0,"x_max":75,"o":"m 38 776 q 11 788 22 776 q 0 814 0 799 q 11 840 0 829 q 38 850 22 850 q 64 840 53 850 q 75 814 75 829 q 64 788 75 799 q 38 776 53 776 z "},"̣":{"ha":0,"x_min":14,"x_max":88,"o":"m 50 -135 q 24 -124 35 -135 q 14 -100 14 -114 q 24 -75 14 -85 q 50 -65 35 -65 q 76 -75 65 -65 q 88 -100 88 -85 q 76 -124 88 -114 q 50 -135 65 -135 z "},"↓":{"ha":706,"x_min":65,"x_max":639,"o":"m 354 0 l 65 297 l 92 322 l 335 81 l 332 982 l 374 982 l 374 81 l 615 322 l 639 297 l 354 0 z "},"ѕ":{"ha":467,"x_min":57,"x_max":407,"o":"m 233 -10 q 133 7 169 -10 q 80 51 96 24 q 60 111 64 78 q 57 179 57 144 l 57 232 l 107 232 l 107 175 q 112 101 107 136 q 143 46 117 67 q 233 25 169 25 q 317 47 292 25 q 349 99 343 68 q 354 154 354 129 l 354 188 q 342 249 354 222 q 303 297 331 275 q 231 335 276 318 q 144 377 181 356 q 88 431 108 399 q 68 514 68 464 l 68 557 q 108 663 68 624 q 238 701 147 701 q 334 685 297 701 q 389 630 371 668 q 407 528 407 592 l 407 467 l 357 467 l 357 528 q 328 638 357 610 q 238 667 299 667 q 142 634 167 667 q 118 554 118 601 l 118 522 q 135 453 118 481 q 184 406 151 426 q 267 365 217 386 q 341 329 310 349 q 390 276 372 310 q 407 185 407 243 l 407 158 q 395 80 407 118 q 347 16 383 42 q 233 -10 311 -10 z "},"џ":{"ha":499,"x_min":65,"x_max":433,"o":"m 228 -156 l 228 0 l 65 0 l 65 688 l 115 688 l 115 38 l 382 38 l 382 688 l 433 688 l 433 0 l 269 0 l 269 -156 l 228 -156 z "},"e":{"ha":468,"x_min":64,"x_max":411,"o":"m 247 -12 q 138 3 178 -12 q 81 60 99 19 q 64 174 64 100 l 64 533 q 103 663 64 628 q 239 699 143 699 q 373 663 335 699 q 411 533 411 628 l 411 360 l 114 360 l 114 163 q 140 54 114 85 q 244 24 165 24 q 338 53 314 24 q 361 163 361 83 l 361 243 l 411 243 l 411 175 q 394 63 411 104 q 342 4 378 21 q 247 -12 307 -12 m 114 393 l 361 393 l 361 535 q 338 635 361 604 q 239 665 314 665 q 140 635 165 665 q 114 535 114 604 l 114 393 z "},"é":{"ha":468,"x_min":64,"x_max":411,"o":"m 247 -12 q 138 3 178 -12 q 81 60 99 19 q 64 174 64 100 l 64 533 q 103 663 64 628 q 239 699 143 699 q 373 663 335 699 q 411 533 411 628 l 411 360 l 114 360 l 114 163 q 140 54 114 85 q 244 24 165 24 q 338 53 314 24 q 361 163 361 83 l 361 243 l 411 243 l 411 175 q 394 63 411 104 q 342 4 378 21 q 247 -12 307 -12 m 114 393 l 361 393 l 361 535 q 338 635 361 604 q 239 665 314 665 q 140 635 165 665 q 114 535 114 604 l 114 393 m 190 757 l 268 879 l 328 879 l 222 757 l 190 757 z "},"ě":{"ha":468,"x_min":64,"x_max":411,"o":"m 247 -12 q 138 3 178 -12 q 81 60 99 19 q 64 174 64 100 l 64 533 q 103 663 64 628 q 239 699 143 699 q 373 663 335 699 q 411 533 411 628 l 411 360 l 114 360 l 114 163 q 140 54 114 85 q 244 24 165 24 q 338 53 314 24 q 361 163 361 83 l 361 243 l 411 243 l 411 175 q 394 63 411 104 q 342 4 378 21 q 247 -12 307 -12 m 114 393 l 361 393 l 361 535 q 338 635 361 604 q 239 665 314 665 q 140 635 165 665 q 114 535 114 604 l 114 393 m 213 760 l 93 878 l 133 878 l 233 789 l 338 878 l 375 878 l 256 760 l 213 760 z "},"ê":{"ha":468,"x_min":64,"x_max":411,"o":"m 247 -12 q 138 3 178 -12 q 81 60 99 19 q 64 174 64 100 l 64 533 q 103 663 64 628 q 239 699 143 699 q 373 663 335 699 q 411 533 411 628 l 411 360 l 114 360 l 114 163 q 140 54 114 85 q 244 24 165 24 q 338 53 314 24 q 361 163 361 83 l 361 243 l 411 243 l 411 175 q 394 63 411 104 q 342 4 378 21 q 247 -12 307 -12 m 114 393 l 361 393 l 361 535 q 338 635 361 604 q 239 665 314 665 q 140 635 165 665 q 114 535 114 604 l 114 393 m 93 760 l 213 878 l 256 878 l 375 760 l 338 760 l 233 849 l 132 760 l 93 760 z "},"ế":{"ha":468,"x_min":64,"x_max":510,"o":"m 247 -12 q 138 3 178 -12 q 81 60 99 19 q 64 174 64 100 l 64 533 q 103 663 64 628 q 239 699 143 699 q 373 663 335 699 q 411 533 411 628 l 411 360 l 114 360 l 114 163 q 140 54 114 85 q 244 24 165 24 q 338 53 314 24 q 361 163 361 83 l 361 243 l 411 243 l 411 175 q 394 63 411 104 q 342 4 378 21 q 247 -12 307 -12 m 114 393 l 361 393 l 361 535 q 338 635 361 604 q 239 665 314 665 q 140 635 165 665 q 114 535 114 604 l 114 393 m 93 760 l 213 878 l 256 878 l 375 760 l 338 760 l 233 849 l 132 760 l 93 760 m 374 829 l 451 951 l 511 951 l 406 829 l 374 829 z "},"ệ":{"ha":468,"x_min":64,"x_max":411,"o":"m 247 -12 q 138 3 178 -12 q 81 60 99 19 q 64 174 64 100 l 64 533 q 103 663 64 628 q 239 699 143 699 q 373 663 335 699 q 411 533 411 628 l 411 360 l 114 360 l 114 163 q 140 54 114 85 q 244 24 165 24 q 338 53 314 24 q 361 163 361 83 l 361 243 l 411 243 l 411 175 q 394 63 411 104 q 342 4 378 21 q 247 -12 307 -12 m 114 393 l 361 393 l 361 535 q 338 635 361 604 q 239 665 314 665 q 140 635 165 665 q 114 535 114 604 l 114 393 m 235 -135 q 209 -124 219 -135 q 199 -100 199 -114 q 209 -75 199 -85 q 235 -65 219 -65 q 261 -75 250 -65 q 272 -100 272 -85 q 261 -124 272 -114 q 235 -135 250 -135 m 93 760 l 213 878 l 256 878 l 375 760 l 338 760 l 233 849 l 132 760 l 93 760 z "},"ề":{"ha":468,"x_min":64,"x_max":461,"o":"m 247 -12 q 138 3 178 -12 q 81 60 99 19 q 64 174 64 100 l 64 533 q 103 663 64 628 q 239 699 143 699 q 373 663 335 699 q 411 533 411 628 l 411 360 l 114 360 l 114 163 q 140 54 114 85 q 244 24 165 24 q 338 53 314 24 q 361 163 361 83 l 361 243 l 411 243 l 411 175 q 394 63 411 104 q 342 4 378 21 q 247 -12 307 -12 m 114 393 l 361 393 l 361 535 q 338 635 361 604 q 239 665 314 665 q 140 635 165 665 q 114 535 114 604 l 114 393 m 93 760 l 213 878 l 256 878 l 375 760 l 338 760 l 233 849 l 132 760 l 93 760 m 429 829 l 324 951 l 382 951 l 461 829 l 429 829 z "},"ể":{"ha":468,"x_min":64,"x_max":501,"o":"m 247 -12 q 138 3 178 -12 q 81 60 99 19 q 64 174 64 100 l 64 533 q 103 663 64 628 q 239 699 143 699 q 373 663 335 699 q 411 533 411 628 l 411 360 l 114 360 l 114 163 q 140 54 114 85 q 244 24 165 24 q 338 53 314 24 q 361 163 361 83 l 361 243 l 411 243 l 411 175 q 394 63 411 104 q 342 4 378 21 q 247 -12 307 -12 m 114 393 l 361 393 l 361 535 q 338 635 361 604 q 239 665 314 665 q 140 635 165 665 q 114 535 114 604 l 114 393 m 93 760 l 213 878 l 256 878 l 375 760 l 338 760 l 233 849 l 132 760 l 93 760 m 403 831 l 403 856 q 419 886 403 876 q 451 906 435 896 q 468 933 468 915 l 468 939 q 457 967 468 954 q 421 979 446 979 q 381 944 388 979 l 350 951 q 374 990 356 976 q 425 1004 392 1004 q 482 988 463 1004 q 501 938 501 972 l 501 935 q 484 893 501 906 q 450 873 467 881 q 433 849 433 865 l 433 831 l 403 831 z "},"ễ":{"ha":468,"x_min":64,"x_max":411,"o":"m 247 -12 q 138 3 178 -12 q 81 60 99 19 q 64 174 64 100 l 64 533 q 103 663 64 628 q 239 699 143 699 q 373 663 335 699 q 411 533 411 628 l 411 360 l 114 360 l 114 163 q 140 54 114 85 q 244 24 165 24 q 338 53 314 24 q 361 163 361 83 l 361 243 l 411 243 l 411 175 q 394 63 411 104 q 342 4 378 21 q 247 -12 307 -12 m 114 393 l 361 393 l 361 535 q 338 635 361 604 q 239 665 314 665 q 140 635 165 665 q 114 535 114 604 l 114 393 m 93 760 l 213 878 l 256 878 l 375 760 l 338 760 l 233 849 l 132 760 l 93 760 m 289 907 q 260 913 272 907 q 229 932 249 918 q 206 948 219 939 q 175 957 192 957 q 147 946 158 957 q 131 908 135 935 l 103 908 q 124 965 106 943 q 175 988 143 988 q 207 980 192 988 q 238 961 222 972 q 264 945 253 951 q 289 939 275 939 q 318 950 307 939 q 333 986 329 961 l 363 986 q 351 944 361 963 q 326 917 342 926 q 289 907 310 907 z "},"ë":{"ha":468,"x_min":64,"x_max":411,"o":"m 247 -12 q 138 3 178 -12 q 81 60 99 19 q 64 174 64 100 l 64 533 q 103 663 64 628 q 239 699 143 699 q 373 663 335 699 q 411 533 411 628 l 411 360 l 114 360 l 114 163 q 140 54 114 85 q 244 24 165 24 q 338 53 314 24 q 361 163 361 83 l 361 243 l 411 243 l 411 175 q 394 63 411 104 q 342 4 378 21 q 247 -12 307 -12 m 114 393 l 361 393 l 361 535 q 338 635 361 604 q 239 665 314 665 q 140 635 165 665 q 114 535 114 604 l 114 393 m 175 776 q 151 787 161 776 q 140 813 140 797 q 151 836 140 826 q 175 846 161 846 q 201 836 190 846 q 211 813 211 826 q 201 787 211 797 q 175 776 190 776 m 294 776 q 269 787 279 776 q 258 813 258 797 q 269 836 258 826 q 294 846 279 846 q 319 836 308 846 q 329 813 329 826 q 319 787 329 797 q 294 776 308 776 z "},"ė":{"ha":468,"x_min":64,"x_max":411,"o":"m 247 -12 q 138 3 178 -12 q 81 60 99 19 q 64 174 64 100 l 64 533 q 103 663 64 628 q 239 699 143 699 q 373 663 335 699 q 411 533 411 628 l 411 360 l 114 360 l 114 163 q 140 54 114 85 q 244 24 165 24 q 338 53 314 24 q 361 163 361 83 l 361 243 l 411 243 l 411 175 q 394 63 411 104 q 342 4 378 21 q 247 -12 307 -12 m 114 393 l 361 393 l 361 535 q 338 635 361 604 q 239 665 314 665 q 140 635 165 665 q 114 535 114 604 l 114 393 m 235 776 q 208 788 219 776 q 197 814 197 799 q 208 840 197 829 q 235 850 219 850 q 261 840 250 850 q 272 814 272 829 q 261 788 272 799 q 235 776 250 776 z "},"ẹ":{"ha":468,"x_min":64,"x_max":411,"o":"m 247 -12 q 138 3 178 -12 q 81 60 99 19 q 64 174 64 100 l 64 533 q 103 663 64 628 q 239 699 143 699 q 373 663 335 699 q 411 533 411 628 l 411 360 l 114 360 l 114 163 q 140 54 114 85 q 244 24 165 24 q 338 53 314 24 q 361 163 361 83 l 361 243 l 411 243 l 411 175 q 394 63 411 104 q 342 4 378 21 q 247 -12 307 -12 m 114 393 l 361 393 l 361 535 q 338 635 361 604 q 239 665 314 665 q 140 635 165 665 q 114 535 114 604 l 114 393 m 235 -135 q 209 -124 219 -135 q 199 -100 199 -114 q 209 -75 199 -85 q 235 -65 219 -65 q 261 -75 250 -65 q 272 -100 272 -85 q 261 -124 272 -114 q 235 -135 250 -135 z "},"ф":{"ha":811,"x_min":64,"x_max":746,"o":"m 381 -161 l 381 60 q 330 9 364 28 q 233 -10 296 -10 q 99 42 135 -10 q 64 189 64 94 l 64 461 q 78 561 64 519 q 130 625 93 603 q 236 647 167 647 q 330 628 294 647 q 381 575 365 608 l 381 821 l 431 821 l 431 578 q 481 628 444 610 q 572 647 517 647 q 681 625 643 647 q 732 561 718 603 q 746 461 746 519 l 746 189 q 711 42 746 94 q 576 -10 676 -10 q 481 9 517 -10 q 431 61 446 28 l 431 -161 l 381 -161 m 243 24 q 332 48 303 24 q 371 109 361 72 q 381 179 381 146 l 381 451 q 372 525 381 488 q 335 588 364 563 q 244 614 306 614 q 156 592 183 614 q 122 534 129 569 q 114 456 114 499 l 114 186 q 124 105 114 142 q 160 46 133 68 q 243 24 188 24 m 569 24 q 652 46 625 24 q 688 105 679 68 q 697 186 697 142 l 697 456 q 690 534 697 499 q 655 592 682 569 q 567 614 628 614 q 481 591 510 614 q 441 534 451 568 q 431 465 431 500 l 431 183 q 440 111 431 149 q 480 49 450 74 q 569 24 510 24 z "},"è":{"ha":468,"x_min":64,"x_max":411,"o":"m 247 -12 q 138 3 178 -12 q 81 60 99 19 q 64 174 64 100 l 64 533 q 103 663 64 628 q 239 699 143 699 q 373 663 335 699 q 411 533 411 628 l 411 360 l 114 360 l 114 163 q 140 54 114 85 q 244 24 165 24 q 338 53 314 24 q 361 163 361 83 l 361 243 l 411 243 l 411 175 q 394 63 411 104 q 342 4 378 21 q 247 -12 307 -12 m 114 393 l 361 393 l 361 535 q 338 635 361 604 q 239 665 314 665 q 140 635 165 665 q 114 535 114 604 l 114 393 m 247 757 l 142 879 l 200 879 l 279 757 l 247 757 z "},"ẻ":{"ha":468,"x_min":64,"x_max":411,"o":"m 247 -12 q 138 3 178 -12 q 81 60 99 19 q 64 174 64 100 l 64 533 q 103 663 64 628 q 239 699 143 699 q 373 663 335 699 q 411 533 411 628 l 411 360 l 114 360 l 114 163 q 140 54 114 85 q 244 24 165 24 q 338 53 314 24 q 361 163 361 83 l 361 243 l 411 243 l 411 175 q 394 63 411 104 q 342 4 378 21 q 247 -12 307 -12 m 114 393 l 361 393 l 361 535 q 338 635 361 604 q 239 665 314 665 q 140 635 165 665 q 114 535 114 604 l 114 393 m 219 758 l 219 783 q 235 814 219 804 q 268 833 251 824 q 285 861 285 843 l 285 867 q 274 894 285 882 q 238 907 263 907 q 197 872 204 907 l 167 879 q 190 918 172 904 q 242 932 208 932 q 299 916 279 932 q 318 865 318 900 l 318 863 q 301 821 318 833 q 267 801 283 808 q 250 776 250 793 l 250 758 l 219 758 z "},"л":{"ha":513,"x_min":26,"x_max":447,"o":"m 26 0 l 26 33 q 72 57 54 33 q 93 136 89 81 l 139 686 l 447 686 l 447 0 l 396 0 l 396 647 l 189 647 l 142 119 q 136 84 140 104 q 122 44 132 64 q 94 13 113 25 q 49 0 76 0 l 26 0 z "},"…":{"ha":599,"x_min":69,"x_max":529,"o":"m 108 -8 q 81 3 92 -8 q 69 29 69 14 q 81 56 69 44 q 108 67 92 67 q 135 56 124 67 q 147 29 147 44 q 135 3 147 14 q 108 -8 124 -8 m 311 -7 q 283 4 294 -7 q 272 31 272 15 q 283 57 272 46 q 311 68 294 68 q 338 57 326 68 q 350 31 350 46 q 338 4 350 15 q 311 -7 326 -7 m 490 -7 q 463 4 474 -7 q 451 31 451 15 q 463 57 451 46 q 490 68 474 68 q 517 57 506 68 q 529 31 529 46 q 517 4 529 15 q 490 -7 506 -7 z "},"м":{"ha":638,"x_min":65,"x_max":572,"o":"m 65 0 l 65 688 l 119 688 l 319 71 l 522 688 l 572 688 l 572 0 l 528 0 l 528 563 l 340 0 l 299 0 l 111 563 l 111 0 l 65 0 z "},"ē":{"ha":468,"x_min":64,"x_max":411,"o":"m 247 -12 q 138 3 178 -12 q 81 60 99 19 q 64 174 64 100 l 64 533 q 103 663 64 628 q 239 699 143 699 q 373 663 335 699 q 411 533 411 628 l 411 360 l 114 360 l 114 163 q 140 54 114 85 q 244 24 165 24 q 338 53 314 24 q 361 163 361 83 l 361 243 l 411 243 l 411 175 q 394 63 411 104 q 342 4 378 21 q 247 -12 307 -12 m 114 393 l 361 393 l 361 535 q 338 635 361 604 q 239 665 314 665 q 140 635 165 665 q 114 535 114 604 l 114 393 m 113 790 l 113 821 l 357 821 l 357 790 l 113 790 z "},"—":{"ha":794,"x_min":29,"x_max":765,"o":"m 29 338 l 29 376 l 765 376 l 765 338 l 29 338 z "},"∅":{"ha":567,"x_min":51,"x_max":535,"o":"m 51 90 l 483 781 l 515 781 l 82 90 l 51 90 m 329 -17 q 228 9 275 -17 q 154 90 182 35 q 126 226 126 144 l 126 593 q 187 774 126 715 q 332 832 247 832 q 476 773 417 832 q 535 593 535 714 l 535 228 q 508 88 535 143 q 433 8 481 33 q 329 -17 386 -17 m 331 18 q 441 70 397 18 q 485 215 485 122 l 485 597 q 440 745 485 693 q 331 797 394 797 q 221 745 265 797 q 176 597 176 693 l 176 215 q 221 70 176 122 q 331 18 265 18 z "},"н":{"ha":494,"x_min":65,"x_max":429,"o":"m 65 0 l 65 688 l 115 688 l 115 383 l 379 383 l 379 688 l 429 688 l 429 0 l 379 0 l 379 343 l 115 343 l 115 0 l 65 0 z "},"–":{"ha":463,"x_min":29,"x_max":435,"o":"m 29 338 l 29 376 l 435 376 l 435 338 l 29 338 z "},"ŋ":{"ha":482,"x_min":65,"x_max":415,"o":"m 249 -154 q 232 -153 242 -154 q 217 -150 222 -151 l 217 -121 q 224 -121 218 -121 q 237 -122 229 -121 q 249 -122 244 -122 q 335 -105 304 -122 q 365 -26 365 -87 l 365 504 q 361 578 365 542 q 331 638 357 614 q 242 661 306 661 q 170 644 196 661 q 133 606 144 628 q 115 564 121 583 l 115 0 l 65 0 l 65 688 l 106 688 l 114 618 q 170 681 131 663 q 253 699 210 699 q 364 672 329 699 q 407 603 399 644 q 415 517 415 561 l 415 -21 q 393 -107 415 -78 q 334 -145 371 -136 q 249 -154 297 -154 z "},"ę":{"ha":468,"x_min":64,"x_max":411,"o":"m 247 -12 q 138 3 178 -12 q 81 60 99 19 q 64 174 64 100 l 64 533 q 103 663 64 628 q 239 699 143 699 q 373 663 335 699 q 411 533 411 628 l 411 360 l 114 360 l 114 163 q 140 54 114 85 q 244 24 165 24 q 338 53 314 24 q 361 163 361 83 l 361 243 l 411 243 l 411 175 q 394 63 411 104 q 342 4 378 21 q 247 -12 307 -12 m 114 393 l 361 393 l 361 535 q 338 635 361 604 q 239 665 314 665 q 140 635 165 665 q 114 535 114 604 l 114 393 m 260 -182 q 199 -161 225 -182 q 174 -106 174 -140 q 200 -38 174 -65 q 254 0 226 -11 l 289 0 q 233 -44 253 -18 q 213 -99 213 -71 q 231 -140 213 -126 q 267 -154 249 -154 q 290 -151 281 -154 q 306 -144 300 -147 l 315 -167 q 293 -177 307 -172 q 260 -182 279 -182 z "},"=":{"ha":561,"x_min":69,"x_max":492,"o":"m 69 533 l 69 575 l 492 575 l 492 533 l 69 533 m 69 233 l 69 275 l 492 275 l 492 233 l 69 233 z "},"р":{"ha":497,"x_min":83,"x_max":433,"o":"m 83 -161 l 83 688 l 126 688 l 131 624 q 174 676 144 654 q 269 697 203 697 q 378 672 343 697 q 423 606 413 646 q 433 519 433 565 l 433 178 q 423 86 433 129 q 378 17 413 43 q 269 -10 343 -10 q 181 6 214 -10 q 133 47 147 22 l 133 -161 l 83 -161 m 258 24 q 333 38 307 24 q 369 74 358 51 q 382 124 381 96 q 383 181 383 151 l 383 506 q 382 563 383 535 q 369 614 381 590 q 333 651 358 638 q 258 664 307 664 q 184 646 210 664 q 148 599 158 628 q 135 538 138 571 q 133 474 133 504 l 133 169 q 141 97 133 131 q 175 44 149 64 q 258 24 201 24 z "},"э":{"ha":496,"x_min":65,"x_max":431,"o":"m 251 -10 q 128 15 167 -10 q 77 83 89 39 q 65 183 65 128 l 65 239 l 115 239 l 115 182 q 122 103 115 139 q 158 44 129 67 q 251 22 188 22 q 343 45 317 22 q 375 105 369 68 q 381 179 381 142 l 381 332 l 164 332 l 164 368 l 381 368 l 381 508 q 375 582 381 546 q 343 642 369 618 q 251 665 317 665 q 158 644 188 665 q 122 586 129 622 q 115 506 115 550 l 115 453 l 65 453 l 65 511 q 77 606 65 564 q 128 673 89 647 q 251 699 167 699 q 349 683 313 699 q 403 640 385 667 q 426 581 421 614 q 431 513 431 549 l 431 182 q 425 108 431 143 q 402 47 419 74 q 349 6 385 21 q 251 -10 313 -10 z "},"с":{"ha":468,"x_min":64,"x_max":411,"o":"m 246 -12 q 138 3 178 -12 q 81 60 99 19 q 64 174 64 100 l 64 531 q 103 665 64 629 q 239 701 143 701 q 373 665 335 701 q 411 533 411 629 l 411 450 l 361 450 l 361 533 q 338 635 361 604 q 239 667 314 667 q 140 635 165 667 q 114 533 114 604 l 114 165 q 140 56 114 88 q 244 24 165 24 q 338 54 314 24 q 361 165 361 85 l 361 246 l 411 246 l 411 174 q 394 62 411 103 q 342 4 378 21 q 246 -12 306 -12 z "},"ð":{"ha":485,"x_min":64,"x_max":417,"o":"m 232 -11 q 176 -7 206 -11 q 121 13 146 -3 q 80 63 96 28 q 64 160 64 97 l 64 515 q 86 630 64 593 q 146 676 108 667 q 226 686 183 686 q 304 674 265 686 q 360 631 343 663 q 349 768 357 713 q 310 853 340 824 q 214 883 281 883 q 142 876 175 883 q 88 864 110 869 l 88 899 q 142 913 110 904 q 218 921 175 921 q 328 899 289 921 q 384 832 367 876 q 406 720 401 788 q 411 563 411 653 l 411 217 q 405 135 411 175 q 380 63 399 96 q 325 9 361 29 q 232 -11 289 -11 m 232 22 q 315 51 288 22 q 352 122 343 79 q 361 204 361 164 l 361 567 q 350 596 361 575 q 311 635 339 617 q 231 654 283 654 q 153 635 178 654 q 121 585 128 617 q 114 511 114 553 l 114 146 q 127 76 114 101 q 159 40 140 51 q 198 25 178 28 q 232 22 218 22 m 199 751 l 178 775 l 397 961 l 417 936 l 199 751 z "},"ẽ":{"ha":468,"x_min":64,"x_max":411,"o":"m 247 -12 q 138 3 178 -12 q 81 60 99 19 q 64 174 64 100 l 64 533 q 103 663 64 628 q 239 699 143 699 q 373 663 335 699 q 411 533 411 628 l 411 360 l 114 360 l 114 163 q 140 54 114 85 q 244 24 165 24 q 338 53 314 24 q 361 163 361 83 l 361 243 l 411 243 l 411 175 q 394 63 411 104 q 342 4 378 21 q 247 -12 307 -12 m 114 393 l 361 393 l 361 535 q 338 635 361 604 q 239 665 314 665 q 140 635 165 665 q 114 535 114 604 l 114 393 m 292 771 q 263 776 275 771 q 232 796 251 782 q 208 812 222 803 q 178 821 194 821 q 149 810 161 821 q 133 772 138 799 l 106 772 q 127 829 108 807 q 178 851 146 851 q 210 844 194 851 q 240 825 225 836 q 267 809 256 815 q 292 803 278 803 q 321 814 310 803 q 336 850 332 825 l 365 850 q 354 808 364 826 q 328 781 344 790 q 292 771 313 771 z "},"€":{"ha":624,"x_min":64,"x_max":558,"o":"m 360 -17 q 261 -3 306 -17 q 191 50 217 10 q 165 174 165 90 l 165 331 l 64 331 l 76 358 l 165 358 l 165 456 l 64 456 l 76 483 l 165 483 l 165 650 q 191 769 165 731 q 262 819 217 807 q 361 832 307 832 q 463 819 418 832 q 533 767 507 806 q 558 650 558 729 l 558 613 l 508 613 l 508 650 q 489 747 508 715 q 437 789 469 779 q 360 799 404 799 q 285 789 318 799 q 233 747 251 779 q 214 650 214 715 l 214 483 l 432 483 l 418 456 l 215 456 l 215 358 l 378 358 l 365 331 l 214 331 l 214 167 q 233 69 214 101 q 285 28 251 38 q 360 18 318 18 q 438 28 404 18 q 490 69 471 38 q 508 167 508 101 l 508 239 l 558 239 l 558 174 q 533 49 558 89 q 463 -4 507 8 q 360 -17 418 -17 z "},"!":{"ha":217,"x_min":69,"x_max":150,"o":"m 92 269 l 82 500 l 79 875 l 132 875 l 132 501 l 121 269 l 92 269 m 108 -7 q 81 4 92 -7 q 69 32 69 15 q 81 57 69 46 q 108 68 92 68 q 138 57 125 68 q 150 32 150 46 q 138 4 150 15 q 108 -7 125 -7 z "},"¡":{"ha":217,"x_min":69,"x_max":150,"o":"m 92 414 l 121 414 l 132 183 l 132 -192 l 79 -192 l 82 185 l 92 414 m 108 692 q 138 681 125 692 q 150 653 150 669 q 138 628 150 639 q 108 617 125 617 q 81 628 92 617 q 69 653 69 639 q 81 681 69 669 q 108 692 92 692 z "},"f":{"ha":311,"x_min":50,"x_max":310,"o":"m 93 0 l 93 626 l 50 626 l 50 661 l 93 661 l 93 754 q 101 810 93 786 q 122 851 108 835 q 158 874 136 867 q 206 882 179 882 q 245 881 225 882 q 283 879 265 881 q 310 876 301 878 l 310 843 q 279 847 310 843 q 213 850 249 850 q 158 817 172 850 q 143 750 143 785 l 143 661 l 310 661 l 310 626 l 143 626 l 143 0 l 93 0 z "},"ﬁ":{"ha":528,"x_min":50,"x_max":458,"o":"m 93 0 l 93 626 l 50 626 l 50 661 l 93 661 l 93 754 q 101 810 93 786 q 122 851 108 835 q 158 874 136 867 q 206 882 179 882 q 245 881 225 882 q 283 879 265 881 q 310 876 301 878 l 310 843 q 279 847 310 843 q 213 850 249 850 q 158 817 172 850 q 143 750 143 785 l 143 661 l 310 661 l 310 626 l 143 626 l 143 0 l 93 0 m 394 0 l 394 688 l 444 688 l 444 0 l 394 0 m 421 776 q 394 788 406 776 q 383 814 383 799 q 394 840 383 829 q 421 850 406 850 q 447 840 436 850 q 458 814 458 829 q 447 788 458 799 q 421 776 436 776 z "},"ﬂ":{"ha":528,"x_min":50,"x_max":444,"o":"m 93 0 l 93 626 l 50 626 l 50 661 l 93 661 l 93 754 q 101 810 93 786 q 122 851 108 835 q 158 874 136 867 q 206 882 179 882 q 245 881 225 882 q 283 879 265 881 q 310 876 301 878 l 310 843 q 279 847 310 843 q 213 850 249 850 q 158 817 172 850 q 143 750 143 785 l 143 661 l 310 661 l 310 626 l 143 626 l 143 0 l 93 0 m 394 0 l 394 882 l 444 882 l 444 0 l 394 0 z "},"ƒ":{"ha":406,"x_min":-137,"x_max":388,"o":"m -40 -204 q -79 -203 -58 -204 q -116 -200 -100 -201 q -137 -199 -132 -199 l -133 -164 l -47 -169 q 8 -154 -11 -169 q 38 -114 28 -139 q 53 -61 49 -89 l 131 567 l 65 567 l 67 599 l 132 599 l 153 743 q 190 840 161 807 q 278 874 219 874 q 308 874 292 874 q 338 873 324 874 q 365 871 353 872 q 388 868 378 869 l 382 835 q 346 839 372 838 q 289 840 319 840 q 224 808 243 840 q 200 739 206 775 l 181 599 l 335 599 l 332 567 l 178 567 l 101 -69 q 59 -169 92 -133 q -40 -204 26 -204 z "},"⁴":{"ha":321,"x_min":7,"x_max":292,"o":"m 199 328 l 199 429 l 7 429 l 7 461 l 204 821 l 239 821 l 239 458 l 292 458 l 292 429 l 239 429 l 239 328 l 199 328 m 43 458 l 199 458 l 199 733 l 43 458 z "},"⁄":{"ha":519,"x_min":-115,"x_max":489,"o":"m -115 0 l 444 814 l 489 814 l -74 0 l -115 0 z "},"₣":{"ha":526,"x_min":63,"x_max":472,"o":"m 131 0 l 131 218 l 63 218 l 63 247 l 131 247 l 131 821 l 472 821 l 472 783 l 182 783 l 182 451 l 408 451 l 408 411 l 182 411 l 182 247 l 319 247 l 319 218 l 182 218 l 182 0 l 131 0 z "},"g":{"ha":482,"x_min":64,"x_max":411,"o":"m 218 -161 q 188 -160 206 -161 q 153 -157 169 -158 q 126 -154 138 -156 q 110 -151 114 -153 l 110 -118 q 153 -124 125 -119 q 207 -128 182 -128 q 249 -126 224 -128 q 301 -110 275 -124 q 344 -63 326 -96 q 363 31 363 -31 l 363 124 q 333 72 353 93 q 285 40 314 50 q 219 29 256 29 q 170 33 197 29 q 119 51 143 36 q 80 101 96 67 q 64 197 64 136 l 64 531 q 76 617 64 585 q 108 667 88 650 q 156 691 128 685 q 219 697 185 697 q 306 683 263 697 q 363 629 349 669 l 369 683 l 411 683 l 411 36 q 396 -58 411 -19 q 353 -119 381 -96 q 292 -151 326 -142 q 218 -161 257 -161 m 232 65 q 315 93 288 65 q 352 163 343 121 q 361 247 361 206 l 361 582 q 342 617 356 599 q 301 650 328 636 q 231 664 275 664 q 141 635 168 664 q 114 528 114 606 l 114 189 q 127 119 114 144 q 159 82 140 93 q 198 68 178 71 q 232 65 218 65 z "},"ğ":{"ha":482,"x_min":64,"x_max":411,"o":"m 218 -161 q 188 -160 206 -161 q 153 -157 169 -158 q 126 -154 138 -156 q 110 -151 114 -153 l 110 -118 q 153 -124 125 -119 q 207 -128 182 -128 q 249 -126 224 -128 q 301 -110 275 -124 q 344 -63 326 -96 q 363 31 363 -31 l 363 124 q 333 72 353 93 q 285 40 314 50 q 219 29 256 29 q 170 33 197 29 q 119 51 143 36 q 80 101 96 67 q 64 197 64 136 l 64 531 q 76 617 64 585 q 108 667 88 650 q 156 691 128 685 q 219 697 185 697 q 306 683 263 697 q 363 629 349 669 l 369 683 l 411 683 l 411 36 q 396 -58 411 -19 q 353 -119 381 -96 q 292 -151 326 -142 q 218 -161 257 -161 m 232 65 q 315 93 288 65 q 352 163 343 121 q 361 247 361 206 l 361 582 q 342 617 356 599 q 301 650 328 636 q 231 664 275 664 q 141 635 168 664 q 114 528 114 606 l 114 189 q 127 119 114 144 q 159 82 140 93 q 198 68 178 71 q 232 65 218 65 m 246 757 q 172 776 199 757 q 133 824 144 796 q 119 874 121 851 l 153 874 q 185 809 160 831 q 246 788 210 788 q 310 808 285 788 q 340 874 335 829 l 374 874 q 359 823 372 850 q 319 776 346 796 q 246 757 292 757 z "},"ģ":{"ha":482,"x_min":64,"x_max":411,"o":"m 283 907 q 260 861 271 883 q 249 824 249 839 q 255 810 249 815 q 267 799 261 804 q 272 781 272 793 q 263 761 272 769 q 242 753 254 753 q 217 764 226 753 q 208 788 208 775 q 216 824 208 804 q 235 867 224 844 q 260 907 247 889 l 283 907 m 218 -161 q 188 -160 206 -161 q 153 -157 169 -158 q 126 -154 138 -156 q 110 -151 114 -153 l 110 -118 q 153 -124 125 -119 q 207 -128 182 -128 q 249 -126 224 -128 q 301 -110 275 -124 q 344 -63 326 -96 q 363 31 363 -31 l 363 124 q 333 72 353 93 q 285 40 314 50 q 219 29 256 29 q 170 33 197 29 q 119 51 143 36 q 80 101 96 67 q 64 197 64 136 l 64 531 q 76 617 64 585 q 108 667 88 650 q 156 691 128 685 q 219 697 185 697 q 306 683 263 697 q 363 629 349 669 l 369 683 l 411 683 l 411 36 q 396 -58 411 -19 q 353 -119 381 -96 q 292 -151 326 -142 q 218 -161 257 -161 m 232 65 q 315 93 288 65 q 352 163 343 121 q 361 247 361 206 l 361 582 q 342 617 356 599 q 301 650 328 636 q 231 664 275 664 q 141 635 168 664 q 114 528 114 606 l 114 189 q 127 119 114 144 q 159 82 140 93 q 198 68 178 71 q 232 65 218 65 z "},"ġ":{"ha":482,"x_min":64,"x_max":411,"o":"m 218 -161 q 188 -160 206 -161 q 153 -157 169 -158 q 126 -154 138 -156 q 110 -151 114 -153 l 110 -118 q 153 -124 125 -119 q 207 -128 182 -128 q 249 -126 224 -128 q 301 -110 275 -124 q 344 -63 326 -96 q 363 31 363 -31 l 363 124 q 333 72 353 93 q 285 40 314 50 q 219 29 256 29 q 170 33 197 29 q 119 51 143 36 q 80 101 96 67 q 64 197 64 136 l 64 531 q 76 617 64 585 q 108 667 88 650 q 156 691 128 685 q 219 697 185 697 q 306 683 263 697 q 363 629 349 669 l 369 683 l 411 683 l 411 36 q 396 -58 411 -19 q 353 -119 381 -96 q 292 -151 326 -142 q 218 -161 257 -161 m 232 65 q 315 93 288 65 q 352 163 343 121 q 361 247 361 206 l 361 582 q 342 617 356 599 q 301 650 328 636 q 231 664 275 664 q 141 635 168 664 q 114 528 114 606 l 114 189 q 127 119 114 144 q 159 82 140 93 q 198 68 178 71 q 232 65 218 65 m 247 776 q 221 788 232 776 q 210 814 210 799 q 221 840 210 829 q 247 850 232 850 q 274 840 263 850 q 285 814 285 829 q 274 788 285 799 q 247 776 263 776 z "},"г":{"ha":397,"x_min":65,"x_max":369,"o":"m 65 0 l 65 688 l 369 688 l 369 649 l 118 649 l 118 0 l 65 0 z "},"ß":{"ha":501,"x_min":-50,"x_max":467,"o":"m 21 -204 q -17 -202 6 -204 q -50 -199 -39 -200 l -50 -167 q -40 -168 -44 -168 q -31 -169 -36 -168 q -13 -172 -24 -171 q 11 -172 -3 -172 q 79 -143 63 -172 q 96 -74 96 -114 l 96 647 l 50 647 l 50 688 l 96 688 l 96 725 q 109 811 96 778 q 160 860 122 844 q 272 876 199 876 q 403 847 358 876 q 449 740 449 817 l 449 608 q 426 514 449 550 q 374 475 403 478 l 374 469 q 417 451 396 467 q 453 408 439 436 q 467 339 467 381 l 467 168 q 445 60 467 96 q 386 12 424 24 q 297 0 349 0 l 192 0 l 192 33 l 294 33 q 359 44 332 33 q 401 88 386 56 q 415 183 415 119 l 415 332 q 397 406 415 379 q 346 444 378 433 q 276 454 314 454 l 217 454 l 217 488 l 293 488 q 379 522 358 488 q 400 617 400 557 l 400 732 q 369 817 400 789 q 272 844 339 844 q 188 826 215 844 q 153 782 161 808 q 146 729 146 756 l 146 -65 q 138 -126 146 -100 q 114 -170 129 -153 q 75 -196 99 -187 q 21 -204 51 -204 z "},"ѓ":{"ha":397,"x_min":65,"x_max":369,"o":"m 65 0 l 65 688 l 369 688 l 369 649 l 118 649 l 118 0 l 65 0 m 154 757 l 232 879 l 292 879 l 186 757 l 154 757 z "},"`":{"ha":161,"x_min":0,"x_max":138,"o":"m 106 757 l 0 879 l 58 879 l 138 757 l 106 757 z "},"̀":{"ha":0,"x_min":0,"x_max":138,"o":"m 106 757 l 0 879 l 58 879 l 138 757 l 106 757 z "},">":{"ha":486,"x_min":78,"x_max":406,"o":"m 78 210 l 78 268 l 357 454 l 78 642 l 78 699 l 406 476 l 406 432 l 78 210 z "},"≥":{"ha":486,"x_min":76,"x_max":406,"o":"m 76 -1 l 76 38 l 396 38 l 396 -1 l 76 -1 m 78 210 l 78 268 l 357 454 l 78 642 l 78 699 l 406 476 l 406 432 l 78 210 z "},"«":{"ha":624,"x_min":65,"x_max":556,"o":"m 489 156 l 321 396 l 503 657 l 556 657 l 378 396 l 543 156 l 489 156 m 233 156 l 65 396 l 249 657 l 303 657 l 124 396 l 289 156 l 233 156 z "},"»":{"ha":624,"x_min":65,"x_max":556,"o":"m 335 156 l 500 396 l 321 657 l 375 657 l 556 396 l 390 156 l 335 156 m 79 156 l 246 396 l 65 657 l 121 657 l 303 396 l 135 156 l 79 156 z "},"‹":{"ha":367,"x_min":65,"x_max":301,"o":"m 233 156 l 65 396 l 247 657 l 301 657 l 124 396 l 289 156 l 233 156 z "},"›":{"ha":367,"x_min":65,"x_max":301,"o":"m 78 156 l 244 396 l 65 657 l 121 657 l 301 396 l 133 156 l 78 156 z "},"h":{"ha":506,"x_min":83,"x_max":435,"o":"m 83 0 l 83 875 l 132 875 l 132 638 q 183 683 150 667 q 271 699 217 699 q 381 672 347 699 q 425 604 415 646 q 435 517 435 563 l 435 0 l 385 0 l 385 503 q 383 553 385 526 q 371 604 382 581 q 334 643 360 628 q 260 658 308 658 q 188 644 215 658 q 149 610 161 629 q 133 576 136 592 l 133 0 l 83 0 z "},"х":{"ha":419,"x_min":15,"x_max":403,"o":"m 15 0 l 179 365 l 39 688 l 88 688 l 210 410 l 336 688 l 385 688 l 240 365 l 403 0 l 353 0 l 210 317 l 65 0 l 15 0 z "},"ъ":{"ha":551,"x_min":26,"x_max":486,"o":"m 121 0 l 121 651 l 26 651 l 26 688 l 172 688 l 172 471 l 318 471 q 419 451 382 471 q 471 391 456 431 q 486 292 486 351 l 486 199 q 478 110 486 147 q 450 48 469 72 q 398 12 431 24 q 315 0 365 0 l 121 0 m 172 33 l 308 33 q 392 54 364 33 q 428 111 419 75 q 436 192 436 147 l 436 279 q 429 356 436 319 q 395 414 422 392 q 307 436 368 436 l 172 436 l 172 33 z "},"ħ":{"ha":486,"x_min":11,"x_max":435,"o":"m 11 771 l 11 804 l 235 804 l 235 771 l 11 771 m 83 0 l 83 875 l 132 875 l 132 638 q 183 683 150 667 q 271 699 217 699 q 381 672 347 699 q 425 604 415 646 q 435 517 435 563 l 435 0 l 385 0 l 385 503 q 383 553 385 526 q 371 604 382 581 q 334 643 360 628 q 260 658 308 658 q 188 644 215 658 q 149 610 161 629 q 133 576 136 592 l 133 0 l 83 0 z "},"̉":{"ha":0,"x_min":22,"x_max":174,"o":"m 75 758 l 75 783 q 91 814 75 804 q 124 833 107 824 q 140 861 140 843 l 140 867 q 129 894 140 882 q 93 907 118 907 q 53 872 60 907 l 22 879 q 46 918 28 904 q 97 932 64 932 q 154 916 135 932 q 174 865 174 900 l 174 863 q 156 821 174 833 q 122 801 139 808 q 106 776 106 793 l 106 758 l 75 758 z "},"̛":{"ha":0,"x_min":14,"x_max":136,"o":"m 19 647 l 14 678 l 28 678 q 97 739 97 678 l 97 760 l 136 760 l 136 746 q 106 672 136 699 q 19 647 75 646 z "},"˝":{"ha":183,"x_min":0,"x_max":183,"o":"m 0 757 l 46 879 l 99 879 l 26 757 l 0 757 m 82 757 l 132 879 l 183 879 l 110 757 l 82 757 z "},"̋":{"ha":0,"x_min":0,"x_max":183,"o":"m 0 757 l 46 879 l 99 879 l 26 757 l 0 757 m 82 757 l 132 879 l 183 879 l 110 757 l 82 757 z "},"-":{"ha":411,"x_min":65,"x_max":344,"o":"m 65 338 l 65 376 l 344 376 l 344 338 l 65 338 z "},"i":{"ha":217,"x_min":71,"x_max":147,"o":"m 83 0 l 83 688 l 133 688 l 133 0 l 83 0 m 108 776 q 82 788 93 776 q 71 814 71 799 q 82 840 71 829 q 108 850 93 850 q 135 840 124 850 q 146 814 146 829 q 135 788 146 799 q 108 776 124 776 z "},"і":{"ha":217,"x_min":71,"x_max":147,"o":"m 83 0 l 83 688 l 133 688 l 133 0 l 83 0 m 108 776 q 82 788 93 776 q 71 814 71 799 q 82 840 71 829 q 108 850 93 850 q 135 840 124 850 q 146 814 146 829 q 135 788 146 799 q 108 776 124 776 z "},"я":{"ha":522,"x_min":63,"x_max":456,"o":"m 63 0 l 151 246 q 187 309 165 283 q 236 338 208 335 q 128 380 165 340 q 92 497 92 419 l 92 544 q 135 656 92 624 q 244 688 179 688 l 456 688 l 456 0 l 403 0 l 403 331 l 293 326 q 235 288 257 321 q 194 203 213 254 l 121 0 l 63 0 m 282 361 l 403 361 l 403 653 l 244 653 q 173 626 204 653 q 142 546 142 600 l 142 496 q 179 392 142 424 q 282 361 217 361 z "},"í":{"ha":217,"x_min":65,"x_max":201,"o":"m 83 0 l 83 688 l 133 688 l 133 0 l 83 0 m 65 757 l 143 879 l 203 879 l 97 757 l 65 757 z "},"ǐ":{"ha":217,"x_min":-32,"x_max":249,"o":"m 83 0 l 83 688 l 133 688 l 133 0 l 83 0 m 86 760 l -33 878 l 7 878 l 107 789 l 211 878 l 249 878 l 129 760 l 86 760 z "},"î":{"ha":217,"x_min":-32,"x_max":249,"o":"m 83 0 l 83 688 l 133 688 l 133 0 l 83 0 m -32 760 l 88 878 l 131 878 l 250 760 l 213 760 l 108 849 l 7 760 l -32 760 z "},"ï":{"ha":217,"x_min":14,"x_max":203,"o":"m 83 0 l 83 688 l 133 688 l 133 0 l 83 0 m 49 776 q 24 787 35 776 q 14 813 14 797 q 24 836 14 826 q 49 846 35 846 q 74 836 64 846 q 85 813 85 826 q 74 787 85 797 q 49 776 64 776 m 168 776 q 142 787 153 776 q 132 813 132 797 q 142 836 132 826 q 168 846 153 846 q 192 836 182 846 q 203 813 203 826 q 192 787 203 797 q 168 776 182 776 z "},"ị":{"ha":217,"x_min":71,"x_max":157,"o":"m 83 0 l 83 688 l 133 688 l 133 0 l 83 0 m 108 776 q 82 788 93 776 q 71 814 71 799 q 82 840 71 829 q 108 850 93 850 q 135 840 124 850 q 146 814 146 829 q 135 788 146 799 q 108 776 124 776 m 119 -135 q 94 -124 104 -135 q 83 -100 83 -114 q 94 -75 83 -85 q 119 -65 104 -65 q 146 -75 135 -65 q 157 -100 157 -85 q 146 -124 157 -114 q 119 -135 135 -135 z "},"ı":{"ha":217,"x_min":83,"x_max":133,"o":"m 83 0 l 83 688 l 133 688 l 133 0 l 83 0 z "},"е":{"ha":468,"x_min":64,"x_max":411,"o":"m 247 -12 q 138 3 178 -12 q 81 60 99 19 q 64 174 64 100 l 64 533 q 103 663 64 628 q 239 699 143 699 q 373 663 335 699 q 411 533 411 628 l 411 360 l 114 360 l 114 163 q 140 54 114 85 q 244 24 165 24 q 338 53 314 24 q 361 163 361 83 l 361 243 l 411 243 l 411 175 q 394 63 411 104 q 342 4 378 21 q 247 -12 307 -12 m 114 393 l 361 393 l 361 535 q 338 635 361 604 q 239 665 314 665 q 140 635 165 665 q 114 535 114 604 l 114 393 z "},"ѐ":{"ha":468,"x_min":64,"x_max":411,"o":"m 247 -12 q 138 3 178 -12 q 81 60 99 19 q 64 174 64 100 l 64 533 q 103 663 64 628 q 239 699 143 699 q 373 663 335 699 q 411 533 411 628 l 411 360 l 114 360 l 114 163 q 140 54 114 85 q 244 24 165 24 q 338 53 314 24 q 361 163 361 83 l 361 243 l 411 243 l 411 175 q 394 63 411 104 q 342 4 378 21 q 247 -12 307 -12 m 114 393 l 361 393 l 361 535 q 338 635 361 604 q 239 665 314 665 q 140 635 165 665 q 114 535 114 604 l 114 393 m 247 757 l 142 879 l 200 879 l 279 757 l 247 757 z "},"ì":{"ha":217,"x_min":17,"x_max":153,"o":"m 83 0 l 83 688 l 133 688 l 133 0 l 83 0 m 122 757 l 17 879 l 75 879 l 154 757 l 122 757 z "},"ỉ":{"ha":217,"x_min":42,"x_max":193,"o":"m 83 0 l 83 688 l 133 688 l 133 0 l 83 0 m 94 758 l 94 783 q 110 814 94 804 q 143 833 126 824 q 160 861 160 843 l 160 867 q 149 894 160 882 q 113 907 138 907 q 72 872 79 907 l 42 879 q 65 918 47 904 q 117 932 83 932 q 174 916 154 932 q 193 865 193 900 l 193 863 q 176 821 193 833 q 142 801 158 808 q 125 776 125 793 l 125 758 l 94 758 z "},"и":{"ha":492,"x_min":65,"x_max":426,"o":"m 65 0 l 65 686 l 113 686 l 113 94 l 378 686 l 426 686 l 426 0 l 381 0 l 381 600 q 247 301 314 450 q 111 0 181 151 l 65 0 z "},"ѝ":{"ha":492,"x_min":65,"x_max":426,"o":"m 65 0 l 65 686 l 113 686 l 113 94 l 378 686 l 426 686 l 426 0 l 381 0 l 381 600 q 247 301 314 450 q 111 0 181 151 l 65 0 m 258 757 l 153 879 l 211 879 l 290 757 l 258 757 z "},"й":{"ha":492,"x_min":65,"x_max":426,"o":"m 65 0 l 65 686 l 113 686 l 113 94 l 378 686 l 426 686 l 426 0 l 381 0 l 381 600 q 247 301 314 450 q 111 0 181 151 l 65 0 m 244 757 q 170 776 197 757 q 131 824 143 796 q 118 874 119 851 l 151 874 q 183 809 158 831 q 244 788 208 788 q 308 808 283 788 q 339 874 333 829 l 372 874 q 358 823 371 850 q 317 776 344 796 q 244 757 290 757 z "},"ī":{"ha":217,"x_min":-14,"x_max":231,"o":"m 83 0 l 83 688 l 133 688 l 133 0 l 83 0 m -14 790 l -14 821 l 231 821 l 231 790 l -14 790 z "},"∞":{"ha":996,"x_min":64,"x_max":932,"o":"m 231 140 q 108 188 151 140 q 64 335 64 236 q 103 475 64 421 q 232 529 143 529 q 314 514 278 529 q 392 462 350 499 q 497 361 435 425 q 605 463 563 426 q 683 515 647 500 q 765 529 719 529 q 892 475 853 529 q 932 335 932 421 q 892 194 932 249 q 765 140 853 140 q 683 156 719 140 q 604 210 646 172 q 499 310 563 247 q 392 208 436 246 q 313 156 349 171 q 231 140 276 140 m 231 179 q 341 219 289 179 q 465 338 393 258 q 394 405 431 369 q 318 465 357 440 q 231 489 279 489 q 135 444 165 489 q 106 333 106 399 q 135 225 106 271 q 231 179 165 179 m 765 181 q 858 223 825 181 q 890 336 890 265 q 860 444 890 399 q 765 490 829 490 q 715 484 736 490 q 670 461 693 478 q 614 414 647 444 q 531 335 581 383 q 625 245 588 279 q 694 196 663 211 q 765 181 726 181 z "},"∫":{"ha":531,"x_min":-118,"x_max":492,"o":"m -21 -401 q -69 -399 -44 -400 q -118 -394 -94 -397 l -112 -358 l -21 -364 q 47 -332 25 -364 q 75 -267 69 -300 l 253 749 q 278 822 261 793 q 324 863 294 850 q 394 876 353 876 q 444 874 418 875 q 492 869 469 872 l 486 833 l 396 839 q 328 806 349 838 q 300 739 307 774 l 122 -276 q 97 -347 115 -318 q 51 -388 79 -375 q -21 -401 22 -401 z "},"ё":{"ha":468,"x_min":64,"x_max":411,"o":"m 247 -12 q 138 3 178 -12 q 81 60 99 19 q 64 174 64 100 l 64 533 q 103 663 64 628 q 239 699 143 699 q 373 663 335 699 q 411 533 411 628 l 411 360 l 114 360 l 114 163 q 140 54 114 85 q 244 24 165 24 q 338 53 314 24 q 361 163 361 83 l 361 243 l 411 243 l 411 175 q 394 63 411 104 q 342 4 378 21 q 247 -12 307 -12 m 114 393 l 361 393 l 361 535 q 338 635 361 604 q 239 665 314 665 q 140 635 165 665 q 114 535 114 604 l 114 393 m 175 776 q 151 787 161 776 q 140 813 140 797 q 151 836 140 826 q 175 846 161 846 q 201 836 190 846 q 211 813 211 826 q 201 787 211 797 q 175 776 190 776 m 294 776 q 269 787 279 776 q 258 813 258 797 q 269 836 258 826 q 294 846 279 846 q 319 836 308 846 q 329 813 329 826 q 319 787 329 797 q 294 776 308 776 z "},"į":{"ha":217,"x_min":19,"x_max":161,"o":"m 83 0 l 83 688 l 133 688 l 133 0 l 83 0 m 108 776 q 82 788 93 776 q 71 814 71 799 q 82 840 71 829 q 108 850 93 850 q 135 840 124 850 q 146 814 146 829 q 135 788 146 799 q 108 776 124 776 m 106 -182 q 45 -161 71 -182 q 19 -106 19 -140 q 46 -38 19 -65 q 100 0 72 -11 l 135 0 q 78 -44 99 -18 q 58 -99 58 -71 q 76 -140 58 -126 q 113 -154 94 -154 q 136 -151 126 -154 q 151 -144 146 -147 l 161 -167 q 139 -177 153 -172 q 106 -182 125 -182 z "},"ĩ":{"ha":217,"x_min":-21,"x_max":239,"o":"m 83 0 l 83 688 l 133 688 l 133 0 l 83 0 m 165 771 q 137 776 149 771 q 106 796 125 782 q 82 812 96 803 q 51 821 68 821 q 23 810 35 821 q 7 772 11 799 l -21 772 q 1 829 -18 807 q 51 851 19 851 q 83 844 68 851 q 114 825 99 836 q 140 809 129 815 q 165 803 151 803 q 194 814 183 803 q 210 850 206 825 l 239 850 q 228 808 238 826 q 202 781 218 790 q 165 771 186 771 z "},"ю":{"ha":796,"x_min":65,"x_max":731,"o":"m 556 -10 q 440 16 478 -10 q 392 85 403 42 q 382 179 382 128 l 382 517 q 392 605 382 564 q 440 672 403 646 q 556 699 476 699 q 672 672 635 699 q 720 605 710 646 q 731 517 731 564 l 731 179 q 719 85 731 128 q 672 16 708 42 q 556 -10 635 -10 m 65 0 l 65 688 l 115 688 l 115 383 l 390 383 l 390 343 l 115 343 l 115 0 l 65 0 m 556 22 q 642 44 615 22 q 674 103 668 67 q 681 176 681 139 l 681 514 q 674 586 681 551 q 642 643 668 621 q 556 665 615 665 q 471 643 497 665 q 438 586 444 621 q 432 514 432 551 l 432 176 q 438 103 432 139 q 471 44 444 67 q 556 22 497 22 z "},"j":{"ha":217,"x_min":-69,"x_max":146,"o":"m -37 -153 q -55 -152 -44 -153 q -69 -150 -65 -151 l -69 -119 q -55 -122 -65 -121 q -35 -122 -44 -122 q 51 -103 19 -122 q 83 -25 83 -85 l 83 688 l 133 688 l 133 -21 q 110 -108 133 -79 q 48 -145 86 -136 q -37 -153 10 -154 m 108 776 q 82 788 93 776 q 71 814 71 799 q 82 840 71 829 q 108 850 93 850 q 135 840 124 850 q 146 814 146 829 q 135 788 146 799 q 108 776 124 776 z "},"ȷ":{"ha":217,"x_min":-69,"x_max":133,"o":"m -37 -153 q -55 -152 -44 -153 q -69 -150 -65 -151 l -69 -119 q -55 -122 -65 -121 q -35 -122 -44 -122 q 51 -103 19 -122 q 83 -25 83 -85 l 83 688 l 133 688 l 133 -21 q 110 -108 133 -79 q 48 -145 86 -136 q -37 -153 10 -154 z "},"ј":{"ha":217,"x_min":-69,"x_max":146,"o":"m -37 -153 q -55 -152 -44 -153 q -69 -150 -65 -151 l -69 -119 q -55 -122 -65 -121 q -35 -122 -44 -122 q 51 -103 19 -122 q 83 -25 83 -85 l 83 688 l 133 688 l 133 -21 q 110 -108 133 -79 q 48 -145 86 -136 q -37 -153 10 -154 m 108 776 q 82 788 93 776 q 71 814 71 799 q 82 840 71 829 q 108 850 93 850 q 135 840 124 850 q 146 814 146 829 q 135 788 146 799 q 108 776 124 776 z "},"k":{"ha":436,"x_min":83,"x_max":411,"o":"m 358 0 l 163 400 l 357 688 l 408 688 l 214 400 l 411 0 l 358 0 m 83 0 l 83 882 l 133 882 l 133 0 l 83 0 z "},"к":{"ha":453,"x_min":65,"x_max":413,"o":"m 65 0 l 65 688 l 115 688 l 115 354 q 209 513 156 444 q 317 621 263 581 q 413 664 372 661 l 413 626 q 344 591 376 615 q 282 533 311 567 q 243 485 261 511 q 208 432 225 460 l 408 0 l 351 0 l 169 381 q 138 322 154 353 q 115 275 122 290 l 115 0 l 65 0 z "},"ķ":{"ha":436,"x_min":83,"x_max":411,"o":"m 358 0 l 163 400 l 357 688 l 408 688 l 214 400 l 411 0 l 358 0 m 83 0 l 83 882 l 133 882 l 133 0 l 83 0 m 190 -207 q 215 -162 204 -183 q 225 -125 225 -140 q 219 -111 225 -117 q 208 -99 214 -106 q 201 -82 201 -93 q 211 -62 201 -71 q 232 -54 221 -54 q 257 -65 247 -54 q 267 -89 267 -75 q 259 -124 267 -103 q 240 -167 251 -146 q 214 -207 228 -189 l 190 -207 z "},"ќ":{"ha":453,"x_min":65,"x_max":413,"o":"m 65 0 l 65 688 l 115 688 l 115 354 q 209 513 156 444 q 317 621 263 581 q 413 664 372 661 l 413 626 q 344 591 376 615 q 282 533 311 567 q 243 485 261 511 q 208 432 225 460 l 408 0 l 351 0 l 169 381 q 138 322 154 353 q 115 275 122 290 l 115 0 l 65 0 m 183 757 l 261 879 l 321 879 l 215 757 l 183 757 z "},"l":{"ha":217,"x_min":83,"x_max":133,"o":"m 83 0 l 83 882 l 133 882 l 133 0 l 83 0 z "},"ĺ":{"ha":217,"x_min":51,"x_max":224,"o":"m 83 0 l 83 882 l 133 882 l 133 0 l 83 0 m 51 933 l 164 1042 l 224 1042 l 90 933 l 51 933 z "},"ľ":{"ha":231,"x_min":83,"x_max":249,"o":"m 83 0 l 83 882 l 133 882 l 133 0 l 83 0 m 188 724 l 210 890 l 249 890 l 213 724 l 188 724 z "},"ļ":{"ha":217,"x_min":65,"x_max":142,"o":"m 83 0 l 83 882 l 133 882 l 133 0 l 83 0 m 65 -207 q 90 -162 79 -183 q 100 -125 100 -140 q 94 -111 100 -117 q 83 -99 89 -106 q 76 -82 76 -93 q 86 -62 76 -71 q 107 -54 96 -54 q 132 -65 122 -54 q 142 -89 142 -75 q 134 -124 142 -103 q 115 -167 126 -146 q 89 -207 103 -189 l 65 -207 z "},"←":{"ha":1117,"x_min":65,"x_max":1047,"o":"m 364 113 l 65 397 l 364 686 l 390 661 l 146 419 l 1047 419 l 1047 378 l 147 381 l 389 139 l 364 113 z "},"↔":{"ha":1329,"x_min":65,"x_max":1263,"o":"m 368 74 l 65 360 l 368 647 l 393 621 l 151 379 l 1176 379 l 935 621 l 963 647 l 1263 360 l 963 74 l 935 97 l 1178 339 l 151 339 l 393 97 l 368 74 z "},"<":{"ha":486,"x_min":78,"x_max":406,"o":"m 406 210 l 78 432 l 78 476 l 406 699 l 406 642 l 128 453 l 406 267 l 406 210 z "},"≤":{"ha":463,"x_min":67,"x_max":396,"o":"m 394 210 l 67 432 l 67 476 l 394 699 l 394 642 l 115 454 l 394 268 l 394 210 m 396 -1 l 78 -1 l 78 38 l 396 38 l 396 -1 z "},"љ":{"ha":826,"x_min":26,"x_max":761,"o":"m 26 0 l 26 33 q 72 57 54 33 q 93 136 89 81 l 139 686 l 447 686 l 447 471 l 592 471 q 699 449 663 471 q 748 386 735 426 q 761 292 761 346 l 761 229 q 755 133 761 176 q 731 61 749 90 q 679 16 713 32 q 590 0 646 0 l 396 0 l 396 647 l 189 647 l 142 119 q 136 84 140 104 q 122 44 132 64 q 94 13 113 25 q 49 0 76 0 l 26 0 m 447 33 l 582 33 q 666 54 639 33 q 702 111 693 75 q 711 192 711 147 l 711 279 q 704 356 711 319 q 669 414 697 392 q 581 436 642 436 l 447 436 l 447 33 z "},"¬":{"ha":774,"x_min":68,"x_max":708,"o":"m 668 276 l 668 521 l 68 521 l 68 561 l 708 561 l 708 276 l 668 276 z "},"ſ":{"ha":449,"x_min":14,"x_max":431,"o":"m 114 -204 q 59 -203 88 -204 q 14 -197 31 -201 l 14 -162 l 47 -167 q 78 -168 61 -168 q 113 -168 94 -168 q 165 -135 151 -165 q 179 -71 179 -104 l 179 575 l 135 575 l 135 611 l 179 611 l 179 754 q 192 826 179 797 q 233 868 206 854 q 299 882 260 882 q 368 878 336 882 q 431 867 400 874 l 424 833 q 365 843 394 839 q 300 847 336 847 q 244 814 258 847 q 231 746 231 781 l 231 -64 q 217 -140 231 -110 q 178 -187 204 -171 q 114 -204 153 -203 z "},"◊":{"ha":649,"x_min":65,"x_max":582,"o":"m 299 -49 l 65 406 l 299 858 l 349 858 l 582 406 l 349 -49 l 299 -49 m 325 4 l 525 407 l 325 801 l 122 407 l 325 4 z "},"ł":{"ha":381,"x_min":64,"x_max":317,"o":"m 164 0 l 164 251 l 64 206 l 64 242 l 164 286 l 164 882 l 211 882 l 211 310 l 317 356 l 317 321 l 211 274 l 211 0 l 164 0 z "},"m":{"ha":786,"x_min":83,"x_max":717,"o":"m 83 0 l 83 688 l 125 688 l 132 614 q 185 675 149 653 q 274 697 221 697 q 388 664 354 697 q 421 567 421 631 l 406 565 q 463 662 422 626 q 567 697 503 697 q 685 658 653 697 q 717 539 717 619 l 717 0 l 667 0 l 667 522 q 642 630 667 601 q 558 658 618 658 q 465 624 501 658 q 425 539 428 590 l 425 0 l 375 0 l 375 535 q 351 631 375 603 q 264 658 328 658 q 177 630 207 658 q 133 563 147 601 l 133 0 l 83 0 z "},"¯":{"ha":272,"x_min":14,"x_max":258,"o":"m 14 790 l 14 821 l 258 821 l 258 790 l 14 790 z "},"̄":{"ha":0,"x_min":14,"x_max":258,"o":"m 14 790 l 14 821 l 258 821 l 258 790 l 14 790 z "},"µ":{"ha":479,"x_min":65,"x_max":414,"o":"m 65 -179 l 65 688 l 115 688 l 115 125 q 161 53 129 79 q 247 26 193 26 q 308 35 282 26 q 349 74 335 44 q 364 165 364 104 l 364 688 l 414 688 l 414 172 q 401 68 414 108 q 356 9 389 28 q 257 -10 322 -10 q 174 8 215 -10 q 114 69 133 26 l 108 -179 l 65 -179 z "},"−":{"ha":581,"x_min":74,"x_max":494,"o":"m 74 326 l 74 372 l 494 372 l 494 326 l 74 326 z "},"×":{"ha":482,"x_min":65,"x_max":417,"o":"m 385 189 l 240 332 l 108 199 l 75 232 l 207 365 l 65 507 l 99 540 l 240 397 l 375 532 l 408 500 l 275 365 l 417 221 l 385 189 z "},"n":{"ha":506,"x_min":83,"x_max":435,"o":"m 83 0 l 83 688 l 124 688 l 132 618 q 188 681 147 663 q 271 699 228 699 q 381 672 347 699 q 425 604 415 646 q 435 517 435 563 l 435 0 l 385 0 l 385 504 q 383 561 385 533 q 371 611 382 589 q 334 647 360 633 q 260 661 308 661 q 189 644 215 661 q 151 606 163 628 q 133 564 139 583 l 133 0 l 83 0 z "},"ń":{"ha":506,"x_min":83,"x_max":435,"o":"m 83 0 l 83 688 l 124 688 l 132 618 q 188 681 147 663 q 271 699 228 699 q 381 672 347 699 q 425 604 415 646 q 435 517 435 563 l 435 0 l 385 0 l 385 504 q 383 561 385 533 q 371 611 382 589 q 334 647 360 633 q 260 661 308 661 q 189 644 215 661 q 151 606 163 628 q 133 564 139 583 l 133 0 l 83 0 m 210 757 l 288 879 l 347 879 l 242 757 l 210 757 z "},"ň":{"ha":506,"x_min":83,"x_max":435,"o":"m 83 0 l 83 688 l 124 688 l 132 618 q 188 681 147 663 q 271 699 228 699 q 381 672 347 699 q 425 604 415 646 q 435 517 435 563 l 435 0 l 385 0 l 385 504 q 383 561 385 533 q 371 611 382 589 q 334 647 360 633 q 260 661 308 661 q 189 644 215 661 q 151 606 163 628 q 133 564 139 583 l 133 0 l 83 0 m 231 760 l 111 878 l 151 878 l 251 789 l 356 878 l 393 878 l 274 760 l 231 760 z "},"ņ":{"ha":506,"x_min":83,"x_max":435,"o":"m 83 0 l 83 688 l 124 688 l 132 618 q 188 681 147 663 q 271 699 228 699 q 381 672 347 699 q 425 604 415 646 q 435 517 435 563 l 435 0 l 385 0 l 385 504 q 383 561 385 533 q 371 611 382 589 q 334 647 360 633 q 260 661 308 661 q 189 644 215 661 q 151 606 163 628 q 133 564 139 583 l 133 0 l 83 0 m 214 -207 q 238 -162 228 -183 q 249 -125 249 -140 q 243 -111 249 -117 q 231 -99 238 -106 q 225 -82 225 -93 q 235 -62 225 -71 q 256 -54 244 -54 q 281 -65 271 -54 q 290 -89 290 -75 q 283 -124 290 -103 q 263 -167 275 -146 q 238 -207 251 -189 l 214 -207 z "},"њ":{"ha":808,"x_min":65,"x_max":744,"o":"m 65 0 l 65 688 l 115 688 l 115 383 l 379 383 l 379 688 l 429 688 l 429 471 l 575 471 q 681 449 644 471 q 731 386 718 426 q 744 292 744 346 l 744 229 q 738 133 744 176 q 713 61 731 90 q 661 16 694 32 q 572 0 628 0 l 379 0 l 379 343 l 115 343 l 115 0 l 65 0 m 429 33 l 565 33 q 649 54 622 33 q 685 111 676 75 q 694 192 694 147 l 694 279 q 687 356 694 319 q 652 414 679 392 q 564 436 625 436 l 429 436 l 429 33 z "},"↗":{"ha":832,"x_min":58,"x_max":768,"o":"m 89 115 l 58 144 l 697 782 l 356 783 l 356 817 l 768 825 l 763 413 l 725 413 l 725 754 l 89 115 z "},"↖":{"ha":840,"x_min":68,"x_max":778,"o":"m 750 110 l 113 749 l 113 407 l 76 407 l 68 821 l 482 814 l 482 776 l 142 778 l 778 139 l 750 110 z "},"≠":{"ha":556,"x_min":74,"x_max":488,"o":"m 74 -4 l 199 233 l 74 233 l 74 275 l 219 275 l 351 533 l 74 533 l 74 575 l 374 575 l 449 722 l 488 722 l 410 575 l 488 575 l 488 533 l 388 533 l 254 275 l 488 275 l 488 233 l 233 233 l 110 -4 l 74 -4 z "},"ñ":{"ha":506,"x_min":83,"x_max":435,"o":"m 83 0 l 83 688 l 124 688 l 132 618 q 188 681 147 663 q 271 699 228 699 q 381 672 347 699 q 425 604 415 646 q 435 517 435 563 l 435 0 l 385 0 l 385 504 q 383 561 385 533 q 371 611 382 589 q 334 647 360 633 q 260 661 308 661 q 189 644 215 661 q 151 606 163 628 q 133 564 139 583 l 133 0 l 83 0 m 310 771 q 281 776 293 771 q 250 796 269 782 q 226 812 240 803 q 196 821 213 821 q 167 810 179 821 q 151 772 156 799 l 124 772 q 145 829 126 807 q 196 851 164 851 q 228 844 213 851 q 258 825 243 836 q 285 809 274 815 q 310 803 296 803 q 339 814 328 803 q 354 850 350 825 l 383 850 q 372 808 382 826 q 347 781 363 790 q 310 771 331 771 z "},"#":{"ha":944,"x_min":65,"x_max":879,"o":"m 181 0 l 267 272 l 65 272 l 75 304 l 278 304 l 354 551 l 151 551 l 164 583 l 365 583 l 432 796 l 463 796 l 397 583 l 647 583 l 713 796 l 746 796 l 678 583 l 879 583 l 868 551 l 667 551 l 590 304 l 792 304 l 781 272 l 579 272 l 494 0 l 463 0 l 549 272 l 299 272 l 213 0 l 181 0 m 308 304 l 558 304 l 635 551 l 386 551 l 308 304 z "},"o":{"ha":478,"x_min":64,"x_max":414,"o":"m 240 -10 q 124 16 161 -10 q 75 85 86 42 q 64 179 64 129 l 64 515 q 75 604 64 563 q 124 672 86 646 q 240 699 161 699 q 356 672 319 699 q 403 604 392 646 q 414 515 414 563 l 414 179 q 403 85 414 129 q 355 16 392 42 q 240 -10 318 -10 m 240 24 q 324 47 299 24 q 357 106 350 71 q 364 178 364 142 l 364 511 q 357 583 364 549 q 324 641 350 618 q 240 664 299 664 q 155 641 182 664 q 121 583 128 618 q 114 511 114 549 l 114 178 q 121 106 114 142 q 155 47 128 71 q 240 24 182 24 z "},"о":{"ha":478,"x_min":64,"x_max":414,"o":"m 240 -10 q 124 16 161 -10 q 75 85 86 42 q 64 179 64 129 l 64 515 q 75 604 64 563 q 124 672 86 646 q 240 699 161 699 q 356 672 319 699 q 403 604 392 646 q 414 515 414 563 l 414 179 q 403 85 414 129 q 355 16 392 42 q 240 -10 318 -10 m 240 24 q 324 47 299 24 q 357 106 350 71 q 364 178 364 142 l 364 511 q 357 583 364 549 q 324 641 350 618 q 240 664 299 664 q 155 641 182 664 q 121 583 128 618 q 114 511 114 549 l 114 178 q 121 106 114 142 q 155 47 128 71 q 240 24 182 24 z "},"ó":{"ha":478,"x_min":64,"x_max":414,"o":"m 240 -10 q 124 16 161 -10 q 75 85 86 42 q 64 179 64 129 l 64 515 q 75 604 64 563 q 124 672 86 646 q 240 699 161 699 q 356 672 319 699 q 403 604 392 646 q 414 515 414 563 l 414 179 q 403 85 414 129 q 355 16 392 42 q 240 -10 318 -10 m 240 24 q 324 47 299 24 q 357 106 350 71 q 364 178 364 142 l 364 511 q 357 583 364 549 q 324 641 350 618 q 240 664 299 664 q 155 641 182 664 q 121 583 128 618 q 114 511 114 549 l 114 178 q 121 106 114 142 q 155 47 128 71 q 240 24 182 24 m 194 757 l 272 879 l 332 879 l 226 757 l 194 757 z "},"ǒ":{"ha":478,"x_min":64,"x_max":414,"o":"m 240 -10 q 124 16 161 -10 q 75 85 86 42 q 64 179 64 129 l 64 515 q 75 604 64 563 q 124 672 86 646 q 240 699 161 699 q 356 672 319 699 q 403 604 392 646 q 414 515 414 563 l 414 179 q 403 85 414 129 q 355 16 392 42 q 240 -10 318 -10 m 240 24 q 324 47 299 24 q 357 106 350 71 q 364 178 364 142 l 364 511 q 357 583 364 549 q 324 641 350 618 q 240 664 299 664 q 155 641 182 664 q 121 583 128 618 q 114 511 114 549 l 114 178 q 121 106 114 142 q 155 47 128 71 q 240 24 182 24 m 217 760 l 97 878 l 138 878 l 238 789 l 342 878 l 379 878 l 260 760 l 217 760 z "},"ô":{"ha":478,"x_min":64,"x_max":414,"o":"m 240 -10 q 124 16 161 -10 q 75 85 86 42 q 64 179 64 129 l 64 515 q 75 604 64 563 q 124 672 86 646 q 240 699 161 699 q 356 672 319 699 q 403 604 392 646 q 414 515 414 563 l 414 179 q 403 85 414 129 q 355 16 392 42 q 240 -10 318 -10 m 240 24 q 324 47 299 24 q 357 106 350 71 q 364 178 364 142 l 364 511 q 357 583 364 549 q 324 641 350 618 q 240 664 299 664 q 155 641 182 664 q 121 583 128 618 q 114 511 114 549 l 114 178 q 121 106 114 142 q 155 47 128 71 q 240 24 182 24 m 97 760 l 217 878 l 260 878 l 379 760 l 342 760 l 238 849 l 136 760 l 97 760 z "},"ố":{"ha":478,"x_min":64,"x_max":514,"o":"m 240 -10 q 124 16 161 -10 q 75 85 86 42 q 64 179 64 129 l 64 515 q 75 604 64 563 q 124 672 86 646 q 240 699 161 699 q 356 672 319 699 q 403 604 392 646 q 414 515 414 563 l 414 179 q 403 85 414 129 q 355 16 392 42 q 240 -10 318 -10 m 240 24 q 324 47 299 24 q 357 106 350 71 q 364 178 364 142 l 364 511 q 357 583 364 549 q 324 641 350 618 q 240 664 299 664 q 155 641 182 664 q 121 583 128 618 q 114 511 114 549 l 114 178 q 121 106 114 142 q 155 47 128 71 q 240 24 182 24 m 97 760 l 217 878 l 260 878 l 379 760 l 342 760 l 238 849 l 136 760 l 97 760 m 376 829 l 454 951 l 514 951 l 408 829 l 376 829 z "},"ộ":{"ha":478,"x_min":64,"x_max":414,"o":"m 240 -10 q 124 16 161 -10 q 75 85 86 42 q 64 179 64 129 l 64 515 q 75 604 64 563 q 124 672 86 646 q 240 699 161 699 q 356 672 319 699 q 403 604 392 646 q 414 515 414 563 l 414 179 q 403 85 414 129 q 355 16 392 42 q 240 -10 318 -10 m 240 24 q 324 47 299 24 q 357 106 350 71 q 364 178 364 142 l 364 511 q 357 583 364 549 q 324 641 350 618 q 240 664 299 664 q 155 641 182 664 q 121 583 128 618 q 114 511 114 549 l 114 178 q 121 106 114 142 q 155 47 128 71 q 240 24 182 24 m 239 -135 q 213 -124 224 -135 q 203 -100 203 -114 q 213 -75 203 -85 q 239 -65 224 -65 q 265 -75 254 -65 q 276 -100 276 -85 q 265 -124 276 -114 q 239 -135 254 -135 m 97 760 l 217 878 l 260 878 l 379 760 l 342 760 l 238 849 l 136 760 l 97 760 z "},"ồ":{"ha":478,"x_min":64,"x_max":465,"o":"m 240 -10 q 124 16 161 -10 q 75 85 86 42 q 64 179 64 129 l 64 515 q 75 604 64 563 q 124 672 86 646 q 240 699 161 699 q 356 672 319 699 q 403 604 392 646 q 414 515 414 563 l 414 179 q 403 85 414 129 q 355 16 392 42 q 240 -10 318 -10 m 240 24 q 324 47 299 24 q 357 106 350 71 q 364 178 364 142 l 364 511 q 357 583 364 549 q 324 641 350 618 q 240 664 299 664 q 155 641 182 664 q 121 583 128 618 q 114 511 114 549 l 114 178 q 121 106 114 142 q 155 47 128 71 q 240 24 182 24 m 97 760 l 217 878 l 260 878 l 379 760 l 342 760 l 238 849 l 136 760 l 97 760 m 433 829 l 328 951 l 386 951 l 465 829 l 433 829 z "},"ổ":{"ha":478,"x_min":64,"x_max":506,"o":"m 240 -10 q 124 16 161 -10 q 75 85 86 42 q 64 179 64 129 l 64 515 q 75 604 64 563 q 124 672 86 646 q 240 699 161 699 q 356 672 319 699 q 403 604 392 646 q 414 515 414 563 l 414 179 q 403 85 414 129 q 355 16 392 42 q 240 -10 318 -10 m 240 24 q 324 47 299 24 q 357 106 350 71 q 364 178 364 142 l 364 511 q 357 583 364 549 q 324 641 350 618 q 240 664 299 664 q 155 641 182 664 q 121 583 128 618 q 114 511 114 549 l 114 178 q 121 106 114 142 q 155 47 128 71 q 240 24 182 24 m 97 760 l 217 878 l 260 878 l 379 760 l 342 760 l 238 849 l 136 760 l 97 760 m 407 831 l 407 856 q 423 886 407 876 q 456 906 439 896 q 472 933 472 915 l 472 939 q 461 967 472 954 q 425 979 450 979 q 385 944 392 979 l 354 951 q 378 990 360 976 q 429 1004 396 1004 q 486 988 467 1004 q 506 938 506 972 l 506 935 q 488 893 506 906 q 454 873 471 881 q 438 849 438 865 l 438 831 l 407 831 z "},"ỗ":{"ha":478,"x_min":64,"x_max":414,"o":"m 240 -10 q 124 16 161 -10 q 75 85 86 42 q 64 179 64 129 l 64 515 q 75 604 64 563 q 124 672 86 646 q 240 699 161 699 q 356 672 319 699 q 403 604 392 646 q 414 515 414 563 l 414 179 q 403 85 414 129 q 355 16 392 42 q 240 -10 318 -10 m 240 24 q 324 47 299 24 q 357 106 350 71 q 364 178 364 142 l 364 511 q 357 583 364 549 q 324 641 350 618 q 240 664 299 664 q 155 641 182 664 q 121 583 128 618 q 114 511 114 549 l 114 178 q 121 106 114 142 q 155 47 128 71 q 240 24 182 24 m 97 760 l 217 878 l 260 878 l 379 760 l 342 760 l 238 849 l 136 760 l 97 760 m 293 907 q 265 913 276 907 q 233 932 253 918 q 210 948 224 939 q 179 957 196 957 q 151 946 163 957 q 135 908 139 935 l 107 908 q 128 965 110 943 q 179 988 147 988 q 211 980 196 988 q 242 961 226 972 q 268 945 257 951 q 293 939 279 939 q 322 950 311 939 q 338 986 333 961 l 367 986 q 356 944 365 963 q 330 917 346 926 q 293 907 314 907 z "},"ö":{"ha":478,"x_min":64,"x_max":414,"o":"m 240 -10 q 124 16 161 -10 q 75 85 86 42 q 64 179 64 129 l 64 515 q 75 604 64 563 q 124 672 86 646 q 240 699 161 699 q 356 672 319 699 q 403 604 392 646 q 414 515 414 563 l 414 179 q 403 85 414 129 q 355 16 392 42 q 240 -10 318 -10 m 240 24 q 324 47 299 24 q 357 106 350 71 q 364 178 364 142 l 364 511 q 357 583 364 549 q 324 641 350 618 q 240 664 299 664 q 155 641 182 664 q 121 583 128 618 q 114 511 114 549 l 114 178 q 121 106 114 142 q 155 47 128 71 q 240 24 182 24 m 179 776 q 155 787 165 776 q 144 813 144 797 q 155 836 144 826 q 179 846 165 846 q 205 836 194 846 q 215 813 215 826 q 205 787 215 797 q 179 776 194 776 m 299 776 q 273 787 283 776 q 263 813 263 797 q 273 836 263 826 q 299 846 283 846 q 323 836 313 846 q 333 813 333 826 q 323 787 333 797 q 299 776 313 776 z "},"ọ":{"ha":478,"x_min":64,"x_max":414,"o":"m 240 -10 q 124 16 161 -10 q 75 85 86 42 q 64 179 64 129 l 64 515 q 75 604 64 563 q 124 672 86 646 q 240 699 161 699 q 356 672 319 699 q 403 604 392 646 q 414 515 414 563 l 414 179 q 403 85 414 129 q 355 16 392 42 q 240 -10 318 -10 m 240 24 q 324 47 299 24 q 357 106 350 71 q 364 178 364 142 l 364 511 q 357 583 364 549 q 324 641 350 618 q 240 664 299 664 q 155 641 182 664 q 121 583 128 618 q 114 511 114 549 l 114 178 q 121 106 114 142 q 155 47 128 71 q 240 24 182 24 m 239 -135 q 213 -124 224 -135 q 203 -100 203 -114 q 213 -75 203 -85 q 239 -65 224 -65 q 265 -75 254 -65 q 276 -100 276 -85 q 265 -124 276 -114 q 239 -135 254 -135 z "}}}
